M48
;DRILL file {KiCad 4.0.4-stable} date 10/23/16 14:40:51
;FORMAT={3:3/ absolute / metric / suppress leading zeros}
FMAT,2
METRIC,TZ
T1C0.400
T2C0.700
T3C0.850
T4C1.100
T5C1.150
T6C2.750
%
G90
G05
M71
T1
X69950Y-128400
X78100Y-121400
X78800Y-120700
X79200Y-100000
X79500Y-121400
X79850Y-96700
X80000Y-100700
X80200Y-120700
X80300Y-104000
X80650Y-96000
X80900Y-121400
X81050Y-104700
X81200Y-92700
X81600Y-120700
X81900Y-108000
X82000Y-92000
X82050Y-80000
X82600Y-108700
X82800Y-80700
X82800Y-84000
X82850Y-88700
X83100Y-112000
X83550Y-84700
X83600Y-88000
X84000Y-112700
X84100Y-116000
X84850Y-82350
X84850Y-86350
X84850Y-90350
X84850Y-94350
X84850Y-98350
X84850Y-102350
X84850Y-106350
X84850Y-114350
X84900Y-110350
X84900Y-116700
X85000Y-119100
X85000Y-120000
X85650Y-82350
X85650Y-86350
X85650Y-90350
X85650Y-94350
X85650Y-98350
X85650Y-102350
X85650Y-106350
X85650Y-114350
X85700Y-110350
X86500Y-78550
X86500Y-82300
X86500Y-86300
X86500Y-90300
X86500Y-94300
X86500Y-98300
X86500Y-102300
X86500Y-106300
X86500Y-110300
X86500Y-114300
X86500Y-118300
X88600Y-78350
X88600Y-82350
X88600Y-90350
X88600Y-94350
X88600Y-98350
X88600Y-102350
X88600Y-106350
X88600Y-110400
X88600Y-114350
X88600Y-118350
X88600Y-122350
X88650Y-86350
X90600Y-78350
X90600Y-82350
X90600Y-86350
X90600Y-90350
X90600Y-94350
X90600Y-98350
X90600Y-102350
X90600Y-106350
X90600Y-110350
X90600Y-114350
X90600Y-118350
X90600Y-122350
X91000Y-77400
X91000Y-80000
X91000Y-81400
X91000Y-84000
X91000Y-85400
X91000Y-88000
X91000Y-89400
X91000Y-92000
X91000Y-93400
X91000Y-96000
X91000Y-97400
X91000Y-100000
X91000Y-101400
X91000Y-104000
X91000Y-105400
X91000Y-108000
X91000Y-109400
X91000Y-112000
X91000Y-113400
X91000Y-116000
X91000Y-117400
X91000Y-120000
X91400Y-78350
X91400Y-82350
X91400Y-86350
X91400Y-90350
X91400Y-94350
X91400Y-98350
X91400Y-102350
X91400Y-106350
X91400Y-110350
X91400Y-114350
X91400Y-118350
X91400Y-122350
X92650Y-80350
X92650Y-100350
X92650Y-108350
X92700Y-84350
X92750Y-88350
X92750Y-92350
X92750Y-96400
X92750Y-104350
X92850Y-112400
X92850Y-116350
X92900Y-120350
X96200Y-78150
X96200Y-82100
X96200Y-86100
X96200Y-90100
X96200Y-94100
X96200Y-98100
X96200Y-102100
X96200Y-106100
X96200Y-110100
X96200Y-114100
X96200Y-118200
X96500Y-77200
X96500Y-81200
X96500Y-85200
X96500Y-89200
X96500Y-93200
X96500Y-97200
X96500Y-101200
X96500Y-105200
X96500Y-109200
X96500Y-113200
X96500Y-117200
X96800Y-123290
X97000Y-121200
X97000Y-122100
X99600Y-78400
X99600Y-80400
X99600Y-82400
X99600Y-84400
X99600Y-86400
X99600Y-88400
X99600Y-90400
X99600Y-92400
X99600Y-94400
X99600Y-96400
X99600Y-98400
X99600Y-104400
X99600Y-106400
X99600Y-108400
X99600Y-110400
X99600Y-112400
X99600Y-114400
X99600Y-118400
X99600Y-120400
X99600Y-122400
X99600Y-123850
X99600Y-124500
X99650Y-100400
X99650Y-102400
X99650Y-116450
X99700Y-76400
X100250Y-79000
X100300Y-116450
X100350Y-82400
X100350Y-84400
X100350Y-86400
X100350Y-88400
X100350Y-90400
X100350Y-92400
X100350Y-94400
X100350Y-96400
X100350Y-98400
X100350Y-104400
X100350Y-106400
X100350Y-108400
X100350Y-110400
X100350Y-112400
X100350Y-114400
X100350Y-118400
X100350Y-120400
X100350Y-122400
X100350Y-123850
X100350Y-124500
X100400Y-76400
X100500Y-100400
X101100Y-76400
X101200Y-79450
X101450Y-135650
X101800Y-76400
X101800Y-77150
X102100Y-136200
X102200Y-83000
X102650Y-79250
X102750Y-136750
X102900Y-82400
X102950Y-86850
X103450Y-137250
X103550Y-83000
X103650Y-86350
X103700Y-90900
X103800Y-84400
X104200Y-137650
X104350Y-90350
X104400Y-86800
X104500Y-88400
X104500Y-94900
X104900Y-84400
X104900Y-134400
X105000Y-90900
X105100Y-136500
X105150Y-94350
X105200Y-92400
X105250Y-98900
X105500Y-135100
X105600Y-88400
X105600Y-137300
X105800Y-94900
X105900Y-96400
X105900Y-98350
X106000Y-102900
X106000Y-135800
X106240Y-132060
X106300Y-84400
X106300Y-92400
X106550Y-98900
X106610Y-132830
X106650Y-102350
X106700Y-96400
X106750Y-79150
X106750Y-106900
X106990Y-133600
X107000Y-88400
X107300Y-102900
X107300Y-104400
X107370Y-134370
X107400Y-106350
X107450Y-92400
X107500Y-96400
X107500Y-110900
X107740Y-135140
X108000Y-104400
X108000Y-108400
X108050Y-106900
X108150Y-110350
X108250Y-114900
X108300Y-100400
X108600Y-112400
X108650Y-108400
X108800Y-110900
X108850Y-104400
X108900Y-114350
X109000Y-118900
X109130Y-116400
X109250Y-112400
X109550Y-114900
X109750Y-121900
X109750Y-122750
X109850Y-118900
X109970Y-116410
X110100Y-120300
X110370Y-118220
X110700Y-113900
X110700Y-130350
X110700Y-131200
X110925Y-112025
X111200Y-112950
X111500Y-130350
X111500Y-131200
T2
X71150Y-127130
X71150Y-128400
X71150Y-133530
X71150Y-134800
X72420Y-127130
X72420Y-128400
X72420Y-133530
X72420Y-134800
X73690Y-127130
X73690Y-128400
X73690Y-133530
X73690Y-134800
X74960Y-127130
X74960Y-128400
X74960Y-133530
X74960Y-134800
X76230Y-127130
X76230Y-128400
X76230Y-133530
X76230Y-134800
X77500Y-127130
X77500Y-128400
X77500Y-133530
X77500Y-134800
X78770Y-127130
X78770Y-128400
X78770Y-133530
X78770Y-134800
X80040Y-127130
X80040Y-128400
X80040Y-133530
X80040Y-134800
X81310Y-127130
X81310Y-128400
X81310Y-133530
X81310Y-134800
X82580Y-127130
X82580Y-128400
X82580Y-133530
X82580Y-134800
X83850Y-127130
X83850Y-128400
X83850Y-133530
X83850Y-134800
X85120Y-127130
X85120Y-128400
X85120Y-133530
X85120Y-134800
X86390Y-127130
X86390Y-128400
X86390Y-133530
X86390Y-134800
X87660Y-127130
X87660Y-128400
X87660Y-133530
X87660Y-134800
X88930Y-127130
X88930Y-128400
X88930Y-133530
X88930Y-134800
X90200Y-127130
X90200Y-128400
X90200Y-133530
X90200Y-134800
X91470Y-127130
X91470Y-128400
X91470Y-133530
X91470Y-134800
X92740Y-127130
X92740Y-128400
X92740Y-133530
X92740Y-134800
X94010Y-127130
X94010Y-128400
X94010Y-133530
X94010Y-134800
X95280Y-127130
X95280Y-128400
X95280Y-133530
X95280Y-134800
X96550Y-127130
X96550Y-128400
X96550Y-133530
X96550Y-134800
X97820Y-127130
X97820Y-128400
X97820Y-133530
X97820Y-134800
X99090Y-127130
X99090Y-128400
X99090Y-133530
X99090Y-134800
X100360Y-127130
X100360Y-128400
X100360Y-133530
X100360Y-134800
T3
X113225Y-82375
X113225Y-84915
X113225Y-87455
X113225Y-89995
X113225Y-92535
X113225Y-95075
X113225Y-97615
X113225Y-100155
X113225Y-102695
X113225Y-105235
X113225Y-107775
X113225Y-110315
X113225Y-112855
X113225Y-115395
X113225Y-117935
X113225Y-120475
X113225Y-123015
X113225Y-125555
X113225Y-128095
X113225Y-130635
X115765Y-82375
X115765Y-84915
X115765Y-87455
X115765Y-89995
X115765Y-92535
X115765Y-95075
X115765Y-97615
X115765Y-100155
X115765Y-102695
X115765Y-105235
X115765Y-107775
X115765Y-110315
X115765Y-112855
X115765Y-115395
X115765Y-117935
X115765Y-120475
X115765Y-123015
X115765Y-125555
X115765Y-128095
X115765Y-130635
T4
X109600Y-76760
X109600Y-79300
T5
X65300Y-83900
X65300Y-86440
X65300Y-88980
X65300Y-91520
X65300Y-94060
X65300Y-96600
X65300Y-100200
X65300Y-102740
X65300Y-105280
X65300Y-107820
X65300Y-110360
X65300Y-112900
X65300Y-116500
X65300Y-119040
X65300Y-121580
X65300Y-124120
X65300Y-126660
X65300Y-129200
X71900Y-77300
X74440Y-77300
X76980Y-77300
X79520Y-77300
X82060Y-77300
X84600Y-77300
X103400Y-77300
X105940Y-77300
T6
X65500Y-77500
X65500Y-135500
X114500Y-77500
X114500Y-135500
T0
M30
