G04 #@! TF.FileFunction,Soldermask,Top*
%FSLAX46Y46*%
G04 Gerber Fmt 4.6, Leading zero omitted, Abs format (unit mm)*
G04 Created by KiCad (PCBNEW 4.0.4-stable) date 10/23/16 14:40:47*
%MOMM*%
%LPD*%
G01*
G04 APERTURE LIST*
%ADD10C,0.100000*%
%ADD11R,1.800000X1.800000*%
%ADD12C,1.800000*%
%ADD13C,0.980000*%
%ADD14R,0.980000X0.980000*%
%ADD15R,1.060000X0.650000*%
%ADD16R,1.400000X1.400000*%
%ADD17C,1.400000*%
%ADD18R,0.652400X0.652400*%
G04 APERTURE END LIST*
D10*
D11*
X65300000Y-112900000D03*
D12*
X65300000Y-110360000D03*
X65300000Y-107820000D03*
X65300000Y-105280000D03*
X65300000Y-102740000D03*
X65300000Y-100200000D03*
D13*
X77500000Y-128400000D03*
X78770000Y-128400000D03*
X76230000Y-128400000D03*
X85120000Y-128400000D03*
X87660000Y-128400000D03*
X86390000Y-128400000D03*
X82580000Y-128400000D03*
X83850000Y-128400000D03*
X81310000Y-128400000D03*
X80040000Y-128400000D03*
X97820000Y-128400000D03*
X99090000Y-128400000D03*
X100360000Y-128400000D03*
X94010000Y-128400000D03*
X96550000Y-128400000D03*
X95280000Y-128400000D03*
X91470000Y-128400000D03*
X92740000Y-128400000D03*
X90200000Y-128400000D03*
X88930000Y-128400000D03*
X88930000Y-127130000D03*
X90200000Y-127130000D03*
X91470000Y-127130000D03*
X95280000Y-127130000D03*
X96550000Y-127130000D03*
X94010000Y-127130000D03*
X92740000Y-127130000D03*
X100360000Y-127130000D03*
X99090000Y-127130000D03*
X97820000Y-127130000D03*
X80040000Y-127130000D03*
X81310000Y-127130000D03*
X82580000Y-127130000D03*
X86390000Y-127130000D03*
X87660000Y-127130000D03*
X85120000Y-127130000D03*
X83850000Y-127130000D03*
X76230000Y-127130000D03*
X78770000Y-127130000D03*
X77500000Y-127130000D03*
X74960000Y-128400000D03*
X73690000Y-128400000D03*
X73690000Y-127130000D03*
X74960000Y-127130000D03*
X72420000Y-128400000D03*
X72420000Y-127130000D03*
X71150000Y-127130000D03*
D14*
X71150000Y-128400000D03*
D15*
X92610000Y-109400000D03*
X92610000Y-110350000D03*
X92610000Y-111300000D03*
X94810000Y-111300000D03*
X94810000Y-109400000D03*
X94810000Y-110350000D03*
D16*
X113225000Y-82375000D03*
D17*
X115765000Y-82375000D03*
X113225000Y-84915000D03*
X115765000Y-84915000D03*
X113225000Y-87455000D03*
X115765000Y-87455000D03*
X113225000Y-89995000D03*
X115765000Y-89995000D03*
X113225000Y-92535000D03*
X115765000Y-92535000D03*
X113225000Y-95075000D03*
X115765000Y-95075000D03*
X113225000Y-97615000D03*
X115765000Y-97615000D03*
X113225000Y-100155000D03*
X115765000Y-100155000D03*
X113225000Y-102695000D03*
X115765000Y-102695000D03*
X113225000Y-105235000D03*
X115765000Y-105235000D03*
X113225000Y-107775000D03*
X115765000Y-107775000D03*
X113225000Y-110315000D03*
X115765000Y-110315000D03*
X113225000Y-112855000D03*
X115765000Y-112855000D03*
X113225000Y-115395000D03*
X115765000Y-115395000D03*
X113225000Y-117935000D03*
X115765000Y-117935000D03*
X113225000Y-120475000D03*
X115765000Y-120475000D03*
X113225000Y-123015000D03*
X115765000Y-123015000D03*
X113225000Y-125555000D03*
X115765000Y-125555000D03*
X113225000Y-128095000D03*
X115765000Y-128095000D03*
X113225000Y-130635000D03*
X115765000Y-130635000D03*
D11*
X65300000Y-129200000D03*
D12*
X65300000Y-126660000D03*
X65300000Y-124120000D03*
X65300000Y-121580000D03*
X65300000Y-119040000D03*
X65300000Y-116500000D03*
D11*
X65300000Y-96600000D03*
D12*
X65300000Y-94060000D03*
X65300000Y-91520000D03*
X65300000Y-88980000D03*
X65300000Y-86440000D03*
X65300000Y-83900000D03*
D11*
X71900000Y-77300000D03*
D12*
X74440000Y-77300000D03*
X76980000Y-77300000D03*
X79520000Y-77300000D03*
X82060000Y-77300000D03*
X84600000Y-77300000D03*
D11*
X103400000Y-77300000D03*
D12*
X105940000Y-77300000D03*
D13*
X77500000Y-134800000D03*
X78770000Y-134800000D03*
X76230000Y-134800000D03*
X85120000Y-134800000D03*
X87660000Y-134800000D03*
X86390000Y-134800000D03*
X82580000Y-134800000D03*
X83850000Y-134800000D03*
X81310000Y-134800000D03*
X80040000Y-134800000D03*
X97820000Y-134800000D03*
X99090000Y-134800000D03*
X100360000Y-134800000D03*
X94010000Y-134800000D03*
X96550000Y-134800000D03*
X95280000Y-134800000D03*
X91470000Y-134800000D03*
X92740000Y-134800000D03*
X90200000Y-134800000D03*
X88930000Y-134800000D03*
X88930000Y-133530000D03*
X90200000Y-133530000D03*
X91470000Y-133530000D03*
X95280000Y-133530000D03*
X96550000Y-133530000D03*
X94010000Y-133530000D03*
X92740000Y-133530000D03*
X100360000Y-133530000D03*
X99090000Y-133530000D03*
X97820000Y-133530000D03*
X80040000Y-133530000D03*
X81310000Y-133530000D03*
X82580000Y-133530000D03*
X86390000Y-133530000D03*
X87660000Y-133530000D03*
X85120000Y-133530000D03*
X83850000Y-133530000D03*
X76230000Y-133530000D03*
X78770000Y-133530000D03*
X77500000Y-133530000D03*
X74960000Y-134800000D03*
X73690000Y-134800000D03*
X73690000Y-133530000D03*
X74960000Y-133530000D03*
X72420000Y-134800000D03*
X72420000Y-133530000D03*
X71150000Y-133530000D03*
D14*
X71150000Y-134800000D03*
D15*
X92610000Y-77400000D03*
X92610000Y-78350000D03*
X92610000Y-79300000D03*
X94810000Y-79300000D03*
X94810000Y-77400000D03*
X94810000Y-78350000D03*
X92610000Y-81400000D03*
X92610000Y-82350000D03*
X92610000Y-83300000D03*
X94810000Y-83300000D03*
X94810000Y-81400000D03*
X94810000Y-82350000D03*
X92610000Y-85400000D03*
X92610000Y-86350000D03*
X92610000Y-87300000D03*
X94810000Y-87300000D03*
X94810000Y-85400000D03*
X94810000Y-86350000D03*
X92610000Y-89400000D03*
X92610000Y-90350000D03*
X92610000Y-91300000D03*
X94810000Y-91300000D03*
X94810000Y-89400000D03*
X94810000Y-90350000D03*
X92610000Y-93400000D03*
X92610000Y-94350000D03*
X92610000Y-95300000D03*
X94810000Y-95300000D03*
X94810000Y-93400000D03*
X94810000Y-94350000D03*
X92610000Y-97400000D03*
X92610000Y-98350000D03*
X92610000Y-99300000D03*
X94810000Y-99300000D03*
X94810000Y-97400000D03*
X94810000Y-98350000D03*
X92610000Y-101400000D03*
X92610000Y-102350000D03*
X92610000Y-103300000D03*
X94810000Y-103300000D03*
X94810000Y-101400000D03*
X94810000Y-102350000D03*
X92610000Y-105400000D03*
X92610000Y-106350000D03*
X92610000Y-107300000D03*
X94810000Y-107300000D03*
X94810000Y-105400000D03*
X94810000Y-106350000D03*
X92610000Y-113400000D03*
X92610000Y-114350000D03*
X92610000Y-115300000D03*
X94810000Y-115300000D03*
X94810000Y-113400000D03*
X94810000Y-114350000D03*
X92610000Y-117400000D03*
X92610000Y-118350000D03*
X92610000Y-119300000D03*
X94810000Y-119300000D03*
X94810000Y-117400000D03*
X94810000Y-118350000D03*
X92610000Y-121400000D03*
X92610000Y-122350000D03*
X92610000Y-123300000D03*
X94810000Y-123300000D03*
X94810000Y-121400000D03*
X94810000Y-122350000D03*
D18*
X87600000Y-77400000D03*
X87600000Y-78300000D03*
X98760000Y-76400000D03*
X97860000Y-76400000D03*
X98760000Y-80400000D03*
X97860000Y-80400000D03*
X98760000Y-84400000D03*
X97860000Y-84400000D03*
X98760000Y-88400000D03*
X97860000Y-88400000D03*
X89600000Y-77400000D03*
X89600000Y-78300000D03*
X89600000Y-81400000D03*
X89600000Y-82300000D03*
X89600000Y-85400000D03*
X89600000Y-86300000D03*
X89600000Y-89400000D03*
X89600000Y-90300000D03*
X98760000Y-92400000D03*
X97860000Y-92400000D03*
X98760000Y-96400000D03*
X97860000Y-96400000D03*
X98760000Y-100400000D03*
X97860000Y-100400000D03*
X98760000Y-104400000D03*
X97860000Y-104400000D03*
X89600000Y-93400000D03*
X89600000Y-94300000D03*
X89600000Y-97400000D03*
X89600000Y-98300000D03*
X89600000Y-101400000D03*
X89600000Y-102300000D03*
X89600000Y-105400000D03*
X89600000Y-106300000D03*
X98760000Y-108400000D03*
X97860000Y-108400000D03*
X98760000Y-112400000D03*
X97860000Y-112400000D03*
X98760000Y-116400000D03*
X97860000Y-116400000D03*
X98760000Y-120400000D03*
X97860000Y-120400000D03*
X89600000Y-109400000D03*
X89600000Y-110300000D03*
X89600000Y-113400000D03*
X89600000Y-114300000D03*
X89600000Y-117400000D03*
X89600000Y-118300000D03*
X89600000Y-121400000D03*
X89600000Y-122300000D03*
X98760000Y-78400000D03*
X97860000Y-78400000D03*
X87600000Y-81400000D03*
X87600000Y-82300000D03*
X98760000Y-82400000D03*
X97860000Y-82400000D03*
X87650000Y-85400000D03*
X87650000Y-86300000D03*
X98760000Y-86400000D03*
X97860000Y-86400000D03*
X87600000Y-89400000D03*
X87600000Y-90300000D03*
X98760000Y-90400000D03*
X97860000Y-90400000D03*
X87600000Y-93400000D03*
X87600000Y-94300000D03*
X98760000Y-94400000D03*
X97860000Y-94400000D03*
X87600000Y-97400000D03*
X87600000Y-98300000D03*
X98760000Y-98400000D03*
X97860000Y-98400000D03*
X87600000Y-101400000D03*
X87600000Y-102300000D03*
X98760000Y-102400000D03*
X97860000Y-102400000D03*
X87600000Y-105400000D03*
X87600000Y-106300000D03*
X98760000Y-106400000D03*
X97860000Y-106400000D03*
X87600000Y-109400000D03*
X87600000Y-110300000D03*
X98760000Y-110400000D03*
X97860000Y-110400000D03*
X87600000Y-113400000D03*
X87600000Y-114300000D03*
X98760000Y-114400000D03*
X97860000Y-114400000D03*
X87600000Y-117400000D03*
X87600000Y-118300000D03*
X98760000Y-118400000D03*
X97860000Y-118400000D03*
X87600000Y-121400000D03*
X87600000Y-122300000D03*
X98760000Y-122400000D03*
X97860000Y-122400000D03*
D12*
X109600000Y-79300000D03*
X109600000Y-76760000D03*
M02*
