G04 #@! TF.FileFunction,Legend,Top*
%FSLAX46Y46*%
G04 Gerber Fmt 4.6, Leading zero omitted, Abs format (unit mm)*
G04 Created by KiCad (PCBNEW 4.0.4-stable) date 10/23/16 14:40:47*
%MOMM*%
%LPD*%
G01*
G04 APERTURE LIST*
%ADD10C,0.100000*%
%ADD11C,0.300000*%
%ADD12C,0.200000*%
%ADD13C,0.125000*%
%ADD14C,0.150000*%
%ADD15C,0.203200*%
%ADD16C,0.152400*%
G04 APERTURE END LIST*
D10*
D11*
X102900000Y-136078571D02*
X102900000Y-134578571D01*
X103757143Y-136078571D01*
X103757143Y-134578571D01*
X105328572Y-135935714D02*
X105257143Y-136007143D01*
X105042857Y-136078571D01*
X104900000Y-136078571D01*
X104685715Y-136007143D01*
X104542857Y-135864286D01*
X104471429Y-135721429D01*
X104400000Y-135435714D01*
X104400000Y-135221429D01*
X104471429Y-134935714D01*
X104542857Y-134792857D01*
X104685715Y-134650000D01*
X104900000Y-134578571D01*
X105042857Y-134578571D01*
X105257143Y-134650000D01*
X105328572Y-134721429D01*
X105971429Y-135292857D02*
X107114286Y-135292857D01*
X107114286Y-135721429D02*
X105971429Y-135721429D01*
X108114286Y-134578571D02*
X108400000Y-134578571D01*
X108542858Y-134650000D01*
X108685715Y-134792857D01*
X108757143Y-135078571D01*
X108757143Y-135578571D01*
X108685715Y-135864286D01*
X108542858Y-136007143D01*
X108400000Y-136078571D01*
X108114286Y-136078571D01*
X107971429Y-136007143D01*
X107828572Y-135864286D01*
X107757143Y-135578571D01*
X107757143Y-135078571D01*
X107828572Y-134792857D01*
X107971429Y-134650000D01*
X108114286Y-134578571D01*
X109400001Y-134578571D02*
X109400001Y-135792857D01*
X109471429Y-135935714D01*
X109542858Y-136007143D01*
X109685715Y-136078571D01*
X109971429Y-136078571D01*
X110114287Y-136007143D01*
X110185715Y-135935714D01*
X110257144Y-135792857D01*
X110257144Y-134578571D01*
X110757144Y-134578571D02*
X111614287Y-134578571D01*
X111185716Y-136078571D02*
X111185716Y-134578571D01*
D12*
X111052381Y-90207143D02*
X110052381Y-90207143D01*
X111052381Y-89635714D01*
X110052381Y-89635714D01*
X110957143Y-88588095D02*
X111004762Y-88635714D01*
X111052381Y-88778571D01*
X111052381Y-88873809D01*
X111004762Y-89016667D01*
X110909524Y-89111905D01*
X110814286Y-89159524D01*
X110623810Y-89207143D01*
X110480952Y-89207143D01*
X110290476Y-89159524D01*
X110195238Y-89111905D01*
X110100000Y-89016667D01*
X110052381Y-88873809D01*
X110052381Y-88778571D01*
X110100000Y-88635714D01*
X110147619Y-88588095D01*
X110052381Y-87540476D02*
X111052381Y-87207143D01*
X110052381Y-86873809D01*
X111004762Y-86111904D02*
X111052381Y-86207142D01*
X111052381Y-86397619D01*
X111004762Y-86492857D01*
X110957143Y-86540476D01*
X110861905Y-86588095D01*
X110576190Y-86588095D01*
X110480952Y-86540476D01*
X110433333Y-86492857D01*
X110385714Y-86397619D01*
X110385714Y-86207142D01*
X110433333Y-86111904D01*
X111004762Y-85254761D02*
X111052381Y-85349999D01*
X111052381Y-85540476D01*
X111004762Y-85635714D01*
X110957143Y-85683333D01*
X110861905Y-85730952D01*
X110576190Y-85730952D01*
X110480952Y-85683333D01*
X110433333Y-85635714D01*
X110385714Y-85540476D01*
X110385714Y-85349999D01*
X110433333Y-85254761D01*
X110528571Y-84826190D02*
X110528571Y-84064285D01*
X110814286Y-84064285D02*
X110814286Y-84826190D01*
X110052381Y-83730952D02*
X111052381Y-83397619D01*
X110052381Y-83064285D01*
X111004762Y-82302380D02*
X111052381Y-82397618D01*
X111052381Y-82588095D01*
X111004762Y-82683333D01*
X110957143Y-82730952D01*
X110861905Y-82778571D01*
X110576190Y-82778571D01*
X110480952Y-82730952D01*
X110433333Y-82683333D01*
X110385714Y-82588095D01*
X110385714Y-82397618D01*
X110433333Y-82302380D01*
X111004762Y-81445237D02*
X111052381Y-81540475D01*
X111052381Y-81730952D01*
X111004762Y-81826190D01*
X110957143Y-81873809D01*
X110861905Y-81921428D01*
X110576190Y-81921428D01*
X110480952Y-81873809D01*
X110433333Y-81826190D01*
X110385714Y-81730952D01*
X110385714Y-81540475D01*
X110433333Y-81445237D01*
X108052381Y-90769047D02*
X108766667Y-90769047D01*
X108909524Y-90816667D01*
X109004762Y-90911905D01*
X109052381Y-91054762D01*
X109052381Y-91150000D01*
X109052381Y-90292857D02*
X108052381Y-90292857D01*
X108766667Y-89959523D01*
X108052381Y-89626190D01*
X109052381Y-89626190D01*
X109052381Y-89150000D02*
X108052381Y-89150000D01*
X108052381Y-88769047D01*
X108100000Y-88673809D01*
X108147619Y-88626190D01*
X108242857Y-88578571D01*
X108385714Y-88578571D01*
X108480952Y-88626190D01*
X108528571Y-88673809D01*
X108576190Y-88769047D01*
X108576190Y-89150000D01*
X108052381Y-87530952D02*
X109052381Y-87197619D01*
X108052381Y-86864285D01*
X109004762Y-86102380D02*
X109052381Y-86197618D01*
X109052381Y-86388095D01*
X109004762Y-86483333D01*
X108957143Y-86530952D01*
X108861905Y-86578571D01*
X108576190Y-86578571D01*
X108480952Y-86530952D01*
X108433333Y-86483333D01*
X108385714Y-86388095D01*
X108385714Y-86197618D01*
X108433333Y-86102380D01*
X109004762Y-85245237D02*
X109052381Y-85340475D01*
X109052381Y-85530952D01*
X109004762Y-85626190D01*
X108957143Y-85673809D01*
X108861905Y-85721428D01*
X108576190Y-85721428D01*
X108480952Y-85673809D01*
X108433333Y-85626190D01*
X108385714Y-85530952D01*
X108385714Y-85340475D01*
X108433333Y-85245237D01*
X108528571Y-84816666D02*
X108528571Y-84054761D01*
X108814286Y-84054761D02*
X108814286Y-84816666D01*
X108052381Y-83102380D02*
X108052381Y-83578571D01*
X108528571Y-83626190D01*
X108480952Y-83578571D01*
X108433333Y-83483333D01*
X108433333Y-83245237D01*
X108480952Y-83149999D01*
X108528571Y-83102380D01*
X108623810Y-83054761D01*
X108861905Y-83054761D01*
X108957143Y-83102380D01*
X109004762Y-83149999D01*
X109052381Y-83245237D01*
X109052381Y-83483333D01*
X109004762Y-83578571D01*
X108957143Y-83626190D01*
X108052381Y-82769047D02*
X109052381Y-82435714D01*
X108052381Y-82102380D01*
X106254762Y-137461905D02*
X106521429Y-138261905D01*
X106788096Y-137461905D01*
X107359524Y-138223810D02*
X107283334Y-138261905D01*
X107130953Y-138261905D01*
X107054762Y-138223810D01*
X107016667Y-138147619D01*
X107016667Y-137842857D01*
X107054762Y-137766667D01*
X107130953Y-137728571D01*
X107283334Y-137728571D01*
X107359524Y-137766667D01*
X107397619Y-137842857D01*
X107397619Y-137919048D01*
X107016667Y-137995238D01*
X107740476Y-138261905D02*
X107740476Y-137728571D01*
X107740476Y-137880952D02*
X107778571Y-137804762D01*
X107816667Y-137766667D01*
X107892857Y-137728571D01*
X107969048Y-137728571D01*
X108235714Y-138185714D02*
X108273809Y-138223810D01*
X108235714Y-138261905D01*
X108197619Y-138223810D01*
X108235714Y-138185714D01*
X108235714Y-138261905D01*
X109378571Y-137461905D02*
X109454762Y-137461905D01*
X109530952Y-137500000D01*
X109569047Y-137538095D01*
X109607143Y-137614286D01*
X109645238Y-137766667D01*
X109645238Y-137957143D01*
X109607143Y-138109524D01*
X109569047Y-138185714D01*
X109530952Y-138223810D01*
X109454762Y-138261905D01*
X109378571Y-138261905D01*
X109302381Y-138223810D01*
X109264285Y-138185714D01*
X109226190Y-138109524D01*
X109188095Y-137957143D01*
X109188095Y-137766667D01*
X109226190Y-137614286D01*
X109264285Y-137538095D01*
X109302381Y-137500000D01*
X109378571Y-137461905D01*
X110140476Y-137461905D02*
X110216667Y-137461905D01*
X110292857Y-137500000D01*
X110330952Y-137538095D01*
X110369048Y-137614286D01*
X110407143Y-137766667D01*
X110407143Y-137957143D01*
X110369048Y-138109524D01*
X110330952Y-138185714D01*
X110292857Y-138223810D01*
X110216667Y-138261905D01*
X110140476Y-138261905D01*
X110064286Y-138223810D01*
X110026190Y-138185714D01*
X109988095Y-138109524D01*
X109950000Y-137957143D01*
X109950000Y-137766667D01*
X109988095Y-137614286D01*
X110026190Y-137538095D01*
X110064286Y-137500000D01*
X110140476Y-137461905D01*
X110673810Y-137461905D02*
X111207143Y-137461905D01*
X110864286Y-138261905D01*
D11*
X76985714Y-113971428D02*
X77128571Y-113542857D01*
X77271429Y-113400000D01*
X77557143Y-113257143D01*
X77985714Y-113257143D01*
X78271429Y-113400000D01*
X78414286Y-113542857D01*
X78557143Y-113828571D01*
X78557143Y-114971428D01*
X75557143Y-114971428D01*
X75557143Y-113971428D01*
X75700000Y-113685714D01*
X75842857Y-113542857D01*
X76128571Y-113400000D01*
X76414286Y-113400000D01*
X76700000Y-113542857D01*
X76842857Y-113685714D01*
X76985714Y-113971428D01*
X76985714Y-114971428D01*
X78557143Y-111971428D02*
X76557143Y-111971428D01*
X75557143Y-111971428D02*
X75700000Y-112114285D01*
X75842857Y-111971428D01*
X75700000Y-111828571D01*
X75557143Y-111971428D01*
X75842857Y-111971428D01*
X78557143Y-110114286D02*
X78414286Y-110400000D01*
X78271429Y-110542857D01*
X77985714Y-110685714D01*
X77128571Y-110685714D01*
X76842857Y-110542857D01*
X76700000Y-110400000D01*
X76557143Y-110114286D01*
X76557143Y-109685714D01*
X76700000Y-109400000D01*
X76842857Y-109257143D01*
X77128571Y-109114286D01*
X77985714Y-109114286D01*
X78271429Y-109257143D01*
X78414286Y-109400000D01*
X78557143Y-109685714D01*
X78557143Y-110114286D01*
X76985714Y-106828571D02*
X77128571Y-106400000D01*
X77271429Y-106257143D01*
X77557143Y-106114286D01*
X77985714Y-106114286D01*
X78271429Y-106257143D01*
X78414286Y-106400000D01*
X78557143Y-106685714D01*
X78557143Y-107828571D01*
X75557143Y-107828571D01*
X75557143Y-106828571D01*
X75700000Y-106542857D01*
X75842857Y-106400000D01*
X76128571Y-106257143D01*
X76414286Y-106257143D01*
X76700000Y-106400000D01*
X76842857Y-106542857D01*
X76985714Y-106828571D01*
X76985714Y-107828571D01*
X78557143Y-104400000D02*
X78414286Y-104685714D01*
X78271429Y-104828571D01*
X77985714Y-104971428D01*
X77128571Y-104971428D01*
X76842857Y-104828571D01*
X76700000Y-104685714D01*
X76557143Y-104400000D01*
X76557143Y-103971428D01*
X76700000Y-103685714D01*
X76842857Y-103542857D01*
X77128571Y-103400000D01*
X77985714Y-103400000D01*
X78271429Y-103542857D01*
X78414286Y-103685714D01*
X78557143Y-103971428D01*
X78557143Y-104400000D01*
X76557143Y-102542857D02*
X76557143Y-101400000D01*
X75557143Y-102114285D02*
X78128571Y-102114285D01*
X78414286Y-101971428D01*
X78557143Y-101685714D01*
X78557143Y-101400000D01*
X75557143Y-100399999D02*
X77985714Y-100399999D01*
X78271429Y-100257142D01*
X78414286Y-100114285D01*
X78557143Y-99828571D01*
X78557143Y-99257142D01*
X78414286Y-98971428D01*
X78271429Y-98828571D01*
X77985714Y-98685714D01*
X75557143Y-98685714D01*
X78414286Y-97399999D02*
X78557143Y-96971428D01*
X78557143Y-96257142D01*
X78414286Y-95971428D01*
X78271429Y-95828571D01*
X77985714Y-95685714D01*
X77700000Y-95685714D01*
X77414286Y-95828571D01*
X77271429Y-95971428D01*
X77128571Y-96257142D01*
X76985714Y-96828571D01*
X76842857Y-97114285D01*
X76700000Y-97257142D01*
X76414286Y-97399999D01*
X76128571Y-97399999D01*
X75842857Y-97257142D01*
X75700000Y-97114285D01*
X75557143Y-96828571D01*
X75557143Y-96114285D01*
X75700000Y-95685714D01*
X102035714Y-132228571D02*
X102035714Y-133300000D01*
X101964286Y-133514286D01*
X101821429Y-133657143D01*
X101607143Y-133728571D01*
X101464286Y-133728571D01*
X102750000Y-133728571D02*
X102750000Y-132228571D01*
X103250000Y-133300000D01*
X103750000Y-132228571D01*
X103750000Y-133728571D01*
X104464286Y-133728571D02*
X104464286Y-132228571D01*
X105035714Y-132228571D01*
X105178572Y-132300000D01*
X105250000Y-132371429D01*
X105321429Y-132514286D01*
X105321429Y-132728571D01*
X105250000Y-132871429D01*
X105178572Y-132942857D01*
X105035714Y-133014286D01*
X104464286Y-133014286D01*
X105964286Y-132942857D02*
X107107143Y-132942857D01*
X107107143Y-133371429D02*
X105964286Y-133371429D01*
X107821429Y-133728571D02*
X107821429Y-132228571D01*
X108535715Y-133728571D02*
X108535715Y-132228571D01*
X109392858Y-133728571D01*
X109392858Y-132228571D01*
X102921429Y-129578571D02*
X102921429Y-128078571D01*
X103778572Y-129578571D01*
X103778572Y-128078571D01*
X105350001Y-129435714D02*
X105278572Y-129507143D01*
X105064286Y-129578571D01*
X104921429Y-129578571D01*
X104707144Y-129507143D01*
X104564286Y-129364286D01*
X104492858Y-129221429D01*
X104421429Y-128935714D01*
X104421429Y-128721429D01*
X104492858Y-128435714D01*
X104564286Y-128292857D01*
X104707144Y-128150000D01*
X104921429Y-128078571D01*
X105064286Y-128078571D01*
X105278572Y-128150000D01*
X105350001Y-128221429D01*
X105992858Y-128792857D02*
X107135715Y-128792857D01*
X107135715Y-129221429D02*
X105992858Y-129221429D01*
X108135715Y-128078571D02*
X108421429Y-128078571D01*
X108564287Y-128150000D01*
X108707144Y-128292857D01*
X108778572Y-128578571D01*
X108778572Y-129078571D01*
X108707144Y-129364286D01*
X108564287Y-129507143D01*
X108421429Y-129578571D01*
X108135715Y-129578571D01*
X107992858Y-129507143D01*
X107850001Y-129364286D01*
X107778572Y-129078571D01*
X107778572Y-128578571D01*
X107850001Y-128292857D01*
X107992858Y-128150000D01*
X108135715Y-128078571D01*
X109921430Y-128792857D02*
X109421430Y-128792857D01*
X109421430Y-129578571D02*
X109421430Y-128078571D01*
X110135716Y-128078571D01*
X111207144Y-128792857D02*
X110707144Y-128792857D01*
X110707144Y-129578571D02*
X110707144Y-128078571D01*
X111421430Y-128078571D01*
X102057142Y-125878571D02*
X102057142Y-126950000D01*
X101985714Y-127164286D01*
X101842857Y-127307143D01*
X101628571Y-127378571D01*
X101485714Y-127378571D01*
X102771428Y-127378571D02*
X102771428Y-125878571D01*
X103271428Y-126950000D01*
X103771428Y-125878571D01*
X103771428Y-127378571D01*
X104485714Y-127378571D02*
X104485714Y-125878571D01*
X105057142Y-125878571D01*
X105200000Y-125950000D01*
X105271428Y-126021429D01*
X105342857Y-126164286D01*
X105342857Y-126378571D01*
X105271428Y-126521429D01*
X105200000Y-126592857D01*
X105057142Y-126664286D01*
X104485714Y-126664286D01*
X105985714Y-126592857D02*
X107128571Y-126592857D01*
X107128571Y-127021429D02*
X105985714Y-127021429D01*
X108128571Y-125878571D02*
X108414285Y-125878571D01*
X108557143Y-125950000D01*
X108700000Y-126092857D01*
X108771428Y-126378571D01*
X108771428Y-126878571D01*
X108700000Y-127164286D01*
X108557143Y-127307143D01*
X108414285Y-127378571D01*
X108128571Y-127378571D01*
X107985714Y-127307143D01*
X107842857Y-127164286D01*
X107771428Y-126878571D01*
X107771428Y-126378571D01*
X107842857Y-126092857D01*
X107985714Y-125950000D01*
X108128571Y-125878571D01*
X109414286Y-127378571D02*
X109414286Y-125878571D01*
X110271429Y-127378571D01*
X110271429Y-125878571D01*
D13*
X104983333Y-81111905D02*
X105250000Y-81911905D01*
X105516667Y-81111905D01*
X106240476Y-81835714D02*
X106202381Y-81873810D01*
X106088095Y-81911905D01*
X106011905Y-81911905D01*
X105897619Y-81873810D01*
X105821428Y-81797619D01*
X105783333Y-81721429D01*
X105745238Y-81569048D01*
X105745238Y-81454762D01*
X105783333Y-81302381D01*
X105821428Y-81226190D01*
X105897619Y-81150000D01*
X106011905Y-81111905D01*
X106088095Y-81111905D01*
X106202381Y-81150000D01*
X106240476Y-81188095D01*
X107040476Y-81835714D02*
X107002381Y-81873810D01*
X106888095Y-81911905D01*
X106811905Y-81911905D01*
X106697619Y-81873810D01*
X106621428Y-81797619D01*
X106583333Y-81721429D01*
X106545238Y-81569048D01*
X106545238Y-81454762D01*
X106583333Y-81302381D01*
X106621428Y-81226190D01*
X106697619Y-81150000D01*
X106811905Y-81111905D01*
X106888095Y-81111905D01*
X107002381Y-81150000D01*
X107040476Y-81188095D01*
X102690477Y-81150000D02*
X102614286Y-81111905D01*
X102500001Y-81111905D01*
X102385715Y-81150000D01*
X102309524Y-81226190D01*
X102271429Y-81302381D01*
X102233334Y-81454762D01*
X102233334Y-81569048D01*
X102271429Y-81721429D01*
X102309524Y-81797619D01*
X102385715Y-81873810D01*
X102500001Y-81911905D01*
X102576191Y-81911905D01*
X102690477Y-81873810D01*
X102728572Y-81835714D01*
X102728572Y-81569048D01*
X102576191Y-81569048D01*
X103071429Y-81911905D02*
X103071429Y-81111905D01*
X103528572Y-81911905D01*
X103528572Y-81111905D01*
X103909524Y-81911905D02*
X103909524Y-81111905D01*
X104100000Y-81111905D01*
X104214286Y-81150000D01*
X104290477Y-81226190D01*
X104328572Y-81302381D01*
X104366667Y-81454762D01*
X104366667Y-81569048D01*
X104328572Y-81721429D01*
X104290477Y-81797619D01*
X104214286Y-81873810D01*
X104100000Y-81911905D01*
X103909524Y-81911905D01*
D11*
X98421429Y-138442857D02*
X98350000Y-138371428D01*
X98278571Y-138228571D01*
X98278571Y-137871428D01*
X98350000Y-137728571D01*
X98421429Y-137657142D01*
X98564286Y-137585714D01*
X98707143Y-137585714D01*
X98921429Y-137657142D01*
X99778571Y-138514285D01*
X99778571Y-137585714D01*
X99778571Y-136157143D02*
X99778571Y-137014286D01*
X99778571Y-136585714D02*
X98278571Y-136585714D01*
X98492857Y-136728571D01*
X98635714Y-136871429D01*
X98707143Y-137014286D01*
X99621429Y-132042857D02*
X99550000Y-131971428D01*
X99478571Y-131828571D01*
X99478571Y-131471428D01*
X99550000Y-131328571D01*
X99621429Y-131257142D01*
X99764286Y-131185714D01*
X99907143Y-131185714D01*
X100121429Y-131257142D01*
X100978571Y-132114285D01*
X100978571Y-131185714D01*
X99478571Y-130257143D02*
X99478571Y-130114286D01*
X99550000Y-129971429D01*
X99621429Y-129900000D01*
X99764286Y-129828571D01*
X100050000Y-129757143D01*
X100407143Y-129757143D01*
X100692857Y-129828571D01*
X100835714Y-129900000D01*
X100907143Y-129971429D01*
X100978571Y-130114286D01*
X100978571Y-130257143D01*
X100907143Y-130400000D01*
X100835714Y-130471429D01*
X100692857Y-130542857D01*
X100407143Y-130614286D01*
X100050000Y-130614286D01*
X99764286Y-130542857D01*
X99621429Y-130471429D01*
X99550000Y-130400000D01*
X99478571Y-130257143D01*
X98378571Y-131185714D02*
X98378571Y-132042857D01*
X98378571Y-131614285D02*
X96878571Y-131614285D01*
X97092857Y-131757142D01*
X97235714Y-131900000D01*
X97307143Y-132042857D01*
X96878571Y-129900000D02*
X96878571Y-130185714D01*
X96950000Y-130328571D01*
X97021429Y-130400000D01*
X97235714Y-130542857D01*
X97521429Y-130614286D01*
X98092857Y-130614286D01*
X98235714Y-130542857D01*
X98307143Y-130471429D01*
X98378571Y-130328571D01*
X98378571Y-130042857D01*
X98307143Y-129900000D01*
X98235714Y-129828571D01*
X98092857Y-129757143D01*
X97735714Y-129757143D01*
X97592857Y-129828571D01*
X97521429Y-129900000D01*
X97450000Y-130042857D01*
X97450000Y-130328571D01*
X97521429Y-130471429D01*
X97592857Y-130542857D01*
X97735714Y-130614286D01*
X95921429Y-138442857D02*
X95850000Y-138371428D01*
X95778571Y-138228571D01*
X95778571Y-137871428D01*
X95850000Y-137728571D01*
X95921429Y-137657142D01*
X96064286Y-137585714D01*
X96207143Y-137585714D01*
X96421429Y-137657142D01*
X97278571Y-138514285D01*
X97278571Y-137585714D01*
X95778571Y-136300000D02*
X95778571Y-136585714D01*
X95850000Y-136728571D01*
X95921429Y-136800000D01*
X96135714Y-136942857D01*
X96421429Y-137014286D01*
X96992857Y-137014286D01*
X97135714Y-136942857D01*
X97207143Y-136871429D01*
X97278571Y-136728571D01*
X97278571Y-136442857D01*
X97207143Y-136300000D01*
X97135714Y-136228571D01*
X96992857Y-136157143D01*
X96635714Y-136157143D01*
X96492857Y-136228571D01*
X96421429Y-136300000D01*
X96350000Y-136442857D01*
X96350000Y-136728571D01*
X96421429Y-136871429D01*
X96492857Y-136942857D01*
X96635714Y-137014286D01*
X95878571Y-131185714D02*
X95878571Y-132042857D01*
X95878571Y-131614285D02*
X94378571Y-131614285D01*
X94592857Y-131757142D01*
X94735714Y-131900000D01*
X94807143Y-132042857D01*
X94378571Y-130685714D02*
X94378571Y-129757143D01*
X94950000Y-130257143D01*
X94950000Y-130042857D01*
X95021429Y-129900000D01*
X95092857Y-129828571D01*
X95235714Y-129757143D01*
X95592857Y-129757143D01*
X95735714Y-129828571D01*
X95807143Y-129900000D01*
X95878571Y-130042857D01*
X95878571Y-130471429D01*
X95807143Y-130614286D01*
X95735714Y-130685714D01*
X94778571Y-137585714D02*
X94778571Y-138442857D01*
X94778571Y-138014285D02*
X93278571Y-138014285D01*
X93492857Y-138157142D01*
X93635714Y-138300000D01*
X93707143Y-138442857D01*
X94778571Y-136871429D02*
X94778571Y-136585714D01*
X94707143Y-136442857D01*
X94635714Y-136371429D01*
X94421429Y-136228571D01*
X94135714Y-136157143D01*
X93564286Y-136157143D01*
X93421429Y-136228571D01*
X93350000Y-136300000D01*
X93278571Y-136442857D01*
X93278571Y-136728571D01*
X93350000Y-136871429D01*
X93421429Y-136942857D01*
X93564286Y-137014286D01*
X93921429Y-137014286D01*
X94064286Y-136942857D01*
X94135714Y-136871429D01*
X94207143Y-136728571D01*
X94207143Y-136442857D01*
X94135714Y-136300000D01*
X94064286Y-136228571D01*
X93921429Y-136157143D01*
X93278571Y-131185714D02*
X93278571Y-132042857D01*
X93278571Y-131614285D02*
X91778571Y-131614285D01*
X91992857Y-131757142D01*
X92135714Y-131900000D01*
X92207143Y-132042857D01*
X91921429Y-130614286D02*
X91850000Y-130542857D01*
X91778571Y-130400000D01*
X91778571Y-130042857D01*
X91850000Y-129900000D01*
X91921429Y-129828571D01*
X92064286Y-129757143D01*
X92207143Y-129757143D01*
X92421429Y-129828571D01*
X93278571Y-130685714D01*
X93278571Y-129757143D01*
X90678571Y-138085714D02*
X90678571Y-137942857D01*
X90750000Y-137800000D01*
X90821429Y-137728571D01*
X90964286Y-137657142D01*
X91250000Y-137585714D01*
X91607143Y-137585714D01*
X91892857Y-137657142D01*
X92035714Y-137728571D01*
X92107143Y-137800000D01*
X92178571Y-137942857D01*
X92178571Y-138085714D01*
X92107143Y-138228571D01*
X92035714Y-138300000D01*
X91892857Y-138371428D01*
X91607143Y-138442857D01*
X91250000Y-138442857D01*
X90964286Y-138371428D01*
X90821429Y-138300000D01*
X90750000Y-138228571D01*
X90678571Y-138085714D01*
X90678571Y-136300000D02*
X90678571Y-136585714D01*
X90750000Y-136728571D01*
X90821429Y-136800000D01*
X91035714Y-136942857D01*
X91321429Y-137014286D01*
X91892857Y-137014286D01*
X92035714Y-136942857D01*
X92107143Y-136871429D01*
X92178571Y-136728571D01*
X92178571Y-136442857D01*
X92107143Y-136300000D01*
X92035714Y-136228571D01*
X91892857Y-136157143D01*
X91535714Y-136157143D01*
X91392857Y-136228571D01*
X91321429Y-136300000D01*
X91250000Y-136442857D01*
X91250000Y-136728571D01*
X91321429Y-136871429D01*
X91392857Y-136942857D01*
X91535714Y-137014286D01*
X89478571Y-131685714D02*
X89478571Y-131542857D01*
X89550000Y-131400000D01*
X89621429Y-131328571D01*
X89764286Y-131257142D01*
X90050000Y-131185714D01*
X90407143Y-131185714D01*
X90692857Y-131257142D01*
X90835714Y-131328571D01*
X90907143Y-131400000D01*
X90978571Y-131542857D01*
X90978571Y-131685714D01*
X90907143Y-131828571D01*
X90835714Y-131900000D01*
X90692857Y-131971428D01*
X90407143Y-132042857D01*
X90050000Y-132042857D01*
X89764286Y-131971428D01*
X89621429Y-131900000D01*
X89550000Y-131828571D01*
X89478571Y-131685714D01*
X89478571Y-130685714D02*
X89478571Y-129685714D01*
X90978571Y-130328571D01*
X88178571Y-138085714D02*
X88178571Y-137942857D01*
X88250000Y-137800000D01*
X88321429Y-137728571D01*
X88464286Y-137657142D01*
X88750000Y-137585714D01*
X89107143Y-137585714D01*
X89392857Y-137657142D01*
X89535714Y-137728571D01*
X89607143Y-137800000D01*
X89678571Y-137942857D01*
X89678571Y-138085714D01*
X89607143Y-138228571D01*
X89535714Y-138300000D01*
X89392857Y-138371428D01*
X89107143Y-138442857D01*
X88750000Y-138442857D01*
X88464286Y-138371428D01*
X88321429Y-138300000D01*
X88250000Y-138228571D01*
X88178571Y-138085714D01*
X88178571Y-136228571D02*
X88178571Y-136942857D01*
X88892857Y-137014286D01*
X88821429Y-136942857D01*
X88750000Y-136800000D01*
X88750000Y-136442857D01*
X88821429Y-136300000D01*
X88892857Y-136228571D01*
X89035714Y-136157143D01*
X89392857Y-136157143D01*
X89535714Y-136228571D01*
X89607143Y-136300000D01*
X89678571Y-136442857D01*
X89678571Y-136800000D01*
X89607143Y-136942857D01*
X89535714Y-137014286D01*
X86878571Y-131785714D02*
X86878571Y-131642857D01*
X86950000Y-131500000D01*
X87021429Y-131428571D01*
X87164286Y-131357142D01*
X87450000Y-131285714D01*
X87807143Y-131285714D01*
X88092857Y-131357142D01*
X88235714Y-131428571D01*
X88307143Y-131500000D01*
X88378571Y-131642857D01*
X88378571Y-131785714D01*
X88307143Y-131928571D01*
X88235714Y-132000000D01*
X88092857Y-132071428D01*
X87807143Y-132142857D01*
X87450000Y-132142857D01*
X87164286Y-132071428D01*
X87021429Y-132000000D01*
X86950000Y-131928571D01*
X86878571Y-131785714D01*
X87521429Y-130428571D02*
X87450000Y-130571429D01*
X87378571Y-130642857D01*
X87235714Y-130714286D01*
X87164286Y-130714286D01*
X87021429Y-130642857D01*
X86950000Y-130571429D01*
X86878571Y-130428571D01*
X86878571Y-130142857D01*
X86950000Y-130000000D01*
X87021429Y-129928571D01*
X87164286Y-129857143D01*
X87235714Y-129857143D01*
X87378571Y-129928571D01*
X87450000Y-130000000D01*
X87521429Y-130142857D01*
X87521429Y-130428571D01*
X87592857Y-130571429D01*
X87664286Y-130642857D01*
X87807143Y-130714286D01*
X88092857Y-130714286D01*
X88235714Y-130642857D01*
X88307143Y-130571429D01*
X88378571Y-130428571D01*
X88378571Y-130142857D01*
X88307143Y-130000000D01*
X88235714Y-129928571D01*
X88092857Y-129857143D01*
X87807143Y-129857143D01*
X87664286Y-129928571D01*
X87592857Y-130000000D01*
X87521429Y-130142857D01*
X87178571Y-137585714D02*
X87178571Y-138442857D01*
X87178571Y-138014285D02*
X85678571Y-138014285D01*
X85892857Y-138157142D01*
X86035714Y-138300000D01*
X86107143Y-138442857D01*
X87178571Y-136157143D02*
X87178571Y-137014286D01*
X87178571Y-136585714D02*
X85678571Y-136585714D01*
X85892857Y-136728571D01*
X86035714Y-136871429D01*
X86107143Y-137014286D01*
X84421429Y-132042857D02*
X84350000Y-131971428D01*
X84278571Y-131828571D01*
X84278571Y-131471428D01*
X84350000Y-131328571D01*
X84421429Y-131257142D01*
X84564286Y-131185714D01*
X84707143Y-131185714D01*
X84921429Y-131257142D01*
X85778571Y-132114285D01*
X85778571Y-131185714D01*
X84278571Y-129828571D02*
X84278571Y-130542857D01*
X84992857Y-130614286D01*
X84921429Y-130542857D01*
X84850000Y-130400000D01*
X84850000Y-130042857D01*
X84921429Y-129900000D01*
X84992857Y-129828571D01*
X85135714Y-129757143D01*
X85492857Y-129757143D01*
X85635714Y-129828571D01*
X85707143Y-129900000D01*
X85778571Y-130042857D01*
X85778571Y-130400000D01*
X85707143Y-130542857D01*
X85635714Y-130614286D01*
X83178571Y-138185714D02*
X83178571Y-138042857D01*
X83250000Y-137900000D01*
X83321429Y-137828571D01*
X83464286Y-137757142D01*
X83750000Y-137685714D01*
X84107143Y-137685714D01*
X84392857Y-137757142D01*
X84535714Y-137828571D01*
X84607143Y-137900000D01*
X84678571Y-138042857D01*
X84678571Y-138185714D01*
X84607143Y-138328571D01*
X84535714Y-138400000D01*
X84392857Y-138471428D01*
X84107143Y-138542857D01*
X83750000Y-138542857D01*
X83464286Y-138471428D01*
X83321429Y-138400000D01*
X83250000Y-138328571D01*
X83178571Y-138185714D01*
X84678571Y-136971429D02*
X84678571Y-136685714D01*
X84607143Y-136542857D01*
X84535714Y-136471429D01*
X84321429Y-136328571D01*
X84035714Y-136257143D01*
X83464286Y-136257143D01*
X83321429Y-136328571D01*
X83250000Y-136400000D01*
X83178571Y-136542857D01*
X83178571Y-136828571D01*
X83250000Y-136971429D01*
X83321429Y-137042857D01*
X83464286Y-137114286D01*
X83821429Y-137114286D01*
X83964286Y-137042857D01*
X84035714Y-136971429D01*
X84107143Y-136828571D01*
X84107143Y-136542857D01*
X84035714Y-136400000D01*
X83964286Y-136328571D01*
X83821429Y-136257143D01*
X81921429Y-132042857D02*
X81850000Y-131971428D01*
X81778571Y-131828571D01*
X81778571Y-131471428D01*
X81850000Y-131328571D01*
X81921429Y-131257142D01*
X82064286Y-131185714D01*
X82207143Y-131185714D01*
X82421429Y-131257142D01*
X83278571Y-132114285D01*
X83278571Y-131185714D01*
X82278571Y-129900000D02*
X83278571Y-129900000D01*
X81707143Y-130257143D02*
X82778571Y-130614286D01*
X82778571Y-129685714D01*
X82078571Y-137685714D02*
X82078571Y-138542857D01*
X82078571Y-138114285D02*
X80578571Y-138114285D01*
X80792857Y-138257142D01*
X80935714Y-138400000D01*
X81007143Y-138542857D01*
X80578571Y-136757143D02*
X80578571Y-136614286D01*
X80650000Y-136471429D01*
X80721429Y-136400000D01*
X80864286Y-136328571D01*
X81150000Y-136257143D01*
X81507143Y-136257143D01*
X81792857Y-136328571D01*
X81935714Y-136400000D01*
X82007143Y-136471429D01*
X82078571Y-136614286D01*
X82078571Y-136757143D01*
X82007143Y-136900000D01*
X81935714Y-136971429D01*
X81792857Y-137042857D01*
X81507143Y-137114286D01*
X81150000Y-137114286D01*
X80864286Y-137042857D01*
X80721429Y-136971429D01*
X80650000Y-136900000D01*
X80578571Y-136757143D01*
X79321429Y-132042857D02*
X79250000Y-131971428D01*
X79178571Y-131828571D01*
X79178571Y-131471428D01*
X79250000Y-131328571D01*
X79321429Y-131257142D01*
X79464286Y-131185714D01*
X79607143Y-131185714D01*
X79821429Y-131257142D01*
X80678571Y-132114285D01*
X80678571Y-131185714D01*
X79178571Y-130685714D02*
X79178571Y-129757143D01*
X79750000Y-130257143D01*
X79750000Y-130042857D01*
X79821429Y-129900000D01*
X79892857Y-129828571D01*
X80035714Y-129757143D01*
X80392857Y-129757143D01*
X80535714Y-129828571D01*
X80607143Y-129900000D01*
X80678571Y-130042857D01*
X80678571Y-130471429D01*
X80607143Y-130614286D01*
X80535714Y-130685714D01*
X78121429Y-138442857D02*
X78050000Y-138371428D01*
X77978571Y-138228571D01*
X77978571Y-137871428D01*
X78050000Y-137728571D01*
X78121429Y-137657142D01*
X78264286Y-137585714D01*
X78407143Y-137585714D01*
X78621429Y-137657142D01*
X79478571Y-138514285D01*
X79478571Y-137585714D01*
X78121429Y-137014286D02*
X78050000Y-136942857D01*
X77978571Y-136800000D01*
X77978571Y-136442857D01*
X78050000Y-136300000D01*
X78121429Y-136228571D01*
X78264286Y-136157143D01*
X78407143Y-136157143D01*
X78621429Y-136228571D01*
X79478571Y-137085714D01*
X79478571Y-136157143D01*
X78078571Y-131285714D02*
X78078571Y-132142857D01*
X78078571Y-131714285D02*
X76578571Y-131714285D01*
X76792857Y-131857142D01*
X76935714Y-132000000D01*
X77007143Y-132142857D01*
X76578571Y-130785714D02*
X76578571Y-129785714D01*
X78078571Y-130428571D01*
X75621429Y-138542857D02*
X75550000Y-138471428D01*
X75478571Y-138328571D01*
X75478571Y-137971428D01*
X75550000Y-137828571D01*
X75621429Y-137757142D01*
X75764286Y-137685714D01*
X75907143Y-137685714D01*
X76121429Y-137757142D01*
X76978571Y-138614285D01*
X76978571Y-137685714D01*
X75478571Y-137185714D02*
X75478571Y-136185714D01*
X76978571Y-136828571D01*
X75478571Y-131285714D02*
X75478571Y-132142857D01*
X75478571Y-131714285D02*
X73978571Y-131714285D01*
X74192857Y-131857142D01*
X74335714Y-132000000D01*
X74407143Y-132142857D01*
X73978571Y-129928571D02*
X73978571Y-130642857D01*
X74692857Y-130714286D01*
X74621429Y-130642857D01*
X74550000Y-130500000D01*
X74550000Y-130142857D01*
X74621429Y-130000000D01*
X74692857Y-129928571D01*
X74835714Y-129857143D01*
X75192857Y-129857143D01*
X75335714Y-129928571D01*
X75407143Y-130000000D01*
X75478571Y-130142857D01*
X75478571Y-130500000D01*
X75407143Y-130642857D01*
X75335714Y-130714286D01*
X74478571Y-137685714D02*
X74478571Y-138542857D01*
X74478571Y-138114285D02*
X72978571Y-138114285D01*
X73192857Y-138257142D01*
X73335714Y-138400000D01*
X73407143Y-138542857D01*
X73621429Y-136828571D02*
X73550000Y-136971429D01*
X73478571Y-137042857D01*
X73335714Y-137114286D01*
X73264286Y-137114286D01*
X73121429Y-137042857D01*
X73050000Y-136971429D01*
X72978571Y-136828571D01*
X72978571Y-136542857D01*
X73050000Y-136400000D01*
X73121429Y-136328571D01*
X73264286Y-136257143D01*
X73335714Y-136257143D01*
X73478571Y-136328571D01*
X73550000Y-136400000D01*
X73621429Y-136542857D01*
X73621429Y-136828571D01*
X73692857Y-136971429D01*
X73764286Y-137042857D01*
X73907143Y-137114286D01*
X74192857Y-137114286D01*
X74335714Y-137042857D01*
X74407143Y-136971429D01*
X74478571Y-136828571D01*
X74478571Y-136542857D01*
X74407143Y-136400000D01*
X74335714Y-136328571D01*
X74192857Y-136257143D01*
X73907143Y-136257143D01*
X73764286Y-136328571D01*
X73692857Y-136400000D01*
X73621429Y-136542857D01*
X72878571Y-131285714D02*
X72878571Y-132142857D01*
X72878571Y-131714285D02*
X71378571Y-131714285D01*
X71592857Y-131857142D01*
X71735714Y-132000000D01*
X71807143Y-132142857D01*
X71878571Y-130000000D02*
X72878571Y-130000000D01*
X71307143Y-130357143D02*
X72378571Y-130714286D01*
X72378571Y-129785714D01*
X70378571Y-138185714D02*
X70378571Y-138042857D01*
X70450000Y-137900000D01*
X70521429Y-137828571D01*
X70664286Y-137757142D01*
X70950000Y-137685714D01*
X71307143Y-137685714D01*
X71592857Y-137757142D01*
X71735714Y-137828571D01*
X71807143Y-137900000D01*
X71878571Y-138042857D01*
X71878571Y-138185714D01*
X71807143Y-138328571D01*
X71735714Y-138400000D01*
X71592857Y-138471428D01*
X71307143Y-138542857D01*
X70950000Y-138542857D01*
X70664286Y-138471428D01*
X70521429Y-138400000D01*
X70450000Y-138328571D01*
X70378571Y-138185714D01*
X70878571Y-136400000D02*
X71878571Y-136400000D01*
X70307143Y-136757143D02*
X71378571Y-137114286D01*
X71378571Y-136185714D01*
X68966667Y-130366666D02*
X68900000Y-130300000D01*
X68833333Y-130166666D01*
X68833333Y-129833333D01*
X68900000Y-129700000D01*
X68966667Y-129633333D01*
X69100000Y-129566666D01*
X69233333Y-129566666D01*
X69433333Y-129633333D01*
X70233333Y-130433333D01*
X70233333Y-129566666D01*
X70233333Y-128233333D02*
X70233333Y-129033333D01*
X70233333Y-128633333D02*
X68833333Y-128633333D01*
X69033333Y-128766667D01*
X69166667Y-128900000D01*
X69233333Y-129033333D01*
X68966667Y-127616666D02*
X68900000Y-127550000D01*
X68833333Y-127416666D01*
X68833333Y-127083333D01*
X68900000Y-126950000D01*
X68966667Y-126883333D01*
X69100000Y-126816666D01*
X69233333Y-126816666D01*
X69433333Y-126883333D01*
X70233333Y-127683333D01*
X70233333Y-126816666D01*
X68833333Y-125950000D02*
X68833333Y-125816667D01*
X68900000Y-125683333D01*
X68966667Y-125616667D01*
X69100000Y-125550000D01*
X69366667Y-125483333D01*
X69700000Y-125483333D01*
X69966667Y-125550000D01*
X70100000Y-125616667D01*
X70166667Y-125683333D01*
X70233333Y-125816667D01*
X70233333Y-125950000D01*
X70166667Y-126083333D01*
X70100000Y-126150000D01*
X69966667Y-126216667D01*
X69700000Y-126283333D01*
X69366667Y-126283333D01*
X69100000Y-126216667D01*
X68966667Y-126150000D01*
X68900000Y-126083333D01*
X68833333Y-125950000D01*
X69557143Y-123521429D02*
X69628572Y-123450000D01*
X69771429Y-123378571D01*
X70128572Y-123378571D01*
X70271429Y-123450000D01*
X70342858Y-123521429D01*
X70414286Y-123664286D01*
X70414286Y-123807143D01*
X70342858Y-124021429D01*
X69485715Y-124878571D01*
X70414286Y-124878571D01*
X71700000Y-123378571D02*
X71414286Y-123378571D01*
X71271429Y-123450000D01*
X71200000Y-123521429D01*
X71057143Y-123735714D01*
X70985714Y-124021429D01*
X70985714Y-124592857D01*
X71057143Y-124735714D01*
X71128571Y-124807143D01*
X71271429Y-124878571D01*
X71557143Y-124878571D01*
X71700000Y-124807143D01*
X71771429Y-124735714D01*
X71842857Y-124592857D01*
X71842857Y-124235714D01*
X71771429Y-124092857D01*
X71700000Y-124021429D01*
X71557143Y-123950000D01*
X71271429Y-123950000D01*
X71128571Y-124021429D01*
X71057143Y-124092857D01*
X70985714Y-124235714D01*
X70414286Y-122278571D02*
X69557143Y-122278571D01*
X69985715Y-122278571D02*
X69985715Y-120778571D01*
X69842858Y-120992857D01*
X69700000Y-121135714D01*
X69557143Y-121207143D01*
X71700000Y-120778571D02*
X71414286Y-120778571D01*
X71271429Y-120850000D01*
X71200000Y-120921429D01*
X71057143Y-121135714D01*
X70985714Y-121421429D01*
X70985714Y-121992857D01*
X71057143Y-122135714D01*
X71128571Y-122207143D01*
X71271429Y-122278571D01*
X71557143Y-122278571D01*
X71700000Y-122207143D01*
X71771429Y-122135714D01*
X71842857Y-121992857D01*
X71842857Y-121635714D01*
X71771429Y-121492857D01*
X71700000Y-121421429D01*
X71557143Y-121350000D01*
X71271429Y-121350000D01*
X71128571Y-121421429D01*
X71057143Y-121492857D01*
X70985714Y-121635714D01*
X70414286Y-119778571D02*
X69557143Y-119778571D01*
X69985715Y-119778571D02*
X69985715Y-118278571D01*
X69842858Y-118492857D01*
X69700000Y-118635714D01*
X69557143Y-118707143D01*
X71128571Y-119778571D02*
X71414286Y-119778571D01*
X71557143Y-119707143D01*
X71628571Y-119635714D01*
X71771429Y-119421429D01*
X71842857Y-119135714D01*
X71842857Y-118564286D01*
X71771429Y-118421429D01*
X71700000Y-118350000D01*
X71557143Y-118278571D01*
X71271429Y-118278571D01*
X71128571Y-118350000D01*
X71057143Y-118421429D01*
X70985714Y-118564286D01*
X70985714Y-118921429D01*
X71057143Y-119064286D01*
X71128571Y-119135714D01*
X71271429Y-119207143D01*
X71557143Y-119207143D01*
X71700000Y-119135714D01*
X71771429Y-119064286D01*
X71842857Y-118921429D01*
X70414286Y-117278571D02*
X69557143Y-117278571D01*
X69985715Y-117278571D02*
X69985715Y-115778571D01*
X69842858Y-115992857D01*
X69700000Y-116135714D01*
X69557143Y-116207143D01*
X70914286Y-115778571D02*
X71842857Y-115778571D01*
X71342857Y-116350000D01*
X71557143Y-116350000D01*
X71700000Y-116421429D01*
X71771429Y-116492857D01*
X71842857Y-116635714D01*
X71842857Y-116992857D01*
X71771429Y-117135714D01*
X71700000Y-117207143D01*
X71557143Y-117278571D01*
X71128571Y-117278571D01*
X70985714Y-117207143D01*
X70914286Y-117135714D01*
X69914286Y-112278571D02*
X70057143Y-112278571D01*
X70200000Y-112350000D01*
X70271429Y-112421429D01*
X70342858Y-112564286D01*
X70414286Y-112850000D01*
X70414286Y-113207143D01*
X70342858Y-113492857D01*
X70271429Y-113635714D01*
X70200000Y-113707143D01*
X70057143Y-113778571D01*
X69914286Y-113778571D01*
X69771429Y-113707143D01*
X69700000Y-113635714D01*
X69628572Y-113492857D01*
X69557143Y-113207143D01*
X69557143Y-112850000D01*
X69628572Y-112564286D01*
X69700000Y-112421429D01*
X69771429Y-112350000D01*
X69914286Y-112278571D01*
X71700000Y-112278571D02*
X71414286Y-112278571D01*
X71271429Y-112350000D01*
X71200000Y-112421429D01*
X71057143Y-112635714D01*
X70985714Y-112921429D01*
X70985714Y-113492857D01*
X71057143Y-113635714D01*
X71128571Y-113707143D01*
X71271429Y-113778571D01*
X71557143Y-113778571D01*
X71700000Y-113707143D01*
X71771429Y-113635714D01*
X71842857Y-113492857D01*
X71842857Y-113135714D01*
X71771429Y-112992857D01*
X71700000Y-112921429D01*
X71557143Y-112850000D01*
X71271429Y-112850000D01*
X71128571Y-112921429D01*
X71057143Y-112992857D01*
X70985714Y-113135714D01*
X70414286Y-103478571D02*
X69557143Y-103478571D01*
X69985715Y-103478571D02*
X69985715Y-101978571D01*
X69842858Y-102192857D01*
X69700000Y-102335714D01*
X69557143Y-102407143D01*
X71842857Y-103478571D02*
X70985714Y-103478571D01*
X71414286Y-103478571D02*
X71414286Y-101978571D01*
X71271429Y-102192857D01*
X71128571Y-102335714D01*
X70985714Y-102407143D01*
X69914286Y-104578571D02*
X70057143Y-104578571D01*
X70200000Y-104650000D01*
X70271429Y-104721429D01*
X70342858Y-104864286D01*
X70414286Y-105150000D01*
X70414286Y-105507143D01*
X70342858Y-105792857D01*
X70271429Y-105935714D01*
X70200000Y-106007143D01*
X70057143Y-106078571D01*
X69914286Y-106078571D01*
X69771429Y-106007143D01*
X69700000Y-105935714D01*
X69628572Y-105792857D01*
X69557143Y-105507143D01*
X69557143Y-105150000D01*
X69628572Y-104864286D01*
X69700000Y-104721429D01*
X69771429Y-104650000D01*
X69914286Y-104578571D01*
X70914286Y-104578571D02*
X71914286Y-104578571D01*
X71271429Y-106078571D01*
X70414286Y-111078571D02*
X69557143Y-111078571D01*
X69985715Y-111078571D02*
X69985715Y-109578571D01*
X69842858Y-109792857D01*
X69700000Y-109935714D01*
X69557143Y-110007143D01*
X70985714Y-109721429D02*
X71057143Y-109650000D01*
X71200000Y-109578571D01*
X71557143Y-109578571D01*
X71700000Y-109650000D01*
X71771429Y-109721429D01*
X71842857Y-109864286D01*
X71842857Y-110007143D01*
X71771429Y-110221429D01*
X70914286Y-111078571D01*
X71842857Y-111078571D01*
X69914286Y-107078571D02*
X70057143Y-107078571D01*
X70200000Y-107150000D01*
X70271429Y-107221429D01*
X70342858Y-107364286D01*
X70414286Y-107650000D01*
X70414286Y-108007143D01*
X70342858Y-108292857D01*
X70271429Y-108435714D01*
X70200000Y-108507143D01*
X70057143Y-108578571D01*
X69914286Y-108578571D01*
X69771429Y-108507143D01*
X69700000Y-108435714D01*
X69628572Y-108292857D01*
X69557143Y-108007143D01*
X69557143Y-107650000D01*
X69628572Y-107364286D01*
X69700000Y-107221429D01*
X69771429Y-107150000D01*
X69914286Y-107078571D01*
X71771429Y-107078571D02*
X71057143Y-107078571D01*
X70985714Y-107792857D01*
X71057143Y-107721429D01*
X71200000Y-107650000D01*
X71557143Y-107650000D01*
X71700000Y-107721429D01*
X71771429Y-107792857D01*
X71842857Y-107935714D01*
X71842857Y-108292857D01*
X71771429Y-108435714D01*
X71700000Y-108507143D01*
X71557143Y-108578571D01*
X71200000Y-108578571D01*
X71057143Y-108507143D01*
X70985714Y-108435714D01*
X69914286Y-99378571D02*
X70057143Y-99378571D01*
X70200000Y-99450000D01*
X70271429Y-99521429D01*
X70342858Y-99664286D01*
X70414286Y-99950000D01*
X70414286Y-100307143D01*
X70342858Y-100592857D01*
X70271429Y-100735714D01*
X70200000Y-100807143D01*
X70057143Y-100878571D01*
X69914286Y-100878571D01*
X69771429Y-100807143D01*
X69700000Y-100735714D01*
X69628572Y-100592857D01*
X69557143Y-100307143D01*
X69557143Y-99950000D01*
X69628572Y-99664286D01*
X69700000Y-99521429D01*
X69771429Y-99450000D01*
X69914286Y-99378571D01*
X71271429Y-100021429D02*
X71128571Y-99950000D01*
X71057143Y-99878571D01*
X70985714Y-99735714D01*
X70985714Y-99664286D01*
X71057143Y-99521429D01*
X71128571Y-99450000D01*
X71271429Y-99378571D01*
X71557143Y-99378571D01*
X71700000Y-99450000D01*
X71771429Y-99521429D01*
X71842857Y-99664286D01*
X71842857Y-99735714D01*
X71771429Y-99878571D01*
X71700000Y-99950000D01*
X71557143Y-100021429D01*
X71271429Y-100021429D01*
X71128571Y-100092857D01*
X71057143Y-100164286D01*
X70985714Y-100307143D01*
X70985714Y-100592857D01*
X71057143Y-100735714D01*
X71128571Y-100807143D01*
X71271429Y-100878571D01*
X71557143Y-100878571D01*
X71700000Y-100807143D01*
X71771429Y-100735714D01*
X71842857Y-100592857D01*
X71842857Y-100307143D01*
X71771429Y-100164286D01*
X71700000Y-100092857D01*
X71557143Y-100021429D01*
X85278571Y-82485714D02*
X85278571Y-83342857D01*
X85278571Y-82914285D02*
X83778571Y-82914285D01*
X83992857Y-83057142D01*
X84135714Y-83200000D01*
X84207143Y-83342857D01*
X84278571Y-81200000D02*
X85278571Y-81200000D01*
X83707143Y-81557143D02*
X84778571Y-81914286D01*
X84778571Y-80985714D01*
X81378571Y-82985714D02*
X81378571Y-82842857D01*
X81450000Y-82700000D01*
X81521429Y-82628571D01*
X81664286Y-82557142D01*
X81950000Y-82485714D01*
X82307143Y-82485714D01*
X82592857Y-82557142D01*
X82735714Y-82628571D01*
X82807143Y-82700000D01*
X82878571Y-82842857D01*
X82878571Y-82985714D01*
X82807143Y-83128571D01*
X82735714Y-83200000D01*
X82592857Y-83271428D01*
X82307143Y-83342857D01*
X81950000Y-83342857D01*
X81664286Y-83271428D01*
X81521429Y-83200000D01*
X81450000Y-83128571D01*
X81378571Y-82985714D01*
X81878571Y-81200000D02*
X82878571Y-81200000D01*
X81307143Y-81557143D02*
X82378571Y-81914286D01*
X82378571Y-80985714D01*
X80378571Y-82485714D02*
X80378571Y-83342857D01*
X80378571Y-82914285D02*
X78878571Y-82914285D01*
X79092857Y-83057142D01*
X79235714Y-83200000D01*
X79307143Y-83342857D01*
X78878571Y-81128571D02*
X78878571Y-81842857D01*
X79592857Y-81914286D01*
X79521429Y-81842857D01*
X79450000Y-81700000D01*
X79450000Y-81342857D01*
X79521429Y-81200000D01*
X79592857Y-81128571D01*
X79735714Y-81057143D01*
X80092857Y-81057143D01*
X80235714Y-81128571D01*
X80307143Y-81200000D01*
X80378571Y-81342857D01*
X80378571Y-81700000D01*
X80307143Y-81842857D01*
X80235714Y-81914286D01*
X77778571Y-82485714D02*
X77778571Y-83342857D01*
X77778571Y-82914285D02*
X76278571Y-82914285D01*
X76492857Y-83057142D01*
X76635714Y-83200000D01*
X76707143Y-83342857D01*
X76921429Y-81628571D02*
X76850000Y-81771429D01*
X76778571Y-81842857D01*
X76635714Y-81914286D01*
X76564286Y-81914286D01*
X76421429Y-81842857D01*
X76350000Y-81771429D01*
X76278571Y-81628571D01*
X76278571Y-81342857D01*
X76350000Y-81200000D01*
X76421429Y-81128571D01*
X76564286Y-81057143D01*
X76635714Y-81057143D01*
X76778571Y-81128571D01*
X76850000Y-81200000D01*
X76921429Y-81342857D01*
X76921429Y-81628571D01*
X76992857Y-81771429D01*
X77064286Y-81842857D01*
X77207143Y-81914286D01*
X77492857Y-81914286D01*
X77635714Y-81842857D01*
X77707143Y-81771429D01*
X77778571Y-81628571D01*
X77778571Y-81342857D01*
X77707143Y-81200000D01*
X77635714Y-81128571D01*
X77492857Y-81057143D01*
X77207143Y-81057143D01*
X77064286Y-81128571D01*
X76992857Y-81200000D01*
X76921429Y-81342857D01*
X75278571Y-82485714D02*
X75278571Y-83342857D01*
X75278571Y-82914285D02*
X73778571Y-82914285D01*
X73992857Y-83057142D01*
X74135714Y-83200000D01*
X74207143Y-83342857D01*
X73778571Y-81985714D02*
X73778571Y-80985714D01*
X75278571Y-81628571D01*
X71466667Y-83166666D02*
X71400000Y-83100000D01*
X71333333Y-82966666D01*
X71333333Y-82633333D01*
X71400000Y-82500000D01*
X71466667Y-82433333D01*
X71600000Y-82366666D01*
X71733333Y-82366666D01*
X71933333Y-82433333D01*
X72733333Y-83233333D01*
X72733333Y-82366666D01*
X71333333Y-81900000D02*
X71333333Y-80966667D01*
X72733333Y-81566667D01*
X69914286Y-95878571D02*
X70057143Y-95878571D01*
X70200000Y-95950000D01*
X70271429Y-96021429D01*
X70342858Y-96164286D01*
X70414286Y-96450000D01*
X70414286Y-96807143D01*
X70342858Y-97092857D01*
X70271429Y-97235714D01*
X70200000Y-97307143D01*
X70057143Y-97378571D01*
X69914286Y-97378571D01*
X69771429Y-97307143D01*
X69700000Y-97235714D01*
X69628572Y-97092857D01*
X69557143Y-96807143D01*
X69557143Y-96450000D01*
X69628572Y-96164286D01*
X69700000Y-96021429D01*
X69771429Y-95950000D01*
X69914286Y-95878571D01*
X71128571Y-97378571D02*
X71414286Y-97378571D01*
X71557143Y-97307143D01*
X71628571Y-97235714D01*
X71771429Y-97021429D01*
X71842857Y-96735714D01*
X71842857Y-96164286D01*
X71771429Y-96021429D01*
X71700000Y-95950000D01*
X71557143Y-95878571D01*
X71271429Y-95878571D01*
X71128571Y-95950000D01*
X71057143Y-96021429D01*
X70985714Y-96164286D01*
X70985714Y-96521429D01*
X71057143Y-96664286D01*
X71128571Y-96735714D01*
X71271429Y-96807143D01*
X71557143Y-96807143D01*
X71700000Y-96735714D01*
X71771429Y-96664286D01*
X71842857Y-96521429D01*
X69557143Y-93421429D02*
X69628572Y-93350000D01*
X69771429Y-93278571D01*
X70128572Y-93278571D01*
X70271429Y-93350000D01*
X70342858Y-93421429D01*
X70414286Y-93564286D01*
X70414286Y-93707143D01*
X70342858Y-93921429D01*
X69485715Y-94778571D01*
X70414286Y-94778571D01*
X71771429Y-93278571D02*
X71057143Y-93278571D01*
X70985714Y-93992857D01*
X71057143Y-93921429D01*
X71200000Y-93850000D01*
X71557143Y-93850000D01*
X71700000Y-93921429D01*
X71771429Y-93992857D01*
X71842857Y-94135714D01*
X71842857Y-94492857D01*
X71771429Y-94635714D01*
X71700000Y-94707143D01*
X71557143Y-94778571D01*
X71200000Y-94778571D01*
X71057143Y-94707143D01*
X70985714Y-94635714D01*
X70314286Y-92178571D02*
X69457143Y-92178571D01*
X69885715Y-92178571D02*
X69885715Y-90678571D01*
X69742858Y-90892857D01*
X69600000Y-91035714D01*
X69457143Y-91107143D01*
X71242857Y-90678571D02*
X71385714Y-90678571D01*
X71528571Y-90750000D01*
X71600000Y-90821429D01*
X71671429Y-90964286D01*
X71742857Y-91250000D01*
X71742857Y-91607143D01*
X71671429Y-91892857D01*
X71600000Y-92035714D01*
X71528571Y-92107143D01*
X71385714Y-92178571D01*
X71242857Y-92178571D01*
X71100000Y-92107143D01*
X71028571Y-92035714D01*
X70957143Y-91892857D01*
X70885714Y-91607143D01*
X70885714Y-91250000D01*
X70957143Y-90964286D01*
X71028571Y-90821429D01*
X71100000Y-90750000D01*
X71242857Y-90678571D01*
X69557143Y-88321429D02*
X69628572Y-88250000D01*
X69771429Y-88178571D01*
X70128572Y-88178571D01*
X70271429Y-88250000D01*
X70342858Y-88321429D01*
X70414286Y-88464286D01*
X70414286Y-88607143D01*
X70342858Y-88821429D01*
X69485715Y-89678571D01*
X70414286Y-89678571D01*
X71700000Y-88678571D02*
X71700000Y-89678571D01*
X71342857Y-88107143D02*
X70985714Y-89178571D01*
X71914286Y-89178571D01*
X69457143Y-85821429D02*
X69528572Y-85750000D01*
X69671429Y-85678571D01*
X70028572Y-85678571D01*
X70171429Y-85750000D01*
X70242858Y-85821429D01*
X70314286Y-85964286D01*
X70314286Y-86107143D01*
X70242858Y-86321429D01*
X69385715Y-87178571D01*
X70314286Y-87178571D01*
X70885714Y-85821429D02*
X70957143Y-85750000D01*
X71100000Y-85678571D01*
X71457143Y-85678571D01*
X71600000Y-85750000D01*
X71671429Y-85821429D01*
X71742857Y-85964286D01*
X71742857Y-86107143D01*
X71671429Y-86321429D01*
X70814286Y-87178571D01*
X71742857Y-87178571D01*
X69433334Y-83666667D02*
X69500000Y-83600000D01*
X69633334Y-83533333D01*
X69966667Y-83533333D01*
X70100000Y-83600000D01*
X70166667Y-83666667D01*
X70233334Y-83800000D01*
X70233334Y-83933333D01*
X70166667Y-84133333D01*
X69366667Y-84933333D01*
X70233334Y-84933333D01*
X70700000Y-83533333D02*
X71566667Y-83533333D01*
X71100000Y-84066667D01*
X71300000Y-84066667D01*
X71433333Y-84133333D01*
X71500000Y-84200000D01*
X71566667Y-84333333D01*
X71566667Y-84666667D01*
X71500000Y-84800000D01*
X71433333Y-84866667D01*
X71300000Y-84933333D01*
X70900000Y-84933333D01*
X70766667Y-84866667D01*
X70700000Y-84800000D01*
D14*
X62050000Y-114400000D02*
X62050000Y-98700000D01*
X68550000Y-114400000D02*
X68550000Y-98700000D01*
X62050000Y-98700000D02*
X68550000Y-98700000D01*
X62050000Y-114400000D02*
X68550000Y-114400000D01*
X70515000Y-126065000D02*
X100995000Y-126065000D01*
X70515000Y-129465000D02*
X100995000Y-129465000D01*
X100995000Y-126065000D02*
X100995000Y-129465000D01*
X70515000Y-126065000D02*
X70515000Y-129465000D01*
X93410000Y-108650000D02*
G75*
G03X93410000Y-108650000I-100000J0D01*
G01*
X93960000Y-108900000D02*
X93460000Y-108900000D01*
X93960000Y-111800000D02*
X93960000Y-108900000D01*
X93460000Y-111800000D02*
X93960000Y-111800000D01*
X93460000Y-108900000D02*
X93460000Y-111800000D01*
X116995000Y-81005000D02*
X116995000Y-132005000D01*
X111995000Y-81005000D02*
X111995000Y-132005000D01*
X116995000Y-132005000D02*
X111995000Y-132005000D01*
X116995000Y-81005000D02*
X111995000Y-81005000D01*
X62050000Y-130700000D02*
X62050000Y-115000000D01*
X68550000Y-130700000D02*
X68550000Y-115000000D01*
X62050000Y-115000000D02*
X68550000Y-115000000D01*
X62050000Y-130700000D02*
X68550000Y-130700000D01*
X62050000Y-98100000D02*
X62050000Y-82400000D01*
X68550000Y-98100000D02*
X68550000Y-82400000D01*
X62050000Y-82400000D02*
X68550000Y-82400000D01*
X62050000Y-98100000D02*
X68550000Y-98100000D01*
X70400000Y-74050000D02*
X86100000Y-74050000D01*
X70400000Y-80550000D02*
X86100000Y-80550000D01*
X86100000Y-74050000D02*
X86100000Y-80550000D01*
X70400000Y-74050000D02*
X70400000Y-80550000D01*
X101900000Y-74050000D02*
X107440000Y-74050000D01*
X101900000Y-80550000D02*
X107440000Y-80550000D01*
X107440000Y-74050000D02*
X107440000Y-80550000D01*
X101900000Y-74050000D02*
X101900000Y-80550000D01*
X70515000Y-132465000D02*
X100995000Y-132465000D01*
X70515000Y-135865000D02*
X100995000Y-135865000D01*
X100995000Y-132465000D02*
X100995000Y-135865000D01*
X70515000Y-132465000D02*
X70515000Y-135865000D01*
X93410000Y-76650000D02*
G75*
G03X93410000Y-76650000I-100000J0D01*
G01*
X93960000Y-76900000D02*
X93460000Y-76900000D01*
X93960000Y-79800000D02*
X93960000Y-76900000D01*
X93460000Y-79800000D02*
X93960000Y-79800000D01*
X93460000Y-76900000D02*
X93460000Y-79800000D01*
X93410000Y-80650000D02*
G75*
G03X93410000Y-80650000I-100000J0D01*
G01*
X93960000Y-80900000D02*
X93460000Y-80900000D01*
X93960000Y-83800000D02*
X93960000Y-80900000D01*
X93460000Y-83800000D02*
X93960000Y-83800000D01*
X93460000Y-80900000D02*
X93460000Y-83800000D01*
X93410000Y-84650000D02*
G75*
G03X93410000Y-84650000I-100000J0D01*
G01*
X93960000Y-84900000D02*
X93460000Y-84900000D01*
X93960000Y-87800000D02*
X93960000Y-84900000D01*
X93460000Y-87800000D02*
X93960000Y-87800000D01*
X93460000Y-84900000D02*
X93460000Y-87800000D01*
X93410000Y-88650000D02*
G75*
G03X93410000Y-88650000I-100000J0D01*
G01*
X93960000Y-88900000D02*
X93460000Y-88900000D01*
X93960000Y-91800000D02*
X93960000Y-88900000D01*
X93460000Y-91800000D02*
X93960000Y-91800000D01*
X93460000Y-88900000D02*
X93460000Y-91800000D01*
X93410000Y-92650000D02*
G75*
G03X93410000Y-92650000I-100000J0D01*
G01*
X93960000Y-92900000D02*
X93460000Y-92900000D01*
X93960000Y-95800000D02*
X93960000Y-92900000D01*
X93460000Y-95800000D02*
X93960000Y-95800000D01*
X93460000Y-92900000D02*
X93460000Y-95800000D01*
X93410000Y-96650000D02*
G75*
G03X93410000Y-96650000I-100000J0D01*
G01*
X93960000Y-96900000D02*
X93460000Y-96900000D01*
X93960000Y-99800000D02*
X93960000Y-96900000D01*
X93460000Y-99800000D02*
X93960000Y-99800000D01*
X93460000Y-96900000D02*
X93460000Y-99800000D01*
X93410000Y-100650000D02*
G75*
G03X93410000Y-100650000I-100000J0D01*
G01*
X93960000Y-100900000D02*
X93460000Y-100900000D01*
X93960000Y-103800000D02*
X93960000Y-100900000D01*
X93460000Y-103800000D02*
X93960000Y-103800000D01*
X93460000Y-100900000D02*
X93460000Y-103800000D01*
X93410000Y-104650000D02*
G75*
G03X93410000Y-104650000I-100000J0D01*
G01*
X93960000Y-104900000D02*
X93460000Y-104900000D01*
X93960000Y-107800000D02*
X93960000Y-104900000D01*
X93460000Y-107800000D02*
X93960000Y-107800000D01*
X93460000Y-104900000D02*
X93460000Y-107800000D01*
X93410000Y-112650000D02*
G75*
G03X93410000Y-112650000I-100000J0D01*
G01*
X93960000Y-112900000D02*
X93460000Y-112900000D01*
X93960000Y-115800000D02*
X93960000Y-112900000D01*
X93460000Y-115800000D02*
X93960000Y-115800000D01*
X93460000Y-112900000D02*
X93460000Y-115800000D01*
X93410000Y-116650000D02*
G75*
G03X93410000Y-116650000I-100000J0D01*
G01*
X93960000Y-116900000D02*
X93460000Y-116900000D01*
X93960000Y-119800000D02*
X93960000Y-116900000D01*
X93460000Y-119800000D02*
X93960000Y-119800000D01*
X93460000Y-116900000D02*
X93460000Y-119800000D01*
X93410000Y-120650000D02*
G75*
G03X93410000Y-120650000I-100000J0D01*
G01*
X93960000Y-120900000D02*
X93460000Y-120900000D01*
X93960000Y-123800000D02*
X93960000Y-120900000D01*
X93460000Y-123800000D02*
X93960000Y-123800000D01*
X93460000Y-120900000D02*
X93460000Y-123800000D01*
D15*
X88000000Y-77000000D02*
X88000000Y-77300000D01*
X88000000Y-77000000D02*
X87200000Y-77000000D01*
X87200000Y-77000000D02*
X87200000Y-77300000D01*
X88000000Y-78400000D02*
X88000000Y-78700000D01*
X88000000Y-78700000D02*
X87200000Y-78700000D01*
X87200000Y-78700000D02*
X87200000Y-78400000D01*
X99160000Y-76800000D02*
X98860000Y-76800000D01*
X99160000Y-76800000D02*
X99160000Y-76000000D01*
X99160000Y-76000000D02*
X98860000Y-76000000D01*
X97760000Y-76800000D02*
X97460000Y-76800000D01*
X97460000Y-76800000D02*
X97460000Y-76000000D01*
X97460000Y-76000000D02*
X97760000Y-76000000D01*
X99160000Y-80800000D02*
X98860000Y-80800000D01*
X99160000Y-80800000D02*
X99160000Y-80000000D01*
X99160000Y-80000000D02*
X98860000Y-80000000D01*
X97760000Y-80800000D02*
X97460000Y-80800000D01*
X97460000Y-80800000D02*
X97460000Y-80000000D01*
X97460000Y-80000000D02*
X97760000Y-80000000D01*
X99160000Y-84800000D02*
X98860000Y-84800000D01*
X99160000Y-84800000D02*
X99160000Y-84000000D01*
X99160000Y-84000000D02*
X98860000Y-84000000D01*
X97760000Y-84800000D02*
X97460000Y-84800000D01*
X97460000Y-84800000D02*
X97460000Y-84000000D01*
X97460000Y-84000000D02*
X97760000Y-84000000D01*
X99160000Y-88800000D02*
X98860000Y-88800000D01*
X99160000Y-88800000D02*
X99160000Y-88000000D01*
X99160000Y-88000000D02*
X98860000Y-88000000D01*
X97760000Y-88800000D02*
X97460000Y-88800000D01*
X97460000Y-88800000D02*
X97460000Y-88000000D01*
X97460000Y-88000000D02*
X97760000Y-88000000D01*
X90000000Y-77000000D02*
X90000000Y-77300000D01*
X90000000Y-77000000D02*
X89200000Y-77000000D01*
X89200000Y-77000000D02*
X89200000Y-77300000D01*
X90000000Y-78400000D02*
X90000000Y-78700000D01*
X90000000Y-78700000D02*
X89200000Y-78700000D01*
X89200000Y-78700000D02*
X89200000Y-78400000D01*
X90000000Y-81000000D02*
X90000000Y-81300000D01*
X90000000Y-81000000D02*
X89200000Y-81000000D01*
X89200000Y-81000000D02*
X89200000Y-81300000D01*
X90000000Y-82400000D02*
X90000000Y-82700000D01*
X90000000Y-82700000D02*
X89200000Y-82700000D01*
X89200000Y-82700000D02*
X89200000Y-82400000D01*
X90000000Y-85000000D02*
X90000000Y-85300000D01*
X90000000Y-85000000D02*
X89200000Y-85000000D01*
X89200000Y-85000000D02*
X89200000Y-85300000D01*
X90000000Y-86400000D02*
X90000000Y-86700000D01*
X90000000Y-86700000D02*
X89200000Y-86700000D01*
X89200000Y-86700000D02*
X89200000Y-86400000D01*
X90000000Y-89000000D02*
X90000000Y-89300000D01*
X90000000Y-89000000D02*
X89200000Y-89000000D01*
X89200000Y-89000000D02*
X89200000Y-89300000D01*
X90000000Y-90400000D02*
X90000000Y-90700000D01*
X90000000Y-90700000D02*
X89200000Y-90700000D01*
X89200000Y-90700000D02*
X89200000Y-90400000D01*
X99160000Y-92800000D02*
X98860000Y-92800000D01*
X99160000Y-92800000D02*
X99160000Y-92000000D01*
X99160000Y-92000000D02*
X98860000Y-92000000D01*
X97760000Y-92800000D02*
X97460000Y-92800000D01*
X97460000Y-92800000D02*
X97460000Y-92000000D01*
X97460000Y-92000000D02*
X97760000Y-92000000D01*
X99160000Y-96800000D02*
X98860000Y-96800000D01*
X99160000Y-96800000D02*
X99160000Y-96000000D01*
X99160000Y-96000000D02*
X98860000Y-96000000D01*
X97760000Y-96800000D02*
X97460000Y-96800000D01*
X97460000Y-96800000D02*
X97460000Y-96000000D01*
X97460000Y-96000000D02*
X97760000Y-96000000D01*
X99160000Y-100800000D02*
X98860000Y-100800000D01*
X99160000Y-100800000D02*
X99160000Y-100000000D01*
X99160000Y-100000000D02*
X98860000Y-100000000D01*
X97760000Y-100800000D02*
X97460000Y-100800000D01*
X97460000Y-100800000D02*
X97460000Y-100000000D01*
X97460000Y-100000000D02*
X97760000Y-100000000D01*
X99160000Y-104800000D02*
X98860000Y-104800000D01*
X99160000Y-104800000D02*
X99160000Y-104000000D01*
X99160000Y-104000000D02*
X98860000Y-104000000D01*
X97760000Y-104800000D02*
X97460000Y-104800000D01*
X97460000Y-104800000D02*
X97460000Y-104000000D01*
X97460000Y-104000000D02*
X97760000Y-104000000D01*
X90000000Y-93000000D02*
X90000000Y-93300000D01*
X90000000Y-93000000D02*
X89200000Y-93000000D01*
X89200000Y-93000000D02*
X89200000Y-93300000D01*
X90000000Y-94400000D02*
X90000000Y-94700000D01*
X90000000Y-94700000D02*
X89200000Y-94700000D01*
X89200000Y-94700000D02*
X89200000Y-94400000D01*
X90000000Y-97000000D02*
X90000000Y-97300000D01*
X90000000Y-97000000D02*
X89200000Y-97000000D01*
X89200000Y-97000000D02*
X89200000Y-97300000D01*
X90000000Y-98400000D02*
X90000000Y-98700000D01*
X90000000Y-98700000D02*
X89200000Y-98700000D01*
X89200000Y-98700000D02*
X89200000Y-98400000D01*
X90000000Y-101000000D02*
X90000000Y-101300000D01*
X90000000Y-101000000D02*
X89200000Y-101000000D01*
X89200000Y-101000000D02*
X89200000Y-101300000D01*
X90000000Y-102400000D02*
X90000000Y-102700000D01*
X90000000Y-102700000D02*
X89200000Y-102700000D01*
X89200000Y-102700000D02*
X89200000Y-102400000D01*
X90000000Y-105000000D02*
X90000000Y-105300000D01*
X90000000Y-105000000D02*
X89200000Y-105000000D01*
X89200000Y-105000000D02*
X89200000Y-105300000D01*
X90000000Y-106400000D02*
X90000000Y-106700000D01*
X90000000Y-106700000D02*
X89200000Y-106700000D01*
X89200000Y-106700000D02*
X89200000Y-106400000D01*
X99160000Y-108800000D02*
X98860000Y-108800000D01*
X99160000Y-108800000D02*
X99160000Y-108000000D01*
X99160000Y-108000000D02*
X98860000Y-108000000D01*
X97760000Y-108800000D02*
X97460000Y-108800000D01*
X97460000Y-108800000D02*
X97460000Y-108000000D01*
X97460000Y-108000000D02*
X97760000Y-108000000D01*
X99160000Y-112800000D02*
X98860000Y-112800000D01*
X99160000Y-112800000D02*
X99160000Y-112000000D01*
X99160000Y-112000000D02*
X98860000Y-112000000D01*
X97760000Y-112800000D02*
X97460000Y-112800000D01*
X97460000Y-112800000D02*
X97460000Y-112000000D01*
X97460000Y-112000000D02*
X97760000Y-112000000D01*
X99160000Y-116800000D02*
X98860000Y-116800000D01*
X99160000Y-116800000D02*
X99160000Y-116000000D01*
X99160000Y-116000000D02*
X98860000Y-116000000D01*
X97760000Y-116800000D02*
X97460000Y-116800000D01*
X97460000Y-116800000D02*
X97460000Y-116000000D01*
X97460000Y-116000000D02*
X97760000Y-116000000D01*
X99160000Y-120800000D02*
X98860000Y-120800000D01*
X99160000Y-120800000D02*
X99160000Y-120000000D01*
X99160000Y-120000000D02*
X98860000Y-120000000D01*
X97760000Y-120800000D02*
X97460000Y-120800000D01*
X97460000Y-120800000D02*
X97460000Y-120000000D01*
X97460000Y-120000000D02*
X97760000Y-120000000D01*
X90000000Y-109000000D02*
X90000000Y-109300000D01*
X90000000Y-109000000D02*
X89200000Y-109000000D01*
X89200000Y-109000000D02*
X89200000Y-109300000D01*
X90000000Y-110400000D02*
X90000000Y-110700000D01*
X90000000Y-110700000D02*
X89200000Y-110700000D01*
X89200000Y-110700000D02*
X89200000Y-110400000D01*
X90000000Y-113000000D02*
X90000000Y-113300000D01*
X90000000Y-113000000D02*
X89200000Y-113000000D01*
X89200000Y-113000000D02*
X89200000Y-113300000D01*
X90000000Y-114400000D02*
X90000000Y-114700000D01*
X90000000Y-114700000D02*
X89200000Y-114700000D01*
X89200000Y-114700000D02*
X89200000Y-114400000D01*
X90000000Y-117000000D02*
X90000000Y-117300000D01*
X90000000Y-117000000D02*
X89200000Y-117000000D01*
X89200000Y-117000000D02*
X89200000Y-117300000D01*
X90000000Y-118400000D02*
X90000000Y-118700000D01*
X90000000Y-118700000D02*
X89200000Y-118700000D01*
X89200000Y-118700000D02*
X89200000Y-118400000D01*
X90000000Y-121000000D02*
X90000000Y-121300000D01*
X90000000Y-121000000D02*
X89200000Y-121000000D01*
X89200000Y-121000000D02*
X89200000Y-121300000D01*
X90000000Y-122400000D02*
X90000000Y-122700000D01*
X90000000Y-122700000D02*
X89200000Y-122700000D01*
X89200000Y-122700000D02*
X89200000Y-122400000D01*
X99160000Y-78800000D02*
X98860000Y-78800000D01*
X99160000Y-78800000D02*
X99160000Y-78000000D01*
X99160000Y-78000000D02*
X98860000Y-78000000D01*
X97760000Y-78800000D02*
X97460000Y-78800000D01*
X97460000Y-78800000D02*
X97460000Y-78000000D01*
X97460000Y-78000000D02*
X97760000Y-78000000D01*
X88000000Y-81000000D02*
X88000000Y-81300000D01*
X88000000Y-81000000D02*
X87200000Y-81000000D01*
X87200000Y-81000000D02*
X87200000Y-81300000D01*
X88000000Y-82400000D02*
X88000000Y-82700000D01*
X88000000Y-82700000D02*
X87200000Y-82700000D01*
X87200000Y-82700000D02*
X87200000Y-82400000D01*
X99160000Y-82800000D02*
X98860000Y-82800000D01*
X99160000Y-82800000D02*
X99160000Y-82000000D01*
X99160000Y-82000000D02*
X98860000Y-82000000D01*
X97760000Y-82800000D02*
X97460000Y-82800000D01*
X97460000Y-82800000D02*
X97460000Y-82000000D01*
X97460000Y-82000000D02*
X97760000Y-82000000D01*
X88050000Y-85000000D02*
X88050000Y-85300000D01*
X88050000Y-85000000D02*
X87250000Y-85000000D01*
X87250000Y-85000000D02*
X87250000Y-85300000D01*
X88050000Y-86400000D02*
X88050000Y-86700000D01*
X88050000Y-86700000D02*
X87250000Y-86700000D01*
X87250000Y-86700000D02*
X87250000Y-86400000D01*
X99160000Y-86800000D02*
X98860000Y-86800000D01*
X99160000Y-86800000D02*
X99160000Y-86000000D01*
X99160000Y-86000000D02*
X98860000Y-86000000D01*
X97760000Y-86800000D02*
X97460000Y-86800000D01*
X97460000Y-86800000D02*
X97460000Y-86000000D01*
X97460000Y-86000000D02*
X97760000Y-86000000D01*
X88000000Y-89000000D02*
X88000000Y-89300000D01*
X88000000Y-89000000D02*
X87200000Y-89000000D01*
X87200000Y-89000000D02*
X87200000Y-89300000D01*
X88000000Y-90400000D02*
X88000000Y-90700000D01*
X88000000Y-90700000D02*
X87200000Y-90700000D01*
X87200000Y-90700000D02*
X87200000Y-90400000D01*
X99160000Y-90800000D02*
X98860000Y-90800000D01*
X99160000Y-90800000D02*
X99160000Y-90000000D01*
X99160000Y-90000000D02*
X98860000Y-90000000D01*
X97760000Y-90800000D02*
X97460000Y-90800000D01*
X97460000Y-90800000D02*
X97460000Y-90000000D01*
X97460000Y-90000000D02*
X97760000Y-90000000D01*
X88000000Y-93000000D02*
X88000000Y-93300000D01*
X88000000Y-93000000D02*
X87200000Y-93000000D01*
X87200000Y-93000000D02*
X87200000Y-93300000D01*
X88000000Y-94400000D02*
X88000000Y-94700000D01*
X88000000Y-94700000D02*
X87200000Y-94700000D01*
X87200000Y-94700000D02*
X87200000Y-94400000D01*
X99160000Y-94800000D02*
X98860000Y-94800000D01*
X99160000Y-94800000D02*
X99160000Y-94000000D01*
X99160000Y-94000000D02*
X98860000Y-94000000D01*
X97760000Y-94800000D02*
X97460000Y-94800000D01*
X97460000Y-94800000D02*
X97460000Y-94000000D01*
X97460000Y-94000000D02*
X97760000Y-94000000D01*
X88000000Y-97000000D02*
X88000000Y-97300000D01*
X88000000Y-97000000D02*
X87200000Y-97000000D01*
X87200000Y-97000000D02*
X87200000Y-97300000D01*
X88000000Y-98400000D02*
X88000000Y-98700000D01*
X88000000Y-98700000D02*
X87200000Y-98700000D01*
X87200000Y-98700000D02*
X87200000Y-98400000D01*
X99160000Y-98800000D02*
X98860000Y-98800000D01*
X99160000Y-98800000D02*
X99160000Y-98000000D01*
X99160000Y-98000000D02*
X98860000Y-98000000D01*
X97760000Y-98800000D02*
X97460000Y-98800000D01*
X97460000Y-98800000D02*
X97460000Y-98000000D01*
X97460000Y-98000000D02*
X97760000Y-98000000D01*
X88000000Y-101000000D02*
X88000000Y-101300000D01*
X88000000Y-101000000D02*
X87200000Y-101000000D01*
X87200000Y-101000000D02*
X87200000Y-101300000D01*
X88000000Y-102400000D02*
X88000000Y-102700000D01*
X88000000Y-102700000D02*
X87200000Y-102700000D01*
X87200000Y-102700000D02*
X87200000Y-102400000D01*
X99160000Y-102800000D02*
X98860000Y-102800000D01*
X99160000Y-102800000D02*
X99160000Y-102000000D01*
X99160000Y-102000000D02*
X98860000Y-102000000D01*
X97760000Y-102800000D02*
X97460000Y-102800000D01*
X97460000Y-102800000D02*
X97460000Y-102000000D01*
X97460000Y-102000000D02*
X97760000Y-102000000D01*
X88000000Y-105000000D02*
X88000000Y-105300000D01*
X88000000Y-105000000D02*
X87200000Y-105000000D01*
X87200000Y-105000000D02*
X87200000Y-105300000D01*
X88000000Y-106400000D02*
X88000000Y-106700000D01*
X88000000Y-106700000D02*
X87200000Y-106700000D01*
X87200000Y-106700000D02*
X87200000Y-106400000D01*
X99160000Y-106800000D02*
X98860000Y-106800000D01*
X99160000Y-106800000D02*
X99160000Y-106000000D01*
X99160000Y-106000000D02*
X98860000Y-106000000D01*
X97760000Y-106800000D02*
X97460000Y-106800000D01*
X97460000Y-106800000D02*
X97460000Y-106000000D01*
X97460000Y-106000000D02*
X97760000Y-106000000D01*
X88000000Y-109000000D02*
X88000000Y-109300000D01*
X88000000Y-109000000D02*
X87200000Y-109000000D01*
X87200000Y-109000000D02*
X87200000Y-109300000D01*
X88000000Y-110400000D02*
X88000000Y-110700000D01*
X88000000Y-110700000D02*
X87200000Y-110700000D01*
X87200000Y-110700000D02*
X87200000Y-110400000D01*
X99160000Y-110800000D02*
X98860000Y-110800000D01*
X99160000Y-110800000D02*
X99160000Y-110000000D01*
X99160000Y-110000000D02*
X98860000Y-110000000D01*
X97760000Y-110800000D02*
X97460000Y-110800000D01*
X97460000Y-110800000D02*
X97460000Y-110000000D01*
X97460000Y-110000000D02*
X97760000Y-110000000D01*
X88000000Y-113000000D02*
X88000000Y-113300000D01*
X88000000Y-113000000D02*
X87200000Y-113000000D01*
X87200000Y-113000000D02*
X87200000Y-113300000D01*
X88000000Y-114400000D02*
X88000000Y-114700000D01*
X88000000Y-114700000D02*
X87200000Y-114700000D01*
X87200000Y-114700000D02*
X87200000Y-114400000D01*
X99160000Y-114800000D02*
X98860000Y-114800000D01*
X99160000Y-114800000D02*
X99160000Y-114000000D01*
X99160000Y-114000000D02*
X98860000Y-114000000D01*
X97760000Y-114800000D02*
X97460000Y-114800000D01*
X97460000Y-114800000D02*
X97460000Y-114000000D01*
X97460000Y-114000000D02*
X97760000Y-114000000D01*
X88000000Y-117000000D02*
X88000000Y-117300000D01*
X88000000Y-117000000D02*
X87200000Y-117000000D01*
X87200000Y-117000000D02*
X87200000Y-117300000D01*
X88000000Y-118400000D02*
X88000000Y-118700000D01*
X88000000Y-118700000D02*
X87200000Y-118700000D01*
X87200000Y-118700000D02*
X87200000Y-118400000D01*
X99160000Y-118800000D02*
X98860000Y-118800000D01*
X99160000Y-118800000D02*
X99160000Y-118000000D01*
X99160000Y-118000000D02*
X98860000Y-118000000D01*
X97760000Y-118800000D02*
X97460000Y-118800000D01*
X97460000Y-118800000D02*
X97460000Y-118000000D01*
X97460000Y-118000000D02*
X97760000Y-118000000D01*
X88000000Y-121000000D02*
X88000000Y-121300000D01*
X88000000Y-121000000D02*
X87200000Y-121000000D01*
X87200000Y-121000000D02*
X87200000Y-121300000D01*
X88000000Y-122400000D02*
X88000000Y-122700000D01*
X88000000Y-122700000D02*
X87200000Y-122700000D01*
X87200000Y-122700000D02*
X87200000Y-122400000D01*
X99160000Y-122800000D02*
X98860000Y-122800000D01*
X99160000Y-122800000D02*
X99160000Y-122000000D01*
X99160000Y-122000000D02*
X98860000Y-122000000D01*
X97760000Y-122800000D02*
X97460000Y-122800000D01*
X97460000Y-122800000D02*
X97460000Y-122000000D01*
X97460000Y-122000000D02*
X97760000Y-122000000D01*
D14*
X110870000Y-80570000D02*
X110870000Y-75490000D01*
X110870000Y-75490000D02*
X108330000Y-75490000D01*
X108330000Y-75490000D02*
X108330000Y-80570000D01*
X108330000Y-80570000D02*
X110870000Y-80570000D01*
D13*
X68830953Y-114426190D02*
X68830953Y-113926190D01*
X69021429Y-113926190D01*
X69069048Y-113950000D01*
X69092857Y-113973810D01*
X69116667Y-114021429D01*
X69116667Y-114092857D01*
X69092857Y-114140476D01*
X69069048Y-114164286D01*
X69021429Y-114188095D01*
X68830953Y-114188095D01*
X69307143Y-113973810D02*
X69330953Y-113950000D01*
X69378572Y-113926190D01*
X69497619Y-113926190D01*
X69545238Y-113950000D01*
X69569048Y-113973810D01*
X69592857Y-114021429D01*
X69592857Y-114069048D01*
X69569048Y-114140476D01*
X69283334Y-114426190D01*
X69592857Y-114426190D01*
X100180953Y-125776190D02*
X100180953Y-125276190D01*
X100371429Y-125276190D01*
X100419048Y-125300000D01*
X100442857Y-125323810D01*
X100466667Y-125371429D01*
X100466667Y-125442857D01*
X100442857Y-125490476D01*
X100419048Y-125514286D01*
X100371429Y-125538095D01*
X100180953Y-125538095D01*
X100752381Y-125490476D02*
X100704762Y-125466667D01*
X100680953Y-125442857D01*
X100657143Y-125395238D01*
X100657143Y-125371429D01*
X100680953Y-125323810D01*
X100704762Y-125300000D01*
X100752381Y-125276190D01*
X100847619Y-125276190D01*
X100895238Y-125300000D01*
X100919048Y-125323810D01*
X100942857Y-125371429D01*
X100942857Y-125395238D01*
X100919048Y-125442857D01*
X100895238Y-125466667D01*
X100847619Y-125490476D01*
X100752381Y-125490476D01*
X100704762Y-125514286D01*
X100680953Y-125538095D01*
X100657143Y-125585714D01*
X100657143Y-125680952D01*
X100680953Y-125728571D01*
X100704762Y-125752381D01*
X100752381Y-125776190D01*
X100847619Y-125776190D01*
X100895238Y-125752381D01*
X100919048Y-125728571D01*
X100942857Y-125680952D01*
X100942857Y-125585714D01*
X100919048Y-125538095D01*
X100895238Y-125514286D01*
X100847619Y-125490476D01*
D14*
X94466667Y-108016667D02*
X94466667Y-108583333D01*
X94500000Y-108650000D01*
X94533333Y-108683333D01*
X94600000Y-108716667D01*
X94733333Y-108716667D01*
X94800000Y-108683333D01*
X94833333Y-108650000D01*
X94866667Y-108583333D01*
X94866667Y-108016667D01*
X95233333Y-108716667D02*
X95366666Y-108716667D01*
X95433333Y-108683333D01*
X95466666Y-108650000D01*
X95533333Y-108550000D01*
X95566666Y-108416667D01*
X95566666Y-108150000D01*
X95533333Y-108083333D01*
X95500000Y-108050000D01*
X95433333Y-108016667D01*
X95300000Y-108016667D01*
X95233333Y-108050000D01*
X95200000Y-108083333D01*
X95166666Y-108150000D01*
X95166666Y-108316667D01*
X95200000Y-108383333D01*
X95233333Y-108416667D01*
X95300000Y-108450000D01*
X95433333Y-108450000D01*
X95500000Y-108416667D01*
X95533333Y-108383333D01*
X95566666Y-108316667D01*
X115461905Y-80652381D02*
X115461905Y-79652381D01*
X115842858Y-79652381D01*
X115938096Y-79700000D01*
X115985715Y-79747619D01*
X116033334Y-79842857D01*
X116033334Y-79985714D01*
X115985715Y-80080952D01*
X115938096Y-80128571D01*
X115842858Y-80176190D01*
X115461905Y-80176190D01*
X116890477Y-79652381D02*
X116700000Y-79652381D01*
X116604762Y-79700000D01*
X116557143Y-79747619D01*
X116461905Y-79890476D01*
X116414286Y-80080952D01*
X116414286Y-80461905D01*
X116461905Y-80557143D01*
X116509524Y-80604762D01*
X116604762Y-80652381D01*
X116795239Y-80652381D01*
X116890477Y-80604762D01*
X116938096Y-80557143D01*
X116985715Y-80461905D01*
X116985715Y-80223810D01*
X116938096Y-80128571D01*
X116890477Y-80080952D01*
X116795239Y-80033333D01*
X116604762Y-80033333D01*
X116509524Y-80080952D01*
X116461905Y-80128571D01*
X116414286Y-80223810D01*
D13*
X62880953Y-131526190D02*
X62880953Y-131026190D01*
X63071429Y-131026190D01*
X63119048Y-131050000D01*
X63142857Y-131073810D01*
X63166667Y-131121429D01*
X63166667Y-131192857D01*
X63142857Y-131240476D01*
X63119048Y-131264286D01*
X63071429Y-131288095D01*
X62880953Y-131288095D01*
X63642857Y-131526190D02*
X63357143Y-131526190D01*
X63500000Y-131526190D02*
X63500000Y-131026190D01*
X63452381Y-131097619D01*
X63404762Y-131145238D01*
X63357143Y-131169048D01*
X68830953Y-98126190D02*
X68830953Y-97626190D01*
X69021429Y-97626190D01*
X69069048Y-97650000D01*
X69092857Y-97673810D01*
X69116667Y-97721429D01*
X69116667Y-97792857D01*
X69092857Y-97840476D01*
X69069048Y-97864286D01*
X69021429Y-97888095D01*
X68830953Y-97888095D01*
X69283334Y-97626190D02*
X69592857Y-97626190D01*
X69426191Y-97816667D01*
X69497619Y-97816667D01*
X69545238Y-97840476D01*
X69569048Y-97864286D01*
X69592857Y-97911905D01*
X69592857Y-98030952D01*
X69569048Y-98078571D01*
X69545238Y-98102381D01*
X69497619Y-98126190D01*
X69354762Y-98126190D01*
X69307143Y-98102381D01*
X69283334Y-98078571D01*
X86330953Y-80026190D02*
X86330953Y-79526190D01*
X86521429Y-79526190D01*
X86569048Y-79550000D01*
X86592857Y-79573810D01*
X86616667Y-79621429D01*
X86616667Y-79692857D01*
X86592857Y-79740476D01*
X86569048Y-79764286D01*
X86521429Y-79788095D01*
X86330953Y-79788095D01*
X87045238Y-79692857D02*
X87045238Y-80026190D01*
X86926191Y-79502381D02*
X86807143Y-79859524D01*
X87116667Y-79859524D01*
X100730953Y-80526190D02*
X100730953Y-80026190D01*
X100921429Y-80026190D01*
X100969048Y-80050000D01*
X100992857Y-80073810D01*
X101016667Y-80121429D01*
X101016667Y-80192857D01*
X100992857Y-80240476D01*
X100969048Y-80264286D01*
X100921429Y-80288095D01*
X100730953Y-80288095D01*
X101469048Y-80026190D02*
X101230953Y-80026190D01*
X101207143Y-80264286D01*
X101230953Y-80240476D01*
X101278572Y-80216667D01*
X101397619Y-80216667D01*
X101445238Y-80240476D01*
X101469048Y-80264286D01*
X101492857Y-80311905D01*
X101492857Y-80430952D01*
X101469048Y-80478571D01*
X101445238Y-80502381D01*
X101397619Y-80526190D01*
X101278572Y-80526190D01*
X101230953Y-80502381D01*
X101207143Y-80478571D01*
X69380953Y-132926190D02*
X69380953Y-132426190D01*
X69571429Y-132426190D01*
X69619048Y-132450000D01*
X69642857Y-132473810D01*
X69666667Y-132521429D01*
X69666667Y-132592857D01*
X69642857Y-132640476D01*
X69619048Y-132664286D01*
X69571429Y-132688095D01*
X69380953Y-132688095D01*
X69833334Y-132426190D02*
X70166667Y-132426190D01*
X69952381Y-132926190D01*
D14*
X94466667Y-76016667D02*
X94466667Y-76583333D01*
X94500000Y-76650000D01*
X94533333Y-76683333D01*
X94600000Y-76716667D01*
X94733333Y-76716667D01*
X94800000Y-76683333D01*
X94833333Y-76650000D01*
X94866667Y-76583333D01*
X94866667Y-76016667D01*
X95566666Y-76716667D02*
X95166666Y-76716667D01*
X95366666Y-76716667D02*
X95366666Y-76016667D01*
X95300000Y-76116667D01*
X95233333Y-76183333D01*
X95166666Y-76216667D01*
X94466667Y-80016667D02*
X94466667Y-80583333D01*
X94500000Y-80650000D01*
X94533333Y-80683333D01*
X94600000Y-80716667D01*
X94733333Y-80716667D01*
X94800000Y-80683333D01*
X94833333Y-80650000D01*
X94866667Y-80583333D01*
X94866667Y-80016667D01*
X95166666Y-80083333D02*
X95200000Y-80050000D01*
X95266666Y-80016667D01*
X95433333Y-80016667D01*
X95500000Y-80050000D01*
X95533333Y-80083333D01*
X95566666Y-80150000D01*
X95566666Y-80216667D01*
X95533333Y-80316667D01*
X95133333Y-80716667D01*
X95566666Y-80716667D01*
X94466667Y-84016667D02*
X94466667Y-84583333D01*
X94500000Y-84650000D01*
X94533333Y-84683333D01*
X94600000Y-84716667D01*
X94733333Y-84716667D01*
X94800000Y-84683333D01*
X94833333Y-84650000D01*
X94866667Y-84583333D01*
X94866667Y-84016667D01*
X95133333Y-84016667D02*
X95566666Y-84016667D01*
X95333333Y-84283333D01*
X95433333Y-84283333D01*
X95500000Y-84316667D01*
X95533333Y-84350000D01*
X95566666Y-84416667D01*
X95566666Y-84583333D01*
X95533333Y-84650000D01*
X95500000Y-84683333D01*
X95433333Y-84716667D01*
X95233333Y-84716667D01*
X95166666Y-84683333D01*
X95133333Y-84650000D01*
X94466667Y-88016667D02*
X94466667Y-88583333D01*
X94500000Y-88650000D01*
X94533333Y-88683333D01*
X94600000Y-88716667D01*
X94733333Y-88716667D01*
X94800000Y-88683333D01*
X94833333Y-88650000D01*
X94866667Y-88583333D01*
X94866667Y-88016667D01*
X95500000Y-88250000D02*
X95500000Y-88716667D01*
X95333333Y-87983333D02*
X95166666Y-88483333D01*
X95600000Y-88483333D01*
X94466667Y-92016667D02*
X94466667Y-92583333D01*
X94500000Y-92650000D01*
X94533333Y-92683333D01*
X94600000Y-92716667D01*
X94733333Y-92716667D01*
X94800000Y-92683333D01*
X94833333Y-92650000D01*
X94866667Y-92583333D01*
X94866667Y-92016667D01*
X95533333Y-92016667D02*
X95200000Y-92016667D01*
X95166666Y-92350000D01*
X95200000Y-92316667D01*
X95266666Y-92283333D01*
X95433333Y-92283333D01*
X95500000Y-92316667D01*
X95533333Y-92350000D01*
X95566666Y-92416667D01*
X95566666Y-92583333D01*
X95533333Y-92650000D01*
X95500000Y-92683333D01*
X95433333Y-92716667D01*
X95266666Y-92716667D01*
X95200000Y-92683333D01*
X95166666Y-92650000D01*
X94466667Y-96016667D02*
X94466667Y-96583333D01*
X94500000Y-96650000D01*
X94533333Y-96683333D01*
X94600000Y-96716667D01*
X94733333Y-96716667D01*
X94800000Y-96683333D01*
X94833333Y-96650000D01*
X94866667Y-96583333D01*
X94866667Y-96016667D01*
X95500000Y-96016667D02*
X95366666Y-96016667D01*
X95300000Y-96050000D01*
X95266666Y-96083333D01*
X95200000Y-96183333D01*
X95166666Y-96316667D01*
X95166666Y-96583333D01*
X95200000Y-96650000D01*
X95233333Y-96683333D01*
X95300000Y-96716667D01*
X95433333Y-96716667D01*
X95500000Y-96683333D01*
X95533333Y-96650000D01*
X95566666Y-96583333D01*
X95566666Y-96416667D01*
X95533333Y-96350000D01*
X95500000Y-96316667D01*
X95433333Y-96283333D01*
X95300000Y-96283333D01*
X95233333Y-96316667D01*
X95200000Y-96350000D01*
X95166666Y-96416667D01*
X94466667Y-100016667D02*
X94466667Y-100583333D01*
X94500000Y-100650000D01*
X94533333Y-100683333D01*
X94600000Y-100716667D01*
X94733333Y-100716667D01*
X94800000Y-100683333D01*
X94833333Y-100650000D01*
X94866667Y-100583333D01*
X94866667Y-100016667D01*
X95133333Y-100016667D02*
X95600000Y-100016667D01*
X95300000Y-100716667D01*
X94466667Y-104016667D02*
X94466667Y-104583333D01*
X94500000Y-104650000D01*
X94533333Y-104683333D01*
X94600000Y-104716667D01*
X94733333Y-104716667D01*
X94800000Y-104683333D01*
X94833333Y-104650000D01*
X94866667Y-104583333D01*
X94866667Y-104016667D01*
X95300000Y-104316667D02*
X95233333Y-104283333D01*
X95200000Y-104250000D01*
X95166666Y-104183333D01*
X95166666Y-104150000D01*
X95200000Y-104083333D01*
X95233333Y-104050000D01*
X95300000Y-104016667D01*
X95433333Y-104016667D01*
X95500000Y-104050000D01*
X95533333Y-104083333D01*
X95566666Y-104150000D01*
X95566666Y-104183333D01*
X95533333Y-104250000D01*
X95500000Y-104283333D01*
X95433333Y-104316667D01*
X95300000Y-104316667D01*
X95233333Y-104350000D01*
X95200000Y-104383333D01*
X95166666Y-104450000D01*
X95166666Y-104583333D01*
X95200000Y-104650000D01*
X95233333Y-104683333D01*
X95300000Y-104716667D01*
X95433333Y-104716667D01*
X95500000Y-104683333D01*
X95533333Y-104650000D01*
X95566666Y-104583333D01*
X95566666Y-104450000D01*
X95533333Y-104383333D01*
X95500000Y-104350000D01*
X95433333Y-104316667D01*
X93833334Y-112016667D02*
X93833334Y-112583333D01*
X93866667Y-112650000D01*
X93900000Y-112683333D01*
X93966667Y-112716667D01*
X94100000Y-112716667D01*
X94166667Y-112683333D01*
X94200000Y-112650000D01*
X94233334Y-112583333D01*
X94233334Y-112016667D01*
X94933333Y-112716667D02*
X94533333Y-112716667D01*
X94733333Y-112716667D02*
X94733333Y-112016667D01*
X94666667Y-112116667D01*
X94600000Y-112183333D01*
X94533333Y-112216667D01*
X95366667Y-112016667D02*
X95433334Y-112016667D01*
X95500000Y-112050000D01*
X95533334Y-112083333D01*
X95566667Y-112150000D01*
X95600000Y-112283333D01*
X95600000Y-112450000D01*
X95566667Y-112583333D01*
X95533334Y-112650000D01*
X95500000Y-112683333D01*
X95433334Y-112716667D01*
X95366667Y-112716667D01*
X95300000Y-112683333D01*
X95266667Y-112650000D01*
X95233334Y-112583333D01*
X95200000Y-112450000D01*
X95200000Y-112283333D01*
X95233334Y-112150000D01*
X95266667Y-112083333D01*
X95300000Y-112050000D01*
X95366667Y-112016667D01*
X93833334Y-116016667D02*
X93833334Y-116583333D01*
X93866667Y-116650000D01*
X93900000Y-116683333D01*
X93966667Y-116716667D01*
X94100000Y-116716667D01*
X94166667Y-116683333D01*
X94200000Y-116650000D01*
X94233334Y-116583333D01*
X94233334Y-116016667D01*
X94933333Y-116716667D02*
X94533333Y-116716667D01*
X94733333Y-116716667D02*
X94733333Y-116016667D01*
X94666667Y-116116667D01*
X94600000Y-116183333D01*
X94533333Y-116216667D01*
X95600000Y-116716667D02*
X95200000Y-116716667D01*
X95400000Y-116716667D02*
X95400000Y-116016667D01*
X95333334Y-116116667D01*
X95266667Y-116183333D01*
X95200000Y-116216667D01*
X93833334Y-120016667D02*
X93833334Y-120583333D01*
X93866667Y-120650000D01*
X93900000Y-120683333D01*
X93966667Y-120716667D01*
X94100000Y-120716667D01*
X94166667Y-120683333D01*
X94200000Y-120650000D01*
X94233334Y-120583333D01*
X94233334Y-120016667D01*
X94933333Y-120716667D02*
X94533333Y-120716667D01*
X94733333Y-120716667D02*
X94733333Y-120016667D01*
X94666667Y-120116667D01*
X94600000Y-120183333D01*
X94533333Y-120216667D01*
X95200000Y-120083333D02*
X95233334Y-120050000D01*
X95300000Y-120016667D01*
X95466667Y-120016667D01*
X95533334Y-120050000D01*
X95566667Y-120083333D01*
X95600000Y-120150000D01*
X95600000Y-120216667D01*
X95566667Y-120316667D01*
X95166667Y-120716667D01*
X95600000Y-120716667D01*
D16*
X86966667Y-77966666D02*
X86633333Y-78200000D01*
X86966667Y-78366666D02*
X86266667Y-78366666D01*
X86266667Y-78100000D01*
X86300000Y-78033333D01*
X86333333Y-78000000D01*
X86400000Y-77966666D01*
X86500000Y-77966666D01*
X86566667Y-78000000D01*
X86600000Y-78033333D01*
X86633333Y-78100000D01*
X86633333Y-78366666D01*
X86966667Y-77300000D02*
X86966667Y-77700000D01*
X86966667Y-77500000D02*
X86266667Y-77500000D01*
X86366667Y-77566666D01*
X86433333Y-77633333D01*
X86466667Y-77700000D01*
X98183334Y-75700000D02*
X98150000Y-75733333D01*
X98050000Y-75766667D01*
X97983334Y-75766667D01*
X97883334Y-75733333D01*
X97816667Y-75666667D01*
X97783334Y-75600000D01*
X97750000Y-75466667D01*
X97750000Y-75366667D01*
X97783334Y-75233333D01*
X97816667Y-75166667D01*
X97883334Y-75100000D01*
X97983334Y-75066667D01*
X98050000Y-75066667D01*
X98150000Y-75100000D01*
X98183334Y-75133333D01*
X98850000Y-75766667D02*
X98450000Y-75766667D01*
X98650000Y-75766667D02*
X98650000Y-75066667D01*
X98583334Y-75166667D01*
X98516667Y-75233333D01*
X98450000Y-75266667D01*
X98183334Y-79700000D02*
X98150000Y-79733333D01*
X98050000Y-79766667D01*
X97983334Y-79766667D01*
X97883334Y-79733333D01*
X97816667Y-79666667D01*
X97783334Y-79600000D01*
X97750000Y-79466667D01*
X97750000Y-79366667D01*
X97783334Y-79233333D01*
X97816667Y-79166667D01*
X97883334Y-79100000D01*
X97983334Y-79066667D01*
X98050000Y-79066667D01*
X98150000Y-79100000D01*
X98183334Y-79133333D01*
X98450000Y-79133333D02*
X98483334Y-79100000D01*
X98550000Y-79066667D01*
X98716667Y-79066667D01*
X98783334Y-79100000D01*
X98816667Y-79133333D01*
X98850000Y-79200000D01*
X98850000Y-79266667D01*
X98816667Y-79366667D01*
X98416667Y-79766667D01*
X98850000Y-79766667D01*
X98183334Y-83700000D02*
X98150000Y-83733333D01*
X98050000Y-83766667D01*
X97983334Y-83766667D01*
X97883334Y-83733333D01*
X97816667Y-83666667D01*
X97783334Y-83600000D01*
X97750000Y-83466667D01*
X97750000Y-83366667D01*
X97783334Y-83233333D01*
X97816667Y-83166667D01*
X97883334Y-83100000D01*
X97983334Y-83066667D01*
X98050000Y-83066667D01*
X98150000Y-83100000D01*
X98183334Y-83133333D01*
X98416667Y-83066667D02*
X98850000Y-83066667D01*
X98616667Y-83333333D01*
X98716667Y-83333333D01*
X98783334Y-83366667D01*
X98816667Y-83400000D01*
X98850000Y-83466667D01*
X98850000Y-83633333D01*
X98816667Y-83700000D01*
X98783334Y-83733333D01*
X98716667Y-83766667D01*
X98516667Y-83766667D01*
X98450000Y-83733333D01*
X98416667Y-83700000D01*
X98183334Y-87700000D02*
X98150000Y-87733333D01*
X98050000Y-87766667D01*
X97983334Y-87766667D01*
X97883334Y-87733333D01*
X97816667Y-87666667D01*
X97783334Y-87600000D01*
X97750000Y-87466667D01*
X97750000Y-87366667D01*
X97783334Y-87233333D01*
X97816667Y-87166667D01*
X97883334Y-87100000D01*
X97983334Y-87066667D01*
X98050000Y-87066667D01*
X98150000Y-87100000D01*
X98183334Y-87133333D01*
X98783334Y-87300000D02*
X98783334Y-87766667D01*
X98616667Y-87033333D02*
X98450000Y-87533333D01*
X98883334Y-87533333D01*
X88900000Y-77966666D02*
X88933333Y-78000000D01*
X88966667Y-78100000D01*
X88966667Y-78166666D01*
X88933333Y-78266666D01*
X88866667Y-78333333D01*
X88800000Y-78366666D01*
X88666667Y-78400000D01*
X88566667Y-78400000D01*
X88433333Y-78366666D01*
X88366667Y-78333333D01*
X88300000Y-78266666D01*
X88266667Y-78166666D01*
X88266667Y-78100000D01*
X88300000Y-78000000D01*
X88333333Y-77966666D01*
X88266667Y-77333333D02*
X88266667Y-77666666D01*
X88600000Y-77700000D01*
X88566667Y-77666666D01*
X88533333Y-77600000D01*
X88533333Y-77433333D01*
X88566667Y-77366666D01*
X88600000Y-77333333D01*
X88666667Y-77300000D01*
X88833333Y-77300000D01*
X88900000Y-77333333D01*
X88933333Y-77366666D01*
X88966667Y-77433333D01*
X88966667Y-77600000D01*
X88933333Y-77666666D01*
X88900000Y-77700000D01*
X88850000Y-81966666D02*
X88883333Y-82000000D01*
X88916667Y-82100000D01*
X88916667Y-82166666D01*
X88883333Y-82266666D01*
X88816667Y-82333333D01*
X88750000Y-82366666D01*
X88616667Y-82400000D01*
X88516667Y-82400000D01*
X88383333Y-82366666D01*
X88316667Y-82333333D01*
X88250000Y-82266666D01*
X88216667Y-82166666D01*
X88216667Y-82100000D01*
X88250000Y-82000000D01*
X88283333Y-81966666D01*
X88216667Y-81366666D02*
X88216667Y-81500000D01*
X88250000Y-81566666D01*
X88283333Y-81600000D01*
X88383333Y-81666666D01*
X88516667Y-81700000D01*
X88783333Y-81700000D01*
X88850000Y-81666666D01*
X88883333Y-81633333D01*
X88916667Y-81566666D01*
X88916667Y-81433333D01*
X88883333Y-81366666D01*
X88850000Y-81333333D01*
X88783333Y-81300000D01*
X88616667Y-81300000D01*
X88550000Y-81333333D01*
X88516667Y-81366666D01*
X88483333Y-81433333D01*
X88483333Y-81566666D01*
X88516667Y-81633333D01*
X88550000Y-81666666D01*
X88616667Y-81700000D01*
X88900000Y-85966666D02*
X88933333Y-86000000D01*
X88966667Y-86100000D01*
X88966667Y-86166666D01*
X88933333Y-86266666D01*
X88866667Y-86333333D01*
X88800000Y-86366666D01*
X88666667Y-86400000D01*
X88566667Y-86400000D01*
X88433333Y-86366666D01*
X88366667Y-86333333D01*
X88300000Y-86266666D01*
X88266667Y-86166666D01*
X88266667Y-86100000D01*
X88300000Y-86000000D01*
X88333333Y-85966666D01*
X88266667Y-85733333D02*
X88266667Y-85266666D01*
X88966667Y-85566666D01*
X88900000Y-89966666D02*
X88933333Y-90000000D01*
X88966667Y-90100000D01*
X88966667Y-90166666D01*
X88933333Y-90266666D01*
X88866667Y-90333333D01*
X88800000Y-90366666D01*
X88666667Y-90400000D01*
X88566667Y-90400000D01*
X88433333Y-90366666D01*
X88366667Y-90333333D01*
X88300000Y-90266666D01*
X88266667Y-90166666D01*
X88266667Y-90100000D01*
X88300000Y-90000000D01*
X88333333Y-89966666D01*
X88566667Y-89566666D02*
X88533333Y-89633333D01*
X88500000Y-89666666D01*
X88433333Y-89700000D01*
X88400000Y-89700000D01*
X88333333Y-89666666D01*
X88300000Y-89633333D01*
X88266667Y-89566666D01*
X88266667Y-89433333D01*
X88300000Y-89366666D01*
X88333333Y-89333333D01*
X88400000Y-89300000D01*
X88433333Y-89300000D01*
X88500000Y-89333333D01*
X88533333Y-89366666D01*
X88566667Y-89433333D01*
X88566667Y-89566666D01*
X88600000Y-89633333D01*
X88633333Y-89666666D01*
X88700000Y-89700000D01*
X88833333Y-89700000D01*
X88900000Y-89666666D01*
X88933333Y-89633333D01*
X88966667Y-89566666D01*
X88966667Y-89433333D01*
X88933333Y-89366666D01*
X88900000Y-89333333D01*
X88833333Y-89300000D01*
X88700000Y-89300000D01*
X88633333Y-89333333D01*
X88600000Y-89366666D01*
X88566667Y-89433333D01*
X98183334Y-91700000D02*
X98150000Y-91733333D01*
X98050000Y-91766667D01*
X97983334Y-91766667D01*
X97883334Y-91733333D01*
X97816667Y-91666667D01*
X97783334Y-91600000D01*
X97750000Y-91466667D01*
X97750000Y-91366667D01*
X97783334Y-91233333D01*
X97816667Y-91166667D01*
X97883334Y-91100000D01*
X97983334Y-91066667D01*
X98050000Y-91066667D01*
X98150000Y-91100000D01*
X98183334Y-91133333D01*
X98516667Y-91766667D02*
X98650000Y-91766667D01*
X98716667Y-91733333D01*
X98750000Y-91700000D01*
X98816667Y-91600000D01*
X98850000Y-91466667D01*
X98850000Y-91200000D01*
X98816667Y-91133333D01*
X98783334Y-91100000D01*
X98716667Y-91066667D01*
X98583334Y-91066667D01*
X98516667Y-91100000D01*
X98483334Y-91133333D01*
X98450000Y-91200000D01*
X98450000Y-91366667D01*
X98483334Y-91433333D01*
X98516667Y-91466667D01*
X98583334Y-91500000D01*
X98716667Y-91500000D01*
X98783334Y-91466667D01*
X98816667Y-91433333D01*
X98850000Y-91366667D01*
X97850000Y-95700000D02*
X97816666Y-95733333D01*
X97716666Y-95766667D01*
X97650000Y-95766667D01*
X97550000Y-95733333D01*
X97483333Y-95666667D01*
X97450000Y-95600000D01*
X97416666Y-95466667D01*
X97416666Y-95366667D01*
X97450000Y-95233333D01*
X97483333Y-95166667D01*
X97550000Y-95100000D01*
X97650000Y-95066667D01*
X97716666Y-95066667D01*
X97816666Y-95100000D01*
X97850000Y-95133333D01*
X98516666Y-95766667D02*
X98116666Y-95766667D01*
X98316666Y-95766667D02*
X98316666Y-95066667D01*
X98250000Y-95166667D01*
X98183333Y-95233333D01*
X98116666Y-95266667D01*
X98950000Y-95066667D02*
X99016667Y-95066667D01*
X99083333Y-95100000D01*
X99116667Y-95133333D01*
X99150000Y-95200000D01*
X99183333Y-95333333D01*
X99183333Y-95500000D01*
X99150000Y-95633333D01*
X99116667Y-95700000D01*
X99083333Y-95733333D01*
X99016667Y-95766667D01*
X98950000Y-95766667D01*
X98883333Y-95733333D01*
X98850000Y-95700000D01*
X98816667Y-95633333D01*
X98783333Y-95500000D01*
X98783333Y-95333333D01*
X98816667Y-95200000D01*
X98850000Y-95133333D01*
X98883333Y-95100000D01*
X98950000Y-95066667D01*
X97850000Y-99700000D02*
X97816666Y-99733333D01*
X97716666Y-99766667D01*
X97650000Y-99766667D01*
X97550000Y-99733333D01*
X97483333Y-99666667D01*
X97450000Y-99600000D01*
X97416666Y-99466667D01*
X97416666Y-99366667D01*
X97450000Y-99233333D01*
X97483333Y-99166667D01*
X97550000Y-99100000D01*
X97650000Y-99066667D01*
X97716666Y-99066667D01*
X97816666Y-99100000D01*
X97850000Y-99133333D01*
X98516666Y-99766667D02*
X98116666Y-99766667D01*
X98316666Y-99766667D02*
X98316666Y-99066667D01*
X98250000Y-99166667D01*
X98183333Y-99233333D01*
X98116666Y-99266667D01*
X99183333Y-99766667D02*
X98783333Y-99766667D01*
X98983333Y-99766667D02*
X98983333Y-99066667D01*
X98916667Y-99166667D01*
X98850000Y-99233333D01*
X98783333Y-99266667D01*
X97850000Y-103700000D02*
X97816666Y-103733333D01*
X97716666Y-103766667D01*
X97650000Y-103766667D01*
X97550000Y-103733333D01*
X97483333Y-103666667D01*
X97450000Y-103600000D01*
X97416666Y-103466667D01*
X97416666Y-103366667D01*
X97450000Y-103233333D01*
X97483333Y-103166667D01*
X97550000Y-103100000D01*
X97650000Y-103066667D01*
X97716666Y-103066667D01*
X97816666Y-103100000D01*
X97850000Y-103133333D01*
X98516666Y-103766667D02*
X98116666Y-103766667D01*
X98316666Y-103766667D02*
X98316666Y-103066667D01*
X98250000Y-103166667D01*
X98183333Y-103233333D01*
X98116666Y-103266667D01*
X98783333Y-103133333D02*
X98816667Y-103100000D01*
X98883333Y-103066667D01*
X99050000Y-103066667D01*
X99116667Y-103100000D01*
X99150000Y-103133333D01*
X99183333Y-103200000D01*
X99183333Y-103266667D01*
X99150000Y-103366667D01*
X98750000Y-103766667D01*
X99183333Y-103766667D01*
X88900000Y-94300000D02*
X88933333Y-94333334D01*
X88966667Y-94433334D01*
X88966667Y-94500000D01*
X88933333Y-94600000D01*
X88866667Y-94666667D01*
X88800000Y-94700000D01*
X88666667Y-94733334D01*
X88566667Y-94733334D01*
X88433333Y-94700000D01*
X88366667Y-94666667D01*
X88300000Y-94600000D01*
X88266667Y-94500000D01*
X88266667Y-94433334D01*
X88300000Y-94333334D01*
X88333333Y-94300000D01*
X88966667Y-93633334D02*
X88966667Y-94033334D01*
X88966667Y-93833334D02*
X88266667Y-93833334D01*
X88366667Y-93900000D01*
X88433333Y-93966667D01*
X88466667Y-94033334D01*
X88266667Y-93400000D02*
X88266667Y-92966667D01*
X88533333Y-93200000D01*
X88533333Y-93100000D01*
X88566667Y-93033333D01*
X88600000Y-93000000D01*
X88666667Y-92966667D01*
X88833333Y-92966667D01*
X88900000Y-93000000D01*
X88933333Y-93033333D01*
X88966667Y-93100000D01*
X88966667Y-93300000D01*
X88933333Y-93366667D01*
X88900000Y-93400000D01*
X88900000Y-98300000D02*
X88933333Y-98333334D01*
X88966667Y-98433334D01*
X88966667Y-98500000D01*
X88933333Y-98600000D01*
X88866667Y-98666667D01*
X88800000Y-98700000D01*
X88666667Y-98733334D01*
X88566667Y-98733334D01*
X88433333Y-98700000D01*
X88366667Y-98666667D01*
X88300000Y-98600000D01*
X88266667Y-98500000D01*
X88266667Y-98433334D01*
X88300000Y-98333334D01*
X88333333Y-98300000D01*
X88966667Y-97633334D02*
X88966667Y-98033334D01*
X88966667Y-97833334D02*
X88266667Y-97833334D01*
X88366667Y-97900000D01*
X88433333Y-97966667D01*
X88466667Y-98033334D01*
X88500000Y-97033333D02*
X88966667Y-97033333D01*
X88233333Y-97200000D02*
X88733333Y-97366667D01*
X88733333Y-96933333D01*
X88900000Y-102300000D02*
X88933333Y-102333334D01*
X88966667Y-102433334D01*
X88966667Y-102500000D01*
X88933333Y-102600000D01*
X88866667Y-102666667D01*
X88800000Y-102700000D01*
X88666667Y-102733334D01*
X88566667Y-102733334D01*
X88433333Y-102700000D01*
X88366667Y-102666667D01*
X88300000Y-102600000D01*
X88266667Y-102500000D01*
X88266667Y-102433334D01*
X88300000Y-102333334D01*
X88333333Y-102300000D01*
X88966667Y-101633334D02*
X88966667Y-102033334D01*
X88966667Y-101833334D02*
X88266667Y-101833334D01*
X88366667Y-101900000D01*
X88433333Y-101966667D01*
X88466667Y-102033334D01*
X88266667Y-101000000D02*
X88266667Y-101333333D01*
X88600000Y-101366667D01*
X88566667Y-101333333D01*
X88533333Y-101266667D01*
X88533333Y-101100000D01*
X88566667Y-101033333D01*
X88600000Y-101000000D01*
X88666667Y-100966667D01*
X88833333Y-100966667D01*
X88900000Y-101000000D01*
X88933333Y-101033333D01*
X88966667Y-101100000D01*
X88966667Y-101266667D01*
X88933333Y-101333333D01*
X88900000Y-101366667D01*
X88900000Y-106300000D02*
X88933333Y-106333334D01*
X88966667Y-106433334D01*
X88966667Y-106500000D01*
X88933333Y-106600000D01*
X88866667Y-106666667D01*
X88800000Y-106700000D01*
X88666667Y-106733334D01*
X88566667Y-106733334D01*
X88433333Y-106700000D01*
X88366667Y-106666667D01*
X88300000Y-106600000D01*
X88266667Y-106500000D01*
X88266667Y-106433334D01*
X88300000Y-106333334D01*
X88333333Y-106300000D01*
X88966667Y-105633334D02*
X88966667Y-106033334D01*
X88966667Y-105833334D02*
X88266667Y-105833334D01*
X88366667Y-105900000D01*
X88433333Y-105966667D01*
X88466667Y-106033334D01*
X88266667Y-105033333D02*
X88266667Y-105166667D01*
X88300000Y-105233333D01*
X88333333Y-105266667D01*
X88433333Y-105333333D01*
X88566667Y-105366667D01*
X88833333Y-105366667D01*
X88900000Y-105333333D01*
X88933333Y-105300000D01*
X88966667Y-105233333D01*
X88966667Y-105100000D01*
X88933333Y-105033333D01*
X88900000Y-105000000D01*
X88833333Y-104966667D01*
X88666667Y-104966667D01*
X88600000Y-105000000D01*
X88566667Y-105033333D01*
X88533333Y-105100000D01*
X88533333Y-105233333D01*
X88566667Y-105300000D01*
X88600000Y-105333333D01*
X88666667Y-105366667D01*
X97850000Y-107700000D02*
X97816666Y-107733333D01*
X97716666Y-107766667D01*
X97650000Y-107766667D01*
X97550000Y-107733333D01*
X97483333Y-107666667D01*
X97450000Y-107600000D01*
X97416666Y-107466667D01*
X97416666Y-107366667D01*
X97450000Y-107233333D01*
X97483333Y-107166667D01*
X97550000Y-107100000D01*
X97650000Y-107066667D01*
X97716666Y-107066667D01*
X97816666Y-107100000D01*
X97850000Y-107133333D01*
X98516666Y-107766667D02*
X98116666Y-107766667D01*
X98316666Y-107766667D02*
X98316666Y-107066667D01*
X98250000Y-107166667D01*
X98183333Y-107233333D01*
X98116666Y-107266667D01*
X98750000Y-107066667D02*
X99216667Y-107066667D01*
X98916667Y-107766667D01*
X97850000Y-111700000D02*
X97816666Y-111733333D01*
X97716666Y-111766667D01*
X97650000Y-111766667D01*
X97550000Y-111733333D01*
X97483333Y-111666667D01*
X97450000Y-111600000D01*
X97416666Y-111466667D01*
X97416666Y-111366667D01*
X97450000Y-111233333D01*
X97483333Y-111166667D01*
X97550000Y-111100000D01*
X97650000Y-111066667D01*
X97716666Y-111066667D01*
X97816666Y-111100000D01*
X97850000Y-111133333D01*
X98516666Y-111766667D02*
X98116666Y-111766667D01*
X98316666Y-111766667D02*
X98316666Y-111066667D01*
X98250000Y-111166667D01*
X98183333Y-111233333D01*
X98116666Y-111266667D01*
X98916667Y-111366667D02*
X98850000Y-111333333D01*
X98816667Y-111300000D01*
X98783333Y-111233333D01*
X98783333Y-111200000D01*
X98816667Y-111133333D01*
X98850000Y-111100000D01*
X98916667Y-111066667D01*
X99050000Y-111066667D01*
X99116667Y-111100000D01*
X99150000Y-111133333D01*
X99183333Y-111200000D01*
X99183333Y-111233333D01*
X99150000Y-111300000D01*
X99116667Y-111333333D01*
X99050000Y-111366667D01*
X98916667Y-111366667D01*
X98850000Y-111400000D01*
X98816667Y-111433333D01*
X98783333Y-111500000D01*
X98783333Y-111633333D01*
X98816667Y-111700000D01*
X98850000Y-111733333D01*
X98916667Y-111766667D01*
X99050000Y-111766667D01*
X99116667Y-111733333D01*
X99150000Y-111700000D01*
X99183333Y-111633333D01*
X99183333Y-111500000D01*
X99150000Y-111433333D01*
X99116667Y-111400000D01*
X99050000Y-111366667D01*
X97850000Y-115650000D02*
X97816666Y-115683333D01*
X97716666Y-115716667D01*
X97650000Y-115716667D01*
X97550000Y-115683333D01*
X97483333Y-115616667D01*
X97450000Y-115550000D01*
X97416666Y-115416667D01*
X97416666Y-115316667D01*
X97450000Y-115183333D01*
X97483333Y-115116667D01*
X97550000Y-115050000D01*
X97650000Y-115016667D01*
X97716666Y-115016667D01*
X97816666Y-115050000D01*
X97850000Y-115083333D01*
X98516666Y-115716667D02*
X98116666Y-115716667D01*
X98316666Y-115716667D02*
X98316666Y-115016667D01*
X98250000Y-115116667D01*
X98183333Y-115183333D01*
X98116666Y-115216667D01*
X98850000Y-115716667D02*
X98983333Y-115716667D01*
X99050000Y-115683333D01*
X99083333Y-115650000D01*
X99150000Y-115550000D01*
X99183333Y-115416667D01*
X99183333Y-115150000D01*
X99150000Y-115083333D01*
X99116667Y-115050000D01*
X99050000Y-115016667D01*
X98916667Y-115016667D01*
X98850000Y-115050000D01*
X98816667Y-115083333D01*
X98783333Y-115150000D01*
X98783333Y-115316667D01*
X98816667Y-115383333D01*
X98850000Y-115416667D01*
X98916667Y-115450000D01*
X99050000Y-115450000D01*
X99116667Y-115416667D01*
X99150000Y-115383333D01*
X99183333Y-115316667D01*
X97850000Y-119700000D02*
X97816666Y-119733333D01*
X97716666Y-119766667D01*
X97650000Y-119766667D01*
X97550000Y-119733333D01*
X97483333Y-119666667D01*
X97450000Y-119600000D01*
X97416666Y-119466667D01*
X97416666Y-119366667D01*
X97450000Y-119233333D01*
X97483333Y-119166667D01*
X97550000Y-119100000D01*
X97650000Y-119066667D01*
X97716666Y-119066667D01*
X97816666Y-119100000D01*
X97850000Y-119133333D01*
X98116666Y-119133333D02*
X98150000Y-119100000D01*
X98216666Y-119066667D01*
X98383333Y-119066667D01*
X98450000Y-119100000D01*
X98483333Y-119133333D01*
X98516666Y-119200000D01*
X98516666Y-119266667D01*
X98483333Y-119366667D01*
X98083333Y-119766667D01*
X98516666Y-119766667D01*
X98950000Y-119066667D02*
X99016667Y-119066667D01*
X99083333Y-119100000D01*
X99116667Y-119133333D01*
X99150000Y-119200000D01*
X99183333Y-119333333D01*
X99183333Y-119500000D01*
X99150000Y-119633333D01*
X99116667Y-119700000D01*
X99083333Y-119733333D01*
X99016667Y-119766667D01*
X98950000Y-119766667D01*
X98883333Y-119733333D01*
X98850000Y-119700000D01*
X98816667Y-119633333D01*
X98783333Y-119500000D01*
X98783333Y-119333333D01*
X98816667Y-119200000D01*
X98850000Y-119133333D01*
X98883333Y-119100000D01*
X98950000Y-119066667D01*
X88900000Y-110300000D02*
X88933333Y-110333334D01*
X88966667Y-110433334D01*
X88966667Y-110500000D01*
X88933333Y-110600000D01*
X88866667Y-110666667D01*
X88800000Y-110700000D01*
X88666667Y-110733334D01*
X88566667Y-110733334D01*
X88433333Y-110700000D01*
X88366667Y-110666667D01*
X88300000Y-110600000D01*
X88266667Y-110500000D01*
X88266667Y-110433334D01*
X88300000Y-110333334D01*
X88333333Y-110300000D01*
X88333333Y-110033334D02*
X88300000Y-110000000D01*
X88266667Y-109933334D01*
X88266667Y-109766667D01*
X88300000Y-109700000D01*
X88333333Y-109666667D01*
X88400000Y-109633334D01*
X88466667Y-109633334D01*
X88566667Y-109666667D01*
X88966667Y-110066667D01*
X88966667Y-109633334D01*
X88966667Y-108966667D02*
X88966667Y-109366667D01*
X88966667Y-109166667D02*
X88266667Y-109166667D01*
X88366667Y-109233333D01*
X88433333Y-109300000D01*
X88466667Y-109366667D01*
X88900000Y-114300000D02*
X88933333Y-114333334D01*
X88966667Y-114433334D01*
X88966667Y-114500000D01*
X88933333Y-114600000D01*
X88866667Y-114666667D01*
X88800000Y-114700000D01*
X88666667Y-114733334D01*
X88566667Y-114733334D01*
X88433333Y-114700000D01*
X88366667Y-114666667D01*
X88300000Y-114600000D01*
X88266667Y-114500000D01*
X88266667Y-114433334D01*
X88300000Y-114333334D01*
X88333333Y-114300000D01*
X88333333Y-114033334D02*
X88300000Y-114000000D01*
X88266667Y-113933334D01*
X88266667Y-113766667D01*
X88300000Y-113700000D01*
X88333333Y-113666667D01*
X88400000Y-113633334D01*
X88466667Y-113633334D01*
X88566667Y-113666667D01*
X88966667Y-114066667D01*
X88966667Y-113633334D01*
X88333333Y-113366667D02*
X88300000Y-113333333D01*
X88266667Y-113266667D01*
X88266667Y-113100000D01*
X88300000Y-113033333D01*
X88333333Y-113000000D01*
X88400000Y-112966667D01*
X88466667Y-112966667D01*
X88566667Y-113000000D01*
X88966667Y-113400000D01*
X88966667Y-112966667D01*
X88900000Y-118300000D02*
X88933333Y-118333334D01*
X88966667Y-118433334D01*
X88966667Y-118500000D01*
X88933333Y-118600000D01*
X88866667Y-118666667D01*
X88800000Y-118700000D01*
X88666667Y-118733334D01*
X88566667Y-118733334D01*
X88433333Y-118700000D01*
X88366667Y-118666667D01*
X88300000Y-118600000D01*
X88266667Y-118500000D01*
X88266667Y-118433334D01*
X88300000Y-118333334D01*
X88333333Y-118300000D01*
X88333333Y-118033334D02*
X88300000Y-118000000D01*
X88266667Y-117933334D01*
X88266667Y-117766667D01*
X88300000Y-117700000D01*
X88333333Y-117666667D01*
X88400000Y-117633334D01*
X88466667Y-117633334D01*
X88566667Y-117666667D01*
X88966667Y-118066667D01*
X88966667Y-117633334D01*
X88266667Y-117400000D02*
X88266667Y-116966667D01*
X88533333Y-117200000D01*
X88533333Y-117100000D01*
X88566667Y-117033333D01*
X88600000Y-117000000D01*
X88666667Y-116966667D01*
X88833333Y-116966667D01*
X88900000Y-117000000D01*
X88933333Y-117033333D01*
X88966667Y-117100000D01*
X88966667Y-117300000D01*
X88933333Y-117366667D01*
X88900000Y-117400000D01*
X88900000Y-122300000D02*
X88933333Y-122333334D01*
X88966667Y-122433334D01*
X88966667Y-122500000D01*
X88933333Y-122600000D01*
X88866667Y-122666667D01*
X88800000Y-122700000D01*
X88666667Y-122733334D01*
X88566667Y-122733334D01*
X88433333Y-122700000D01*
X88366667Y-122666667D01*
X88300000Y-122600000D01*
X88266667Y-122500000D01*
X88266667Y-122433334D01*
X88300000Y-122333334D01*
X88333333Y-122300000D01*
X88333333Y-122033334D02*
X88300000Y-122000000D01*
X88266667Y-121933334D01*
X88266667Y-121766667D01*
X88300000Y-121700000D01*
X88333333Y-121666667D01*
X88400000Y-121633334D01*
X88466667Y-121633334D01*
X88566667Y-121666667D01*
X88966667Y-122066667D01*
X88966667Y-121633334D01*
X88500000Y-121033333D02*
X88966667Y-121033333D01*
X88233333Y-121200000D02*
X88733333Y-121366667D01*
X88733333Y-120933333D01*
X98183334Y-77766667D02*
X97950000Y-77433333D01*
X97783334Y-77766667D02*
X97783334Y-77066667D01*
X98050000Y-77066667D01*
X98116667Y-77100000D01*
X98150000Y-77133333D01*
X98183334Y-77200000D01*
X98183334Y-77300000D01*
X98150000Y-77366667D01*
X98116667Y-77400000D01*
X98050000Y-77433333D01*
X97783334Y-77433333D01*
X98450000Y-77133333D02*
X98483334Y-77100000D01*
X98550000Y-77066667D01*
X98716667Y-77066667D01*
X98783334Y-77100000D01*
X98816667Y-77133333D01*
X98850000Y-77200000D01*
X98850000Y-77266667D01*
X98816667Y-77366667D01*
X98416667Y-77766667D01*
X98850000Y-77766667D01*
X86916667Y-81966666D02*
X86583333Y-82200000D01*
X86916667Y-82366666D02*
X86216667Y-82366666D01*
X86216667Y-82100000D01*
X86250000Y-82033333D01*
X86283333Y-82000000D01*
X86350000Y-81966666D01*
X86450000Y-81966666D01*
X86516667Y-82000000D01*
X86550000Y-82033333D01*
X86583333Y-82100000D01*
X86583333Y-82366666D01*
X86216667Y-81733333D02*
X86216667Y-81300000D01*
X86483333Y-81533333D01*
X86483333Y-81433333D01*
X86516667Y-81366666D01*
X86550000Y-81333333D01*
X86616667Y-81300000D01*
X86783333Y-81300000D01*
X86850000Y-81333333D01*
X86883333Y-81366666D01*
X86916667Y-81433333D01*
X86916667Y-81633333D01*
X86883333Y-81700000D01*
X86850000Y-81733333D01*
X98183334Y-81766667D02*
X97950000Y-81433333D01*
X97783334Y-81766667D02*
X97783334Y-81066667D01*
X98050000Y-81066667D01*
X98116667Y-81100000D01*
X98150000Y-81133333D01*
X98183334Y-81200000D01*
X98183334Y-81300000D01*
X98150000Y-81366667D01*
X98116667Y-81400000D01*
X98050000Y-81433333D01*
X97783334Y-81433333D01*
X98783334Y-81300000D02*
X98783334Y-81766667D01*
X98616667Y-81033333D02*
X98450000Y-81533333D01*
X98883334Y-81533333D01*
X87016667Y-85966666D02*
X86683333Y-86200000D01*
X87016667Y-86366666D02*
X86316667Y-86366666D01*
X86316667Y-86100000D01*
X86350000Y-86033333D01*
X86383333Y-86000000D01*
X86450000Y-85966666D01*
X86550000Y-85966666D01*
X86616667Y-86000000D01*
X86650000Y-86033333D01*
X86683333Y-86100000D01*
X86683333Y-86366666D01*
X86316667Y-85333333D02*
X86316667Y-85666666D01*
X86650000Y-85700000D01*
X86616667Y-85666666D01*
X86583333Y-85600000D01*
X86583333Y-85433333D01*
X86616667Y-85366666D01*
X86650000Y-85333333D01*
X86716667Y-85300000D01*
X86883333Y-85300000D01*
X86950000Y-85333333D01*
X86983333Y-85366666D01*
X87016667Y-85433333D01*
X87016667Y-85600000D01*
X86983333Y-85666666D01*
X86950000Y-85700000D01*
X98183334Y-85766667D02*
X97950000Y-85433333D01*
X97783334Y-85766667D02*
X97783334Y-85066667D01*
X98050000Y-85066667D01*
X98116667Y-85100000D01*
X98150000Y-85133333D01*
X98183334Y-85200000D01*
X98183334Y-85300000D01*
X98150000Y-85366667D01*
X98116667Y-85400000D01*
X98050000Y-85433333D01*
X97783334Y-85433333D01*
X98783334Y-85066667D02*
X98650000Y-85066667D01*
X98583334Y-85100000D01*
X98550000Y-85133333D01*
X98483334Y-85233333D01*
X98450000Y-85366667D01*
X98450000Y-85633333D01*
X98483334Y-85700000D01*
X98516667Y-85733333D01*
X98583334Y-85766667D01*
X98716667Y-85766667D01*
X98783334Y-85733333D01*
X98816667Y-85700000D01*
X98850000Y-85633333D01*
X98850000Y-85466667D01*
X98816667Y-85400000D01*
X98783334Y-85366667D01*
X98716667Y-85333333D01*
X98583334Y-85333333D01*
X98516667Y-85366667D01*
X98483334Y-85400000D01*
X98450000Y-85466667D01*
X86966667Y-89966666D02*
X86633333Y-90200000D01*
X86966667Y-90366666D02*
X86266667Y-90366666D01*
X86266667Y-90100000D01*
X86300000Y-90033333D01*
X86333333Y-90000000D01*
X86400000Y-89966666D01*
X86500000Y-89966666D01*
X86566667Y-90000000D01*
X86600000Y-90033333D01*
X86633333Y-90100000D01*
X86633333Y-90366666D01*
X86266667Y-89733333D02*
X86266667Y-89266666D01*
X86966667Y-89566666D01*
X98183334Y-89766667D02*
X97950000Y-89433333D01*
X97783334Y-89766667D02*
X97783334Y-89066667D01*
X98050000Y-89066667D01*
X98116667Y-89100000D01*
X98150000Y-89133333D01*
X98183334Y-89200000D01*
X98183334Y-89300000D01*
X98150000Y-89366667D01*
X98116667Y-89400000D01*
X98050000Y-89433333D01*
X97783334Y-89433333D01*
X98583334Y-89366667D02*
X98516667Y-89333333D01*
X98483334Y-89300000D01*
X98450000Y-89233333D01*
X98450000Y-89200000D01*
X98483334Y-89133333D01*
X98516667Y-89100000D01*
X98583334Y-89066667D01*
X98716667Y-89066667D01*
X98783334Y-89100000D01*
X98816667Y-89133333D01*
X98850000Y-89200000D01*
X98850000Y-89233333D01*
X98816667Y-89300000D01*
X98783334Y-89333333D01*
X98716667Y-89366667D01*
X98583334Y-89366667D01*
X98516667Y-89400000D01*
X98483334Y-89433333D01*
X98450000Y-89500000D01*
X98450000Y-89633333D01*
X98483334Y-89700000D01*
X98516667Y-89733333D01*
X98583334Y-89766667D01*
X98716667Y-89766667D01*
X98783334Y-89733333D01*
X98816667Y-89700000D01*
X98850000Y-89633333D01*
X98850000Y-89500000D01*
X98816667Y-89433333D01*
X98783334Y-89400000D01*
X98716667Y-89366667D01*
X86966667Y-93966666D02*
X86633333Y-94200000D01*
X86966667Y-94366666D02*
X86266667Y-94366666D01*
X86266667Y-94100000D01*
X86300000Y-94033333D01*
X86333333Y-94000000D01*
X86400000Y-93966666D01*
X86500000Y-93966666D01*
X86566667Y-94000000D01*
X86600000Y-94033333D01*
X86633333Y-94100000D01*
X86633333Y-94366666D01*
X86966667Y-93633333D02*
X86966667Y-93500000D01*
X86933333Y-93433333D01*
X86900000Y-93400000D01*
X86800000Y-93333333D01*
X86666667Y-93300000D01*
X86400000Y-93300000D01*
X86333333Y-93333333D01*
X86300000Y-93366666D01*
X86266667Y-93433333D01*
X86266667Y-93566666D01*
X86300000Y-93633333D01*
X86333333Y-93666666D01*
X86400000Y-93700000D01*
X86566667Y-93700000D01*
X86633333Y-93666666D01*
X86666667Y-93633333D01*
X86700000Y-93566666D01*
X86700000Y-93433333D01*
X86666667Y-93366666D01*
X86633333Y-93333333D01*
X86566667Y-93300000D01*
X97850000Y-93766667D02*
X97616666Y-93433333D01*
X97450000Y-93766667D02*
X97450000Y-93066667D01*
X97716666Y-93066667D01*
X97783333Y-93100000D01*
X97816666Y-93133333D01*
X97850000Y-93200000D01*
X97850000Y-93300000D01*
X97816666Y-93366667D01*
X97783333Y-93400000D01*
X97716666Y-93433333D01*
X97450000Y-93433333D01*
X98516666Y-93766667D02*
X98116666Y-93766667D01*
X98316666Y-93766667D02*
X98316666Y-93066667D01*
X98250000Y-93166667D01*
X98183333Y-93233333D01*
X98116666Y-93266667D01*
X98950000Y-93066667D02*
X99016667Y-93066667D01*
X99083333Y-93100000D01*
X99116667Y-93133333D01*
X99150000Y-93200000D01*
X99183333Y-93333333D01*
X99183333Y-93500000D01*
X99150000Y-93633333D01*
X99116667Y-93700000D01*
X99083333Y-93733333D01*
X99016667Y-93766667D01*
X98950000Y-93766667D01*
X98883333Y-93733333D01*
X98850000Y-93700000D01*
X98816667Y-93633333D01*
X98783333Y-93500000D01*
X98783333Y-93333333D01*
X98816667Y-93200000D01*
X98850000Y-93133333D01*
X98883333Y-93100000D01*
X98950000Y-93066667D01*
X86966667Y-98300000D02*
X86633333Y-98533334D01*
X86966667Y-98700000D02*
X86266667Y-98700000D01*
X86266667Y-98433334D01*
X86300000Y-98366667D01*
X86333333Y-98333334D01*
X86400000Y-98300000D01*
X86500000Y-98300000D01*
X86566667Y-98333334D01*
X86600000Y-98366667D01*
X86633333Y-98433334D01*
X86633333Y-98700000D01*
X86966667Y-97633334D02*
X86966667Y-98033334D01*
X86966667Y-97833334D02*
X86266667Y-97833334D01*
X86366667Y-97900000D01*
X86433333Y-97966667D01*
X86466667Y-98033334D01*
X86966667Y-96966667D02*
X86966667Y-97366667D01*
X86966667Y-97166667D02*
X86266667Y-97166667D01*
X86366667Y-97233333D01*
X86433333Y-97300000D01*
X86466667Y-97366667D01*
X97850000Y-97766667D02*
X97616666Y-97433333D01*
X97450000Y-97766667D02*
X97450000Y-97066667D01*
X97716666Y-97066667D01*
X97783333Y-97100000D01*
X97816666Y-97133333D01*
X97850000Y-97200000D01*
X97850000Y-97300000D01*
X97816666Y-97366667D01*
X97783333Y-97400000D01*
X97716666Y-97433333D01*
X97450000Y-97433333D01*
X98516666Y-97766667D02*
X98116666Y-97766667D01*
X98316666Y-97766667D02*
X98316666Y-97066667D01*
X98250000Y-97166667D01*
X98183333Y-97233333D01*
X98116666Y-97266667D01*
X98783333Y-97133333D02*
X98816667Y-97100000D01*
X98883333Y-97066667D01*
X99050000Y-97066667D01*
X99116667Y-97100000D01*
X99150000Y-97133333D01*
X99183333Y-97200000D01*
X99183333Y-97266667D01*
X99150000Y-97366667D01*
X98750000Y-97766667D01*
X99183333Y-97766667D01*
X86966667Y-102300000D02*
X86633333Y-102533334D01*
X86966667Y-102700000D02*
X86266667Y-102700000D01*
X86266667Y-102433334D01*
X86300000Y-102366667D01*
X86333333Y-102333334D01*
X86400000Y-102300000D01*
X86500000Y-102300000D01*
X86566667Y-102333334D01*
X86600000Y-102366667D01*
X86633333Y-102433334D01*
X86633333Y-102700000D01*
X86966667Y-101633334D02*
X86966667Y-102033334D01*
X86966667Y-101833334D02*
X86266667Y-101833334D01*
X86366667Y-101900000D01*
X86433333Y-101966667D01*
X86466667Y-102033334D01*
X86266667Y-101400000D02*
X86266667Y-100966667D01*
X86533333Y-101200000D01*
X86533333Y-101100000D01*
X86566667Y-101033333D01*
X86600000Y-101000000D01*
X86666667Y-100966667D01*
X86833333Y-100966667D01*
X86900000Y-101000000D01*
X86933333Y-101033333D01*
X86966667Y-101100000D01*
X86966667Y-101300000D01*
X86933333Y-101366667D01*
X86900000Y-101400000D01*
X97850000Y-101766667D02*
X97616666Y-101433333D01*
X97450000Y-101766667D02*
X97450000Y-101066667D01*
X97716666Y-101066667D01*
X97783333Y-101100000D01*
X97816666Y-101133333D01*
X97850000Y-101200000D01*
X97850000Y-101300000D01*
X97816666Y-101366667D01*
X97783333Y-101400000D01*
X97716666Y-101433333D01*
X97450000Y-101433333D01*
X98516666Y-101766667D02*
X98116666Y-101766667D01*
X98316666Y-101766667D02*
X98316666Y-101066667D01*
X98250000Y-101166667D01*
X98183333Y-101233333D01*
X98116666Y-101266667D01*
X99116667Y-101300000D02*
X99116667Y-101766667D01*
X98950000Y-101033333D02*
X98783333Y-101533333D01*
X99216667Y-101533333D01*
X86966667Y-106300000D02*
X86633333Y-106533334D01*
X86966667Y-106700000D02*
X86266667Y-106700000D01*
X86266667Y-106433334D01*
X86300000Y-106366667D01*
X86333333Y-106333334D01*
X86400000Y-106300000D01*
X86500000Y-106300000D01*
X86566667Y-106333334D01*
X86600000Y-106366667D01*
X86633333Y-106433334D01*
X86633333Y-106700000D01*
X86966667Y-105633334D02*
X86966667Y-106033334D01*
X86966667Y-105833334D02*
X86266667Y-105833334D01*
X86366667Y-105900000D01*
X86433333Y-105966667D01*
X86466667Y-106033334D01*
X86266667Y-105000000D02*
X86266667Y-105333333D01*
X86600000Y-105366667D01*
X86566667Y-105333333D01*
X86533333Y-105266667D01*
X86533333Y-105100000D01*
X86566667Y-105033333D01*
X86600000Y-105000000D01*
X86666667Y-104966667D01*
X86833333Y-104966667D01*
X86900000Y-105000000D01*
X86933333Y-105033333D01*
X86966667Y-105100000D01*
X86966667Y-105266667D01*
X86933333Y-105333333D01*
X86900000Y-105366667D01*
X97850000Y-105766667D02*
X97616666Y-105433333D01*
X97450000Y-105766667D02*
X97450000Y-105066667D01*
X97716666Y-105066667D01*
X97783333Y-105100000D01*
X97816666Y-105133333D01*
X97850000Y-105200000D01*
X97850000Y-105300000D01*
X97816666Y-105366667D01*
X97783333Y-105400000D01*
X97716666Y-105433333D01*
X97450000Y-105433333D01*
X98516666Y-105766667D02*
X98116666Y-105766667D01*
X98316666Y-105766667D02*
X98316666Y-105066667D01*
X98250000Y-105166667D01*
X98183333Y-105233333D01*
X98116666Y-105266667D01*
X99116667Y-105066667D02*
X98983333Y-105066667D01*
X98916667Y-105100000D01*
X98883333Y-105133333D01*
X98816667Y-105233333D01*
X98783333Y-105366667D01*
X98783333Y-105633333D01*
X98816667Y-105700000D01*
X98850000Y-105733333D01*
X98916667Y-105766667D01*
X99050000Y-105766667D01*
X99116667Y-105733333D01*
X99150000Y-105700000D01*
X99183333Y-105633333D01*
X99183333Y-105466667D01*
X99150000Y-105400000D01*
X99116667Y-105366667D01*
X99050000Y-105333333D01*
X98916667Y-105333333D01*
X98850000Y-105366667D01*
X98816667Y-105400000D01*
X98783333Y-105466667D01*
X86966667Y-110300000D02*
X86633333Y-110533334D01*
X86966667Y-110700000D02*
X86266667Y-110700000D01*
X86266667Y-110433334D01*
X86300000Y-110366667D01*
X86333333Y-110333334D01*
X86400000Y-110300000D01*
X86500000Y-110300000D01*
X86566667Y-110333334D01*
X86600000Y-110366667D01*
X86633333Y-110433334D01*
X86633333Y-110700000D01*
X86966667Y-109633334D02*
X86966667Y-110033334D01*
X86966667Y-109833334D02*
X86266667Y-109833334D01*
X86366667Y-109900000D01*
X86433333Y-109966667D01*
X86466667Y-110033334D01*
X86266667Y-109400000D02*
X86266667Y-108933333D01*
X86966667Y-109233333D01*
X97850000Y-109766667D02*
X97616666Y-109433333D01*
X97450000Y-109766667D02*
X97450000Y-109066667D01*
X97716666Y-109066667D01*
X97783333Y-109100000D01*
X97816666Y-109133333D01*
X97850000Y-109200000D01*
X97850000Y-109300000D01*
X97816666Y-109366667D01*
X97783333Y-109400000D01*
X97716666Y-109433333D01*
X97450000Y-109433333D01*
X98516666Y-109766667D02*
X98116666Y-109766667D01*
X98316666Y-109766667D02*
X98316666Y-109066667D01*
X98250000Y-109166667D01*
X98183333Y-109233333D01*
X98116666Y-109266667D01*
X98916667Y-109366667D02*
X98850000Y-109333333D01*
X98816667Y-109300000D01*
X98783333Y-109233333D01*
X98783333Y-109200000D01*
X98816667Y-109133333D01*
X98850000Y-109100000D01*
X98916667Y-109066667D01*
X99050000Y-109066667D01*
X99116667Y-109100000D01*
X99150000Y-109133333D01*
X99183333Y-109200000D01*
X99183333Y-109233333D01*
X99150000Y-109300000D01*
X99116667Y-109333333D01*
X99050000Y-109366667D01*
X98916667Y-109366667D01*
X98850000Y-109400000D01*
X98816667Y-109433333D01*
X98783333Y-109500000D01*
X98783333Y-109633333D01*
X98816667Y-109700000D01*
X98850000Y-109733333D01*
X98916667Y-109766667D01*
X99050000Y-109766667D01*
X99116667Y-109733333D01*
X99150000Y-109700000D01*
X99183333Y-109633333D01*
X99183333Y-109500000D01*
X99150000Y-109433333D01*
X99116667Y-109400000D01*
X99050000Y-109366667D01*
X86966667Y-114300000D02*
X86633333Y-114533334D01*
X86966667Y-114700000D02*
X86266667Y-114700000D01*
X86266667Y-114433334D01*
X86300000Y-114366667D01*
X86333333Y-114333334D01*
X86400000Y-114300000D01*
X86500000Y-114300000D01*
X86566667Y-114333334D01*
X86600000Y-114366667D01*
X86633333Y-114433334D01*
X86633333Y-114700000D01*
X86966667Y-113633334D02*
X86966667Y-114033334D01*
X86966667Y-113833334D02*
X86266667Y-113833334D01*
X86366667Y-113900000D01*
X86433333Y-113966667D01*
X86466667Y-114033334D01*
X86966667Y-113300000D02*
X86966667Y-113166667D01*
X86933333Y-113100000D01*
X86900000Y-113066667D01*
X86800000Y-113000000D01*
X86666667Y-112966667D01*
X86400000Y-112966667D01*
X86333333Y-113000000D01*
X86300000Y-113033333D01*
X86266667Y-113100000D01*
X86266667Y-113233333D01*
X86300000Y-113300000D01*
X86333333Y-113333333D01*
X86400000Y-113366667D01*
X86566667Y-113366667D01*
X86633333Y-113333333D01*
X86666667Y-113300000D01*
X86700000Y-113233333D01*
X86700000Y-113100000D01*
X86666667Y-113033333D01*
X86633333Y-113000000D01*
X86566667Y-112966667D01*
X97850000Y-113766667D02*
X97616666Y-113433333D01*
X97450000Y-113766667D02*
X97450000Y-113066667D01*
X97716666Y-113066667D01*
X97783333Y-113100000D01*
X97816666Y-113133333D01*
X97850000Y-113200000D01*
X97850000Y-113300000D01*
X97816666Y-113366667D01*
X97783333Y-113400000D01*
X97716666Y-113433333D01*
X97450000Y-113433333D01*
X98116666Y-113133333D02*
X98150000Y-113100000D01*
X98216666Y-113066667D01*
X98383333Y-113066667D01*
X98450000Y-113100000D01*
X98483333Y-113133333D01*
X98516666Y-113200000D01*
X98516666Y-113266667D01*
X98483333Y-113366667D01*
X98083333Y-113766667D01*
X98516666Y-113766667D01*
X98950000Y-113066667D02*
X99016667Y-113066667D01*
X99083333Y-113100000D01*
X99116667Y-113133333D01*
X99150000Y-113200000D01*
X99183333Y-113333333D01*
X99183333Y-113500000D01*
X99150000Y-113633333D01*
X99116667Y-113700000D01*
X99083333Y-113733333D01*
X99016667Y-113766667D01*
X98950000Y-113766667D01*
X98883333Y-113733333D01*
X98850000Y-113700000D01*
X98816667Y-113633333D01*
X98783333Y-113500000D01*
X98783333Y-113333333D01*
X98816667Y-113200000D01*
X98850000Y-113133333D01*
X98883333Y-113100000D01*
X98950000Y-113066667D01*
X86966667Y-118300000D02*
X86633333Y-118533334D01*
X86966667Y-118700000D02*
X86266667Y-118700000D01*
X86266667Y-118433334D01*
X86300000Y-118366667D01*
X86333333Y-118333334D01*
X86400000Y-118300000D01*
X86500000Y-118300000D01*
X86566667Y-118333334D01*
X86600000Y-118366667D01*
X86633333Y-118433334D01*
X86633333Y-118700000D01*
X86333333Y-118033334D02*
X86300000Y-118000000D01*
X86266667Y-117933334D01*
X86266667Y-117766667D01*
X86300000Y-117700000D01*
X86333333Y-117666667D01*
X86400000Y-117633334D01*
X86466667Y-117633334D01*
X86566667Y-117666667D01*
X86966667Y-118066667D01*
X86966667Y-117633334D01*
X86966667Y-116966667D02*
X86966667Y-117366667D01*
X86966667Y-117166667D02*
X86266667Y-117166667D01*
X86366667Y-117233333D01*
X86433333Y-117300000D01*
X86466667Y-117366667D01*
X97850000Y-117766667D02*
X97616666Y-117433333D01*
X97450000Y-117766667D02*
X97450000Y-117066667D01*
X97716666Y-117066667D01*
X97783333Y-117100000D01*
X97816666Y-117133333D01*
X97850000Y-117200000D01*
X97850000Y-117300000D01*
X97816666Y-117366667D01*
X97783333Y-117400000D01*
X97716666Y-117433333D01*
X97450000Y-117433333D01*
X98116666Y-117133333D02*
X98150000Y-117100000D01*
X98216666Y-117066667D01*
X98383333Y-117066667D01*
X98450000Y-117100000D01*
X98483333Y-117133333D01*
X98516666Y-117200000D01*
X98516666Y-117266667D01*
X98483333Y-117366667D01*
X98083333Y-117766667D01*
X98516666Y-117766667D01*
X98783333Y-117133333D02*
X98816667Y-117100000D01*
X98883333Y-117066667D01*
X99050000Y-117066667D01*
X99116667Y-117100000D01*
X99150000Y-117133333D01*
X99183333Y-117200000D01*
X99183333Y-117266667D01*
X99150000Y-117366667D01*
X98750000Y-117766667D01*
X99183333Y-117766667D01*
X86966667Y-122300000D02*
X86633333Y-122533334D01*
X86966667Y-122700000D02*
X86266667Y-122700000D01*
X86266667Y-122433334D01*
X86300000Y-122366667D01*
X86333333Y-122333334D01*
X86400000Y-122300000D01*
X86500000Y-122300000D01*
X86566667Y-122333334D01*
X86600000Y-122366667D01*
X86633333Y-122433334D01*
X86633333Y-122700000D01*
X86333333Y-122033334D02*
X86300000Y-122000000D01*
X86266667Y-121933334D01*
X86266667Y-121766667D01*
X86300000Y-121700000D01*
X86333333Y-121666667D01*
X86400000Y-121633334D01*
X86466667Y-121633334D01*
X86566667Y-121666667D01*
X86966667Y-122066667D01*
X86966667Y-121633334D01*
X86266667Y-121400000D02*
X86266667Y-120966667D01*
X86533333Y-121200000D01*
X86533333Y-121100000D01*
X86566667Y-121033333D01*
X86600000Y-121000000D01*
X86666667Y-120966667D01*
X86833333Y-120966667D01*
X86900000Y-121000000D01*
X86933333Y-121033333D01*
X86966667Y-121100000D01*
X86966667Y-121300000D01*
X86933333Y-121366667D01*
X86900000Y-121400000D01*
X97850000Y-121766667D02*
X97616666Y-121433333D01*
X97450000Y-121766667D02*
X97450000Y-121066667D01*
X97716666Y-121066667D01*
X97783333Y-121100000D01*
X97816666Y-121133333D01*
X97850000Y-121200000D01*
X97850000Y-121300000D01*
X97816666Y-121366667D01*
X97783333Y-121400000D01*
X97716666Y-121433333D01*
X97450000Y-121433333D01*
X98116666Y-121133333D02*
X98150000Y-121100000D01*
X98216666Y-121066667D01*
X98383333Y-121066667D01*
X98450000Y-121100000D01*
X98483333Y-121133333D01*
X98516666Y-121200000D01*
X98516666Y-121266667D01*
X98483333Y-121366667D01*
X98083333Y-121766667D01*
X98516666Y-121766667D01*
X99116667Y-121300000D02*
X99116667Y-121766667D01*
X98950000Y-121033333D02*
X98783333Y-121533333D01*
X99216667Y-121533333D01*
D13*
X111230953Y-80526190D02*
X111230953Y-80026190D01*
X111421429Y-80026190D01*
X111469048Y-80050000D01*
X111492857Y-80073810D01*
X111516667Y-80121429D01*
X111516667Y-80192857D01*
X111492857Y-80240476D01*
X111469048Y-80264286D01*
X111421429Y-80288095D01*
X111230953Y-80288095D01*
X111754762Y-80526190D02*
X111850000Y-80526190D01*
X111897619Y-80502381D01*
X111921429Y-80478571D01*
X111969048Y-80407143D01*
X111992857Y-80311905D01*
X111992857Y-80121429D01*
X111969048Y-80073810D01*
X111945238Y-80050000D01*
X111897619Y-80026190D01*
X111802381Y-80026190D01*
X111754762Y-80050000D01*
X111730953Y-80073810D01*
X111707143Y-80121429D01*
X111707143Y-80240476D01*
X111730953Y-80288095D01*
X111754762Y-80311905D01*
X111802381Y-80335714D01*
X111897619Y-80335714D01*
X111945238Y-80311905D01*
X111969048Y-80288095D01*
X111992857Y-80240476D01*
M02*
