G04 #@! TF.FileFunction,Copper,L1,Top,Signal*
%FSLAX46Y46*%
G04 Gerber Fmt 4.6, Leading zero omitted, Abs format (unit mm)*
G04 Created by KiCad (PCBNEW 4.0.4-stable) date 10/23/16 14:40:47*
%MOMM*%
%LPD*%
G01*
G04 APERTURE LIST*
%ADD10C,0.100000*%
%ADD11R,1.800000X1.800000*%
%ADD12C,1.800000*%
%ADD13C,0.980000*%
%ADD14R,0.980000X0.980000*%
%ADD15R,1.060000X0.650000*%
%ADD16R,1.400000X1.400000*%
%ADD17C,1.400000*%
%ADD18R,0.500000X0.500000*%
%ADD19C,6.200000*%
%ADD20C,5.600000*%
%ADD21C,0.600000*%
%ADD22C,0.800000*%
%ADD23C,0.250000*%
%ADD24C,0.127000*%
%ADD25C,0.500000*%
%ADD26C,0.254000*%
G04 APERTURE END LIST*
D10*
D11*
X65300000Y-112900000D03*
D12*
X65300000Y-110360000D03*
X65300000Y-107820000D03*
X65300000Y-105280000D03*
X65300000Y-102740000D03*
X65300000Y-100200000D03*
D13*
X77500000Y-128400000D03*
X78770000Y-128400000D03*
X76230000Y-128400000D03*
X85120000Y-128400000D03*
X87660000Y-128400000D03*
X86390000Y-128400000D03*
X82580000Y-128400000D03*
X83850000Y-128400000D03*
X81310000Y-128400000D03*
X80040000Y-128400000D03*
X97820000Y-128400000D03*
X99090000Y-128400000D03*
X100360000Y-128400000D03*
X94010000Y-128400000D03*
X96550000Y-128400000D03*
X95280000Y-128400000D03*
X91470000Y-128400000D03*
X92740000Y-128400000D03*
X90200000Y-128400000D03*
X88930000Y-128400000D03*
X88930000Y-127130000D03*
X90200000Y-127130000D03*
X91470000Y-127130000D03*
X95280000Y-127130000D03*
X96550000Y-127130000D03*
X94010000Y-127130000D03*
X92740000Y-127130000D03*
X100360000Y-127130000D03*
X99090000Y-127130000D03*
X97820000Y-127130000D03*
X80040000Y-127130000D03*
X81310000Y-127130000D03*
X82580000Y-127130000D03*
X86390000Y-127130000D03*
X87660000Y-127130000D03*
X85120000Y-127130000D03*
X83850000Y-127130000D03*
X76230000Y-127130000D03*
X78770000Y-127130000D03*
X77500000Y-127130000D03*
X74960000Y-128400000D03*
X73690000Y-128400000D03*
X73690000Y-127130000D03*
X74960000Y-127130000D03*
X72420000Y-128400000D03*
X72420000Y-127130000D03*
X71150000Y-127130000D03*
D14*
X71150000Y-128400000D03*
D15*
X92610000Y-109400000D03*
X92610000Y-110350000D03*
X92610000Y-111300000D03*
X94810000Y-111300000D03*
X94810000Y-109400000D03*
X94810000Y-110350000D03*
D16*
X113225000Y-82375000D03*
D17*
X115765000Y-82375000D03*
X113225000Y-84915000D03*
X115765000Y-84915000D03*
X113225000Y-87455000D03*
X115765000Y-87455000D03*
X113225000Y-89995000D03*
X115765000Y-89995000D03*
X113225000Y-92535000D03*
X115765000Y-92535000D03*
X113225000Y-95075000D03*
X115765000Y-95075000D03*
X113225000Y-97615000D03*
X115765000Y-97615000D03*
X113225000Y-100155000D03*
X115765000Y-100155000D03*
X113225000Y-102695000D03*
X115765000Y-102695000D03*
X113225000Y-105235000D03*
X115765000Y-105235000D03*
X113225000Y-107775000D03*
X115765000Y-107775000D03*
X113225000Y-110315000D03*
X115765000Y-110315000D03*
X113225000Y-112855000D03*
X115765000Y-112855000D03*
X113225000Y-115395000D03*
X115765000Y-115395000D03*
X113225000Y-117935000D03*
X115765000Y-117935000D03*
X113225000Y-120475000D03*
X115765000Y-120475000D03*
X113225000Y-123015000D03*
X115765000Y-123015000D03*
X113225000Y-125555000D03*
X115765000Y-125555000D03*
X113225000Y-128095000D03*
X115765000Y-128095000D03*
X113225000Y-130635000D03*
X115765000Y-130635000D03*
D11*
X65300000Y-129200000D03*
D12*
X65300000Y-126660000D03*
X65300000Y-124120000D03*
X65300000Y-121580000D03*
X65300000Y-119040000D03*
X65300000Y-116500000D03*
D11*
X65300000Y-96600000D03*
D12*
X65300000Y-94060000D03*
X65300000Y-91520000D03*
X65300000Y-88980000D03*
X65300000Y-86440000D03*
X65300000Y-83900000D03*
D11*
X71900000Y-77300000D03*
D12*
X74440000Y-77300000D03*
X76980000Y-77300000D03*
X79520000Y-77300000D03*
X82060000Y-77300000D03*
X84600000Y-77300000D03*
D11*
X103400000Y-77300000D03*
D12*
X105940000Y-77300000D03*
D13*
X77500000Y-134800000D03*
X78770000Y-134800000D03*
X76230000Y-134800000D03*
X85120000Y-134800000D03*
X87660000Y-134800000D03*
X86390000Y-134800000D03*
X82580000Y-134800000D03*
X83850000Y-134800000D03*
X81310000Y-134800000D03*
X80040000Y-134800000D03*
X97820000Y-134800000D03*
X99090000Y-134800000D03*
X100360000Y-134800000D03*
X94010000Y-134800000D03*
X96550000Y-134800000D03*
X95280000Y-134800000D03*
X91470000Y-134800000D03*
X92740000Y-134800000D03*
X90200000Y-134800000D03*
X88930000Y-134800000D03*
X88930000Y-133530000D03*
X90200000Y-133530000D03*
X91470000Y-133530000D03*
X95280000Y-133530000D03*
X96550000Y-133530000D03*
X94010000Y-133530000D03*
X92740000Y-133530000D03*
X100360000Y-133530000D03*
X99090000Y-133530000D03*
X97820000Y-133530000D03*
X80040000Y-133530000D03*
X81310000Y-133530000D03*
X82580000Y-133530000D03*
X86390000Y-133530000D03*
X87660000Y-133530000D03*
X85120000Y-133530000D03*
X83850000Y-133530000D03*
X76230000Y-133530000D03*
X78770000Y-133530000D03*
X77500000Y-133530000D03*
X74960000Y-134800000D03*
X73690000Y-134800000D03*
X73690000Y-133530000D03*
X74960000Y-133530000D03*
X72420000Y-134800000D03*
X72420000Y-133530000D03*
X71150000Y-133530000D03*
D14*
X71150000Y-134800000D03*
D15*
X92610000Y-77400000D03*
X92610000Y-78350000D03*
X92610000Y-79300000D03*
X94810000Y-79300000D03*
X94810000Y-77400000D03*
X94810000Y-78350000D03*
X92610000Y-81400000D03*
X92610000Y-82350000D03*
X92610000Y-83300000D03*
X94810000Y-83300000D03*
X94810000Y-81400000D03*
X94810000Y-82350000D03*
X92610000Y-85400000D03*
X92610000Y-86350000D03*
X92610000Y-87300000D03*
X94810000Y-87300000D03*
X94810000Y-85400000D03*
X94810000Y-86350000D03*
X92610000Y-89400000D03*
X92610000Y-90350000D03*
X92610000Y-91300000D03*
X94810000Y-91300000D03*
X94810000Y-89400000D03*
X94810000Y-90350000D03*
X92610000Y-93400000D03*
X92610000Y-94350000D03*
X92610000Y-95300000D03*
X94810000Y-95300000D03*
X94810000Y-93400000D03*
X94810000Y-94350000D03*
X92610000Y-97400000D03*
X92610000Y-98350000D03*
X92610000Y-99300000D03*
X94810000Y-99300000D03*
X94810000Y-97400000D03*
X94810000Y-98350000D03*
X92610000Y-101400000D03*
X92610000Y-102350000D03*
X92610000Y-103300000D03*
X94810000Y-103300000D03*
X94810000Y-101400000D03*
X94810000Y-102350000D03*
X92610000Y-105400000D03*
X92610000Y-106350000D03*
X92610000Y-107300000D03*
X94810000Y-107300000D03*
X94810000Y-105400000D03*
X94810000Y-106350000D03*
X92610000Y-113400000D03*
X92610000Y-114350000D03*
X92610000Y-115300000D03*
X94810000Y-115300000D03*
X94810000Y-113400000D03*
X94810000Y-114350000D03*
X92610000Y-117400000D03*
X92610000Y-118350000D03*
X92610000Y-119300000D03*
X94810000Y-119300000D03*
X94810000Y-117400000D03*
X94810000Y-118350000D03*
X92610000Y-121400000D03*
X92610000Y-122350000D03*
X92610000Y-123300000D03*
X94810000Y-123300000D03*
X94810000Y-121400000D03*
X94810000Y-122350000D03*
D18*
X87600000Y-77400000D03*
X87600000Y-78300000D03*
X98760000Y-76400000D03*
X97860000Y-76400000D03*
X98760000Y-80400000D03*
X97860000Y-80400000D03*
X98760000Y-84400000D03*
X97860000Y-84400000D03*
X98760000Y-88400000D03*
X97860000Y-88400000D03*
X89600000Y-77400000D03*
X89600000Y-78300000D03*
X89600000Y-81400000D03*
X89600000Y-82300000D03*
X89600000Y-85400000D03*
X89600000Y-86300000D03*
X89600000Y-89400000D03*
X89600000Y-90300000D03*
X98760000Y-92400000D03*
X97860000Y-92400000D03*
X98760000Y-96400000D03*
X97860000Y-96400000D03*
X98760000Y-100400000D03*
X97860000Y-100400000D03*
X98760000Y-104400000D03*
X97860000Y-104400000D03*
X89600000Y-93400000D03*
X89600000Y-94300000D03*
X89600000Y-97400000D03*
X89600000Y-98300000D03*
X89600000Y-101400000D03*
X89600000Y-102300000D03*
X89600000Y-105400000D03*
X89600000Y-106300000D03*
X98760000Y-108400000D03*
X97860000Y-108400000D03*
X98760000Y-112400000D03*
X97860000Y-112400000D03*
X98760000Y-116400000D03*
X97860000Y-116400000D03*
X98760000Y-120400000D03*
X97860000Y-120400000D03*
X89600000Y-109400000D03*
X89600000Y-110300000D03*
X89600000Y-113400000D03*
X89600000Y-114300000D03*
X89600000Y-117400000D03*
X89600000Y-118300000D03*
X89600000Y-121400000D03*
X89600000Y-122300000D03*
X98760000Y-78400000D03*
X97860000Y-78400000D03*
X87600000Y-81400000D03*
X87600000Y-82300000D03*
X98760000Y-82400000D03*
X97860000Y-82400000D03*
X87650000Y-85400000D03*
X87650000Y-86300000D03*
X98760000Y-86400000D03*
X97860000Y-86400000D03*
X87600000Y-89400000D03*
X87600000Y-90300000D03*
X98760000Y-90400000D03*
X97860000Y-90400000D03*
X87600000Y-93400000D03*
X87600000Y-94300000D03*
X98760000Y-94400000D03*
X97860000Y-94400000D03*
X87600000Y-97400000D03*
X87600000Y-98300000D03*
X98760000Y-98400000D03*
X97860000Y-98400000D03*
X87600000Y-101400000D03*
X87600000Y-102300000D03*
X98760000Y-102400000D03*
X97860000Y-102400000D03*
X87600000Y-105400000D03*
X87600000Y-106300000D03*
X98760000Y-106400000D03*
X97860000Y-106400000D03*
X87600000Y-109400000D03*
X87600000Y-110300000D03*
X98760000Y-110400000D03*
X97860000Y-110400000D03*
X87600000Y-113400000D03*
X87600000Y-114300000D03*
X98760000Y-114400000D03*
X97860000Y-114400000D03*
X87600000Y-117400000D03*
X87600000Y-118300000D03*
X98760000Y-118400000D03*
X97860000Y-118400000D03*
X87600000Y-121400000D03*
X87600000Y-122300000D03*
X98760000Y-122400000D03*
X97860000Y-122400000D03*
D19*
X65500000Y-77500000D03*
X114500000Y-77500000D03*
D20*
X65500000Y-135500000D03*
D19*
X114500000Y-135500000D03*
D12*
X109600000Y-79300000D03*
X109600000Y-76760000D03*
D21*
X90600000Y-78350000D03*
X101800000Y-76400000D03*
X111500000Y-131200000D03*
X103800000Y-84400000D03*
X108000000Y-108400000D03*
X109250000Y-112400000D03*
X88600000Y-98350000D03*
X88600000Y-118350000D03*
X104500000Y-88400000D03*
X88600000Y-106350000D03*
X106300000Y-92400000D03*
X106700000Y-96400000D03*
X105200000Y-92400000D03*
X105600000Y-88400000D03*
X99600000Y-123850000D03*
X105900000Y-96400000D03*
X108850000Y-104400000D03*
X104900000Y-84400000D03*
X100350000Y-123850000D03*
X111500000Y-130350000D03*
X110700000Y-131200000D03*
X108600000Y-112400000D03*
X109970000Y-116410000D03*
X100350000Y-118400000D03*
X99600000Y-118400000D03*
X100350000Y-120400000D03*
X108650000Y-108400000D03*
X99600000Y-124500000D03*
X110700000Y-130350000D03*
X99600000Y-120400000D03*
X108000000Y-104400000D03*
X100350000Y-124500000D03*
X107450000Y-92400000D03*
X99600000Y-122400000D03*
X100350000Y-122400000D03*
X100300000Y-116450000D03*
X99650000Y-116450000D03*
X99600000Y-114400000D03*
X100350000Y-114400000D03*
X100350000Y-106400000D03*
X99600000Y-106400000D03*
X99600000Y-108400000D03*
X100350000Y-108400000D03*
X100350000Y-112400000D03*
X99600000Y-112400000D03*
X99600000Y-110400000D03*
X100350000Y-110400000D03*
X100350000Y-90400000D03*
X99600000Y-90400000D03*
X99600000Y-92400000D03*
X100350000Y-92400000D03*
X100350000Y-88400000D03*
X99600000Y-88400000D03*
X99600000Y-86400000D03*
X100350000Y-86400000D03*
X100350000Y-94400000D03*
X99600000Y-94400000D03*
X99600000Y-96400000D03*
X100350000Y-96400000D03*
X100350000Y-104400000D03*
X99600000Y-104400000D03*
X99600000Y-98400000D03*
X100350000Y-98400000D03*
X100350000Y-84400000D03*
X99600000Y-84400000D03*
X99600000Y-82400000D03*
X100350000Y-82400000D03*
X88600000Y-114350000D03*
X88600000Y-122350000D03*
X88600000Y-78350000D03*
X88600000Y-94350000D03*
X88600000Y-110400000D03*
X88600000Y-102350000D03*
X88650000Y-86350000D03*
X88600000Y-90350000D03*
X88600000Y-82350000D03*
X85650000Y-106350000D03*
X84850000Y-106350000D03*
X84850000Y-102350000D03*
X85650000Y-102350000D03*
X85650000Y-86350000D03*
X84850000Y-86350000D03*
X84850000Y-94350000D03*
X85650000Y-94350000D03*
X85650000Y-98350000D03*
X84850000Y-98350000D03*
X84850000Y-90350000D03*
X85650000Y-90350000D03*
X85650000Y-114350000D03*
X84850000Y-114350000D03*
X84900000Y-110350000D03*
X85700000Y-110350000D03*
X85650000Y-82350000D03*
X84850000Y-82350000D03*
X101100000Y-76400000D03*
X100400000Y-76400000D03*
X101800000Y-77150000D03*
X91400000Y-78350000D03*
X91400000Y-90350000D03*
X90600000Y-90350000D03*
X90600000Y-106350000D03*
X91400000Y-106350000D03*
X91400000Y-86350000D03*
X90600000Y-86350000D03*
X90600000Y-118350000D03*
X91400000Y-118350000D03*
X91400000Y-114350000D03*
X90600000Y-114350000D03*
X90600000Y-110350000D03*
X91400000Y-110350000D03*
X91400000Y-122350000D03*
X90600000Y-122350000D03*
X90600000Y-94350000D03*
X91400000Y-94350000D03*
X91400000Y-102350000D03*
X90600000Y-102350000D03*
X90600000Y-98350000D03*
X91400000Y-98350000D03*
X91400000Y-82350000D03*
X90600000Y-82350000D03*
X91000000Y-77400000D03*
X91000000Y-81400000D03*
X91000000Y-85400000D03*
X91000000Y-89400000D03*
X91000000Y-93400000D03*
X91000000Y-97400000D03*
X78800000Y-120700000D03*
X91000000Y-101400000D03*
X80200000Y-120700000D03*
X91000000Y-105400000D03*
X91000000Y-109400000D03*
X81600000Y-120700000D03*
X91000000Y-113400000D03*
X91000000Y-117400000D03*
X78100000Y-121400000D03*
X79500000Y-121400000D03*
X80900000Y-121400000D03*
X85000000Y-120000000D03*
X91000000Y-120000000D03*
X85000000Y-119100000D03*
X84900000Y-116700000D03*
X84100000Y-116000000D03*
X91000000Y-116000000D03*
X84000000Y-112700000D03*
X83100000Y-112000000D03*
X91000000Y-112000000D03*
X82600000Y-108700000D03*
X81900000Y-108000000D03*
X91000000Y-108000000D03*
X81050000Y-104700000D03*
X80300000Y-104000000D03*
X91000000Y-104000000D03*
X80000000Y-100700000D03*
X79200000Y-100000000D03*
X91000000Y-100000000D03*
X79850000Y-96700000D03*
X80650000Y-96000000D03*
X91000000Y-96000000D03*
X81200000Y-92700000D03*
X91000000Y-92000000D03*
X82000000Y-92000000D03*
X82850000Y-88700000D03*
X83600000Y-88000000D03*
X91000000Y-88000000D03*
X83550000Y-84700000D03*
X82800000Y-84000000D03*
X91000000Y-84000000D03*
X82800000Y-80700000D03*
X82050000Y-80000000D03*
X91000000Y-80000000D03*
X96500000Y-77200000D03*
X96500000Y-81200000D03*
X96500000Y-85200000D03*
X96500000Y-89200000D03*
X96500000Y-93200000D03*
X96500000Y-97200000D03*
X96500000Y-101200000D03*
X96500000Y-105200000D03*
X111200000Y-112950000D03*
X110925000Y-112025000D03*
X96500000Y-109200000D03*
X96500000Y-113200000D03*
X110700000Y-113900000D03*
X96500000Y-117200000D03*
X97000000Y-121200000D03*
X106610000Y-132830000D03*
X108050000Y-106900000D03*
X96200000Y-106100000D03*
X106240000Y-132060000D03*
X106750000Y-106900000D03*
X107370000Y-134370000D03*
X108800000Y-110900000D03*
X96200000Y-110100000D03*
X107740000Y-135140000D03*
X108250000Y-114900000D03*
X109850000Y-118900000D03*
X106000000Y-135800000D03*
X96200000Y-118200000D03*
X104900000Y-134400000D03*
X109550000Y-114900000D03*
X96200000Y-114100000D03*
X106990000Y-133600000D03*
X107500000Y-110900000D03*
X105100000Y-136500000D03*
X109750000Y-122750000D03*
X105600000Y-137300000D03*
X97000000Y-122100000D03*
X109750000Y-121900000D03*
X105500000Y-135100000D03*
X109000000Y-118900000D03*
X103700000Y-90900000D03*
X101450000Y-135650000D03*
X105800000Y-94900000D03*
X96200000Y-94100000D03*
X104500000Y-94900000D03*
X104200000Y-137650000D03*
X107300000Y-102900000D03*
X96200000Y-102100000D03*
X103450000Y-137250000D03*
X106000000Y-102900000D03*
X102100000Y-136200000D03*
X105250000Y-98900000D03*
X102750000Y-136750000D03*
X106550000Y-98900000D03*
X96200000Y-98100000D03*
X104400000Y-86800000D03*
X96200000Y-86100000D03*
X105000000Y-90900000D03*
X96200000Y-90100000D03*
X102950000Y-86850000D03*
X103550000Y-83000000D03*
X96200000Y-82100000D03*
X102200000Y-83000000D03*
X100250000Y-79000000D03*
X101200000Y-79450000D03*
X96200000Y-78150000D03*
X109130000Y-116400000D03*
X110370000Y-118220000D03*
X105150000Y-94350000D03*
X108900000Y-114350000D03*
X108150000Y-110350000D03*
X107400000Y-106350000D03*
X106650000Y-102350000D03*
X105900000Y-98350000D03*
X104350000Y-90350000D03*
X103650000Y-86350000D03*
X102900000Y-82400000D03*
X99600000Y-80400000D03*
X99600000Y-78400000D03*
X107300000Y-104400000D03*
X86500000Y-78550000D03*
X106300000Y-84400000D03*
X107000000Y-88400000D03*
X107500000Y-96400000D03*
X110100000Y-120300000D03*
X99650000Y-102400000D03*
X99650000Y-100400000D03*
X86500000Y-118300000D03*
X86500000Y-114300000D03*
X86500000Y-110300000D03*
X86500000Y-106300000D03*
X86500000Y-102300000D03*
X86500000Y-98300000D03*
X86500000Y-94300000D03*
X86500000Y-90300000D03*
X86500000Y-86300000D03*
X86500000Y-82300000D03*
X99700000Y-76400000D03*
X100500000Y-100400000D03*
X108300000Y-100400000D03*
X92900000Y-120350000D03*
X92850000Y-116350000D03*
X92850000Y-112400000D03*
X92650000Y-108350000D03*
X92750000Y-104350000D03*
X92650000Y-100350000D03*
X92750000Y-96400000D03*
X92750000Y-92350000D03*
X92750000Y-88350000D03*
X96800000Y-123290000D03*
X92700000Y-84350000D03*
X92650000Y-80350000D03*
X106750000Y-79150000D03*
X102650000Y-79250000D03*
D22*
X69950000Y-128400000D03*
D23*
X92610000Y-77400000D02*
X91000000Y-77400000D01*
X91000000Y-77400000D02*
X89610000Y-77400000D01*
X89610000Y-77400000D02*
X87610000Y-77400000D01*
X87610000Y-81400000D02*
X89610000Y-81400000D01*
X89610000Y-81400000D02*
X91000000Y-81400000D01*
X91000000Y-81400000D02*
X92610000Y-81400000D01*
X91000000Y-85400000D02*
X89600000Y-85400000D01*
X89600000Y-85400000D02*
X87650000Y-85400000D01*
X92610000Y-85400000D02*
X91000000Y-85400000D01*
X92610000Y-89400000D02*
X91000000Y-89400000D01*
X91000000Y-89400000D02*
X89600000Y-89400000D01*
X89600000Y-89400000D02*
X87600000Y-89400000D01*
X92610000Y-93400000D02*
X91000000Y-93400000D01*
X91000000Y-93400000D02*
X89600000Y-93400000D01*
X89600000Y-93400000D02*
X87600000Y-93400000D01*
X92610000Y-97400000D02*
X91000000Y-97400000D01*
X91000000Y-97400000D02*
X89600000Y-97400000D01*
X89600000Y-97400000D02*
X87600000Y-97400000D01*
X86390000Y-127130000D02*
X86390000Y-126240000D01*
X86390000Y-126240000D02*
X85950010Y-125800010D01*
X78800000Y-121700000D02*
X78800000Y-121814220D01*
X78800000Y-120700000D02*
X78800000Y-121700000D01*
X85285790Y-125800010D02*
X85950010Y-125800010D01*
X83199998Y-123714218D02*
X85285790Y-125800010D01*
X83199998Y-123307108D02*
X83199998Y-123714218D01*
X82992894Y-123100004D02*
X83199998Y-123307108D01*
X80085784Y-123100004D02*
X82992894Y-123100004D01*
X78800000Y-121814220D02*
X80085784Y-123100004D01*
X92610000Y-101400000D02*
X91000000Y-101400000D01*
X91000000Y-101400000D02*
X89600000Y-101400000D01*
X89600000Y-101400000D02*
X87600000Y-101400000D01*
X88930000Y-127130000D02*
X88930000Y-125130000D01*
X88930000Y-125130000D02*
X88600006Y-124800006D01*
X84100000Y-122300000D02*
X84300000Y-122500000D01*
X83500000Y-122100000D02*
X83700000Y-122300000D01*
X83700000Y-122300000D02*
X84100000Y-122300000D01*
X81300000Y-122100000D02*
X80500000Y-122100000D01*
X80200000Y-120700000D02*
X80200000Y-121800000D01*
X80500000Y-122100000D02*
X80200000Y-121800000D01*
X81300000Y-122100000D02*
X83500000Y-122100000D01*
X85700006Y-124800006D02*
X88600006Y-124800006D01*
X84300000Y-123400000D02*
X85700006Y-124800006D01*
X84300000Y-122500000D02*
X84300000Y-123400000D01*
X92610000Y-105400000D02*
X91000000Y-105400000D01*
X91000000Y-105400000D02*
X89600000Y-105400000D01*
X89600000Y-105400000D02*
X87600000Y-105400000D01*
X91470000Y-127130000D02*
X91470000Y-124120000D01*
X91470000Y-124120000D02*
X91150002Y-123800002D01*
X89600000Y-109400000D02*
X87600000Y-109400000D01*
X91000000Y-109400000D02*
X89600000Y-109400000D01*
X85399998Y-121900000D02*
X85399998Y-123007108D01*
X83792890Y-120700000D02*
X84292892Y-121200002D01*
X84292892Y-121200002D02*
X85300000Y-121200002D01*
X85300000Y-121200002D02*
X85399998Y-121300000D01*
X85399998Y-121300000D02*
X85399998Y-121900000D01*
X81600000Y-120700000D02*
X83792890Y-120700000D01*
X86192892Y-123800002D02*
X91150002Y-123800002D01*
X85399998Y-123007108D02*
X86192892Y-123800002D01*
X92610000Y-109400000D02*
X91000000Y-109400000D01*
X91000000Y-109400000D02*
X89300000Y-109400000D01*
X89300000Y-109400000D02*
X87600000Y-109400000D01*
X92610000Y-113400000D02*
X91000000Y-113400000D01*
X91000000Y-113400000D02*
X89600000Y-113400000D01*
X89600000Y-113400000D02*
X87600000Y-113400000D01*
X92610000Y-117400000D02*
X91000000Y-117400000D01*
X91000000Y-117400000D02*
X89600000Y-117400000D01*
X89600000Y-117400000D02*
X87600000Y-117400000D01*
X99090000Y-127130000D02*
X99090000Y-126490000D01*
X99090000Y-126490000D02*
X98600000Y-126000000D01*
X92610000Y-121400000D02*
X93400000Y-121400000D01*
X94000000Y-126000000D02*
X98600000Y-126000000D01*
X93700000Y-125700000D02*
X94000000Y-126000000D01*
X93700000Y-121700000D02*
X93700000Y-125700000D01*
X93400000Y-121400000D02*
X93700000Y-121700000D01*
X92610000Y-121400000D02*
X91000000Y-121400000D01*
X91000000Y-121400000D02*
X89600000Y-121400000D01*
X89600000Y-121400000D02*
X87600000Y-121400000D01*
X85120000Y-127130000D02*
X85120000Y-126341330D01*
X84900000Y-126150000D02*
X84900000Y-126121330D01*
X84928670Y-126150000D02*
X84900000Y-126150000D01*
X85120000Y-126341330D02*
X84928670Y-126150000D01*
X78100000Y-121400000D02*
X78100000Y-121821330D01*
X82700000Y-123921330D02*
X84900000Y-126121330D01*
X82700000Y-123800000D02*
X82700000Y-123921330D01*
X82500006Y-123600006D02*
X82700000Y-123800000D01*
X79878676Y-123600006D02*
X82500006Y-123600006D01*
X78100000Y-121821330D02*
X79878676Y-123600006D01*
X87660000Y-127130000D02*
X87660000Y-125510000D01*
X87660000Y-125510000D02*
X87450008Y-125300008D01*
X79500000Y-121400000D02*
X79500000Y-121807110D01*
X85492898Y-125300008D02*
X87450008Y-125300008D01*
X83700000Y-123507110D02*
X85492898Y-125300008D01*
X83700000Y-123100000D02*
X83700000Y-123507110D01*
X83200002Y-122600002D02*
X83700000Y-123100000D01*
X80292892Y-122600002D02*
X83200002Y-122600002D01*
X79500000Y-121807110D02*
X80292892Y-122600002D01*
X90200000Y-127130000D02*
X90200000Y-124600000D01*
X90200000Y-124600000D02*
X89900004Y-124300004D01*
X80900000Y-121400000D02*
X83600000Y-121400000D01*
X85985784Y-124300004D02*
X89900004Y-124300004D01*
X84899996Y-123214216D02*
X85985784Y-124300004D01*
X84899996Y-121900000D02*
X84899996Y-123214216D01*
X84700000Y-121700004D02*
X84899996Y-121900000D01*
X83900004Y-121700004D02*
X84700000Y-121700004D01*
X83600000Y-121400000D02*
X83900004Y-121700004D01*
X67500000Y-129200000D02*
X68300000Y-129200000D01*
X67500000Y-129200000D02*
X65300000Y-129200000D01*
X68300000Y-129200000D02*
X68600002Y-128899998D01*
X68600002Y-128899998D02*
X68600002Y-121200000D01*
X68600002Y-120200000D02*
X68600002Y-121200000D01*
X68800002Y-120000000D02*
X68600002Y-120200000D01*
X69900000Y-120000000D02*
X68800002Y-120000000D01*
X84000000Y-120200000D02*
X83800000Y-120000000D01*
X85600000Y-120700000D02*
X84500000Y-120700000D01*
X85900000Y-121000000D02*
X85600000Y-120700000D01*
X92610000Y-123300000D02*
X86400000Y-123300000D01*
X85900000Y-122800000D02*
X85900000Y-121200000D01*
X86400000Y-123300000D02*
X85900000Y-122800000D01*
X85900000Y-121200000D02*
X85900000Y-121000000D01*
X84500000Y-120700000D02*
X84200000Y-120400000D01*
X84000000Y-120200000D02*
X84200000Y-120400000D01*
X83800000Y-120000000D02*
X69900000Y-120000000D01*
X68600002Y-121200000D02*
X68600002Y-121499998D01*
X68600002Y-121499998D02*
X68600000Y-121500000D01*
X68050000Y-121200000D02*
X68050000Y-126200000D01*
X67590000Y-126660000D02*
X65300000Y-126660000D01*
X68050000Y-126200000D02*
X67590000Y-126660000D01*
X68750000Y-119400000D02*
X68250000Y-119400000D01*
X68050000Y-119600000D02*
X68050000Y-121200000D01*
X68250000Y-119400000D02*
X68050000Y-119600000D01*
X83850000Y-119400000D02*
X84300000Y-119400000D01*
X84900000Y-120000000D02*
X84300000Y-119400000D01*
X84900000Y-120000000D02*
X85000000Y-120000000D01*
X69400000Y-119400000D02*
X68750000Y-119400000D01*
X65640000Y-126660000D02*
X65300000Y-126660000D01*
X83850000Y-119400000D02*
X69400000Y-119400000D01*
X67500002Y-120550000D02*
X67500002Y-123649998D01*
X67030000Y-124120000D02*
X65300000Y-124120000D01*
X67500002Y-123649998D02*
X67030000Y-124120000D01*
X67500002Y-119600000D02*
X67500002Y-120550000D01*
X67900002Y-118700000D02*
X67500002Y-119100000D01*
X67500002Y-119100000D02*
X67500002Y-119600000D01*
X69600000Y-118700000D02*
X67900002Y-118700000D01*
X65300000Y-123700000D02*
X65300000Y-124120000D01*
X85000000Y-119100000D02*
X84600000Y-118700000D01*
X92600000Y-119300000D02*
X91900000Y-120000000D01*
X91900000Y-120000000D02*
X91000000Y-120000000D01*
X84600000Y-118700000D02*
X69600000Y-118700000D01*
X92610000Y-119300000D02*
X92600000Y-119300000D01*
X68600000Y-116700000D02*
X68000000Y-116700000D01*
X67000000Y-118300000D02*
X67000000Y-118800000D01*
X67600000Y-117700000D02*
X67000000Y-118300000D01*
X67600000Y-117100000D02*
X67600000Y-117700000D01*
X68000000Y-116700000D02*
X67600000Y-117100000D01*
X68600000Y-116700000D02*
X69100000Y-116700000D01*
X67000000Y-119250000D02*
X67000000Y-118800000D01*
X67000000Y-119250000D02*
X67000000Y-120000000D01*
X66670000Y-121580000D02*
X67000000Y-121250000D01*
X67000000Y-121250000D02*
X67000000Y-120000000D01*
X65300000Y-121580000D02*
X66670000Y-121580000D01*
X84900000Y-116700000D02*
X69100000Y-116700000D01*
X65300000Y-121200000D02*
X65300000Y-121580000D01*
X68300000Y-116000000D02*
X67400000Y-116000000D01*
X67000000Y-117340000D02*
X66340000Y-118000000D01*
X67000000Y-116400000D02*
X67000000Y-117340000D01*
X67400000Y-116000000D02*
X67000000Y-116400000D01*
X84100000Y-116000000D02*
X68300000Y-116000000D01*
X92600000Y-115300000D02*
X91900000Y-116000000D01*
X91900000Y-116000000D02*
X91000000Y-116000000D01*
X66340000Y-118000000D02*
X65300000Y-119040000D01*
X92610000Y-115300000D02*
X92600000Y-115300000D01*
X68300000Y-112700000D02*
X67700000Y-112700000D01*
X67300000Y-114500000D02*
X66600000Y-115200000D01*
X67300000Y-113100000D02*
X67300000Y-114500000D01*
X67700000Y-112700000D02*
X67300000Y-113100000D01*
X65300000Y-116500000D02*
X66200000Y-115600000D01*
X66200000Y-115600000D02*
X66600000Y-115200000D01*
X84000000Y-112700000D02*
X68300000Y-112700000D01*
X65850000Y-116740000D02*
X65410000Y-117180000D01*
X83100000Y-112000000D02*
X66200000Y-112000000D01*
X66200000Y-112000000D02*
X65300000Y-112900000D01*
X92600000Y-111300000D02*
X91900000Y-112000000D01*
X91900000Y-112000000D02*
X91000000Y-112000000D01*
X92610000Y-111300000D02*
X92600000Y-111300000D01*
X65300000Y-110360000D02*
X67490000Y-110360000D01*
X67750000Y-109000000D02*
X68050000Y-108700000D01*
X67750000Y-110100000D02*
X67750000Y-109000000D01*
X67490000Y-110360000D02*
X67750000Y-110100000D01*
X82600000Y-108700000D02*
X68300000Y-108700000D01*
X68300000Y-108700000D02*
X68050000Y-108700000D01*
X65480000Y-108000000D02*
X81900000Y-108000000D01*
X91900000Y-108000000D02*
X92600000Y-107300000D01*
X91900000Y-108000000D02*
X91000000Y-108000000D01*
X65480000Y-108000000D02*
X65300000Y-107820000D01*
X92610000Y-107300000D02*
X92600000Y-107300000D01*
X81050000Y-104700000D02*
X65880000Y-104700000D01*
X65880000Y-104700000D02*
X65300000Y-105280000D01*
X79890000Y-102740000D02*
X65300000Y-102740000D01*
X80300000Y-103150000D02*
X79890000Y-102740000D01*
X80300000Y-103250000D02*
X80300000Y-103150000D01*
X80300000Y-104000000D02*
X80300000Y-103250000D01*
X92600000Y-103300000D02*
X91900000Y-104000000D01*
X91900000Y-104000000D02*
X91000000Y-104000000D01*
X65360000Y-102800000D02*
X65300000Y-102740000D01*
X92610000Y-103300000D02*
X92600000Y-103300000D01*
X65800000Y-100700000D02*
X80000000Y-100700000D01*
X65800000Y-100700000D02*
X65300000Y-100200000D01*
X78900000Y-96600000D02*
X65300000Y-96600000D01*
X79000000Y-96700000D02*
X78900000Y-96600000D01*
X79000000Y-99800000D02*
X79000000Y-96700000D01*
X79200000Y-100000000D02*
X79000000Y-99800000D01*
X92600000Y-99300000D02*
X91900000Y-100000000D01*
X91900000Y-100000000D02*
X91000000Y-100000000D01*
X92610000Y-99300000D02*
X92600000Y-99300000D01*
X79850000Y-94700000D02*
X79850000Y-94650000D01*
X79850000Y-94650000D02*
X79260000Y-94060000D01*
X79050000Y-94060000D02*
X79260000Y-94060000D01*
X79050000Y-94060000D02*
X65300000Y-94060000D01*
X79850000Y-96700000D02*
X79850000Y-94700000D01*
X80650000Y-96000000D02*
X80550000Y-96000000D01*
X80350002Y-93200002D02*
X79900000Y-92750000D01*
X80350002Y-95800002D02*
X80350002Y-93200002D01*
X80550000Y-96000000D02*
X80350002Y-95800002D01*
X66370000Y-91520000D02*
X65300000Y-91520000D01*
X66550000Y-91700000D02*
X66370000Y-91520000D01*
X66550000Y-92350000D02*
X66550000Y-91700000D01*
X66950000Y-92750000D02*
X66550000Y-92350000D01*
X79900000Y-92750000D02*
X66950000Y-92750000D01*
X65680000Y-91900000D02*
X65300000Y-91520000D01*
X91900000Y-96000000D02*
X92600000Y-95300000D01*
X91900000Y-96000000D02*
X91000000Y-96000000D01*
X65480000Y-91700000D02*
X65300000Y-91520000D01*
X92610000Y-95300000D02*
X92600000Y-95300000D01*
X81200000Y-89900000D02*
X81200000Y-89350000D01*
X81200000Y-89350000D02*
X80830000Y-88980000D01*
X80600000Y-88980000D02*
X80830000Y-88980000D01*
X80600000Y-88980000D02*
X65300000Y-88980000D01*
X81200000Y-92700000D02*
X81200000Y-90700000D01*
X81200000Y-90700000D02*
X81200000Y-89900000D01*
X65580000Y-88700000D02*
X65300000Y-88980000D01*
X68250000Y-88479998D02*
X67629998Y-88479998D01*
X67629998Y-88479998D02*
X67625000Y-88475000D01*
X67300000Y-88150000D02*
X67300000Y-87700000D01*
X67625000Y-88475000D02*
X67300000Y-88150000D01*
X91900000Y-92000000D02*
X92600000Y-91300000D01*
X91900000Y-92000000D02*
X91000000Y-92000000D01*
X82000000Y-92000000D02*
X82000000Y-90800000D01*
X82000000Y-90800000D02*
X82000000Y-88850000D01*
X82000000Y-88850000D02*
X81629998Y-88479998D01*
X81629998Y-88479998D02*
X68250000Y-88479998D01*
X67040000Y-86440000D02*
X65300000Y-86440000D01*
X67300000Y-87700000D02*
X67300000Y-86700000D01*
X67300000Y-86700000D02*
X67040000Y-86440000D01*
X65360000Y-86500000D02*
X65300000Y-86440000D01*
X92610000Y-91300000D02*
X92600000Y-91300000D01*
X80450000Y-87800000D02*
X81800000Y-87800000D01*
X82850000Y-88700000D02*
X81950000Y-87800000D01*
X81950000Y-87800000D02*
X81800000Y-87800000D01*
X68100000Y-87600000D02*
X68100000Y-86500000D01*
X68300000Y-87800000D02*
X68100000Y-87600000D01*
X80450000Y-87800000D02*
X68300000Y-87800000D01*
X68100000Y-84200000D02*
X67800000Y-83900000D01*
X67800000Y-83900000D02*
X65300000Y-83900000D01*
X68100000Y-86500000D02*
X68100000Y-84200000D01*
X71900000Y-77300000D02*
X71900000Y-85700000D01*
X71900000Y-85700000D02*
X72300000Y-86100000D01*
X83150000Y-86450000D02*
X82800000Y-86100000D01*
X83150000Y-87550000D02*
X83150000Y-86450000D01*
X83600000Y-88000000D02*
X83150000Y-87550000D01*
X82300000Y-86100000D02*
X72300000Y-86100000D01*
X82800000Y-86100000D02*
X82300000Y-86100000D01*
X92600000Y-87300000D02*
X91900000Y-88000000D01*
X91900000Y-88000000D02*
X91000000Y-88000000D01*
X92610000Y-87300000D02*
X92600000Y-87300000D01*
X74440000Y-77300000D02*
X74440000Y-84040000D01*
X74440000Y-84040000D02*
X75100000Y-84700000D01*
X83550000Y-84700000D02*
X75100000Y-84700000D01*
X76980000Y-77300000D02*
X76980000Y-83580000D01*
X76980000Y-83580000D02*
X77400000Y-84000000D01*
X82800000Y-84000000D02*
X77400000Y-84000000D01*
X92600000Y-83300000D02*
X91900000Y-84000000D01*
X91900000Y-84000000D02*
X91000000Y-84000000D01*
X92610000Y-83300000D02*
X92600000Y-83300000D01*
X92610000Y-83300000D02*
X92210000Y-83300000D01*
X82800000Y-80700000D02*
X81400000Y-80700000D01*
X79520000Y-77300000D02*
X79520000Y-80470000D01*
X79520000Y-80470000D02*
X79750000Y-80700000D01*
X81400000Y-80700000D02*
X79750000Y-80700000D01*
X82060000Y-77300000D02*
X82060000Y-79990000D01*
X82060000Y-79990000D02*
X82050000Y-80000000D01*
X91900000Y-80000000D02*
X91000000Y-80000000D01*
X92600000Y-79300000D02*
X91900000Y-80000000D01*
X92610000Y-79300000D02*
X92600000Y-79300000D01*
X100350000Y-80400000D02*
X100350000Y-80450000D01*
X99900000Y-79600000D02*
X100350000Y-80050000D01*
X100350000Y-80050000D02*
X100350000Y-80400000D01*
X99700000Y-79600000D02*
X99900000Y-79600000D01*
X100500000Y-80600000D02*
X101500000Y-80600000D01*
X100350000Y-80450000D02*
X100500000Y-80600000D01*
X107000000Y-81800000D02*
X107250000Y-82050000D01*
X101500000Y-80600000D02*
X104800000Y-80600000D01*
X104800000Y-80600000D02*
X106700000Y-80600000D01*
X106700000Y-80600000D02*
X107000000Y-80900000D01*
X107000000Y-80900000D02*
X107000000Y-81800000D01*
X109100000Y-82700000D02*
X111099998Y-82700000D01*
X107900000Y-82700000D02*
X109100000Y-82700000D01*
X107250000Y-82050000D02*
X107900000Y-82700000D01*
X111895000Y-89995000D02*
X113225000Y-89995000D01*
X111399998Y-89499998D02*
X111895000Y-89995000D01*
X111399998Y-83000000D02*
X111399998Y-89499998D01*
X111099998Y-82700000D02*
X111399998Y-83000000D01*
X95150000Y-79600000D02*
X99700000Y-79600000D01*
X107250000Y-82050000D02*
X107300000Y-82100000D01*
X94810000Y-79300000D02*
X94850000Y-79300000D01*
X94850000Y-79300000D02*
X95150000Y-79600000D01*
X94810000Y-79300000D02*
X94810000Y-79400000D01*
X101900000Y-78950000D02*
X101900000Y-78650000D01*
X102200000Y-80000000D02*
X101900000Y-79700000D01*
X101900000Y-79700000D02*
X101900000Y-78950000D01*
X102650000Y-80000000D02*
X102200000Y-80000000D01*
X101900000Y-78650000D02*
X101750000Y-78500000D01*
X100997568Y-78177432D02*
X100997568Y-78172568D01*
X101020136Y-78200000D02*
X100997568Y-78177432D01*
X101450000Y-78200000D02*
X101020136Y-78200000D01*
X101750000Y-78500000D02*
X101450000Y-78200000D01*
X100400000Y-77200000D02*
X99975000Y-77200000D01*
X99975000Y-77200000D02*
X96500000Y-77200000D01*
X100400000Y-77200000D02*
X100700000Y-77500000D01*
X100700000Y-77500000D02*
X100700000Y-77875000D01*
X100700000Y-77875000D02*
X100997568Y-78172568D01*
X115400000Y-88700000D02*
X115765000Y-89065000D01*
X115765000Y-89065000D02*
X115765000Y-89995000D01*
X112300000Y-88700000D02*
X114300000Y-88700000D01*
X111900000Y-88300000D02*
X112300000Y-88700000D01*
X111900000Y-82400000D02*
X111900000Y-88300000D01*
X111600000Y-82100000D02*
X111900000Y-82400000D01*
X108200000Y-82100000D02*
X111600000Y-82100000D01*
X107600000Y-81500000D02*
X108200000Y-82100000D01*
X107600000Y-80400000D02*
X107600000Y-81500000D01*
X107200000Y-80000000D02*
X107600000Y-80400000D01*
X102650000Y-80000000D02*
X107200000Y-80000000D01*
X114300000Y-88700000D02*
X115400000Y-88700000D01*
X113900000Y-91300000D02*
X115400000Y-91300000D01*
X106200000Y-81200000D02*
X106400000Y-81400000D01*
X106400000Y-81400000D02*
X106400000Y-82100000D01*
X106400000Y-82100000D02*
X107500002Y-83200002D01*
X107500002Y-83200002D02*
X110700002Y-83200002D01*
X110700002Y-83200002D02*
X110899996Y-83399996D01*
X110899996Y-83399996D02*
X110899996Y-90699996D01*
X110899996Y-90699996D02*
X111500000Y-91300000D01*
X111500000Y-91300000D02*
X113900000Y-91300000D01*
X100900000Y-81200000D02*
X96500000Y-81200000D01*
X100900000Y-81200000D02*
X106200000Y-81200000D01*
X115765000Y-91665000D02*
X115765000Y-92535000D01*
X115400000Y-91300000D02*
X115765000Y-91665000D01*
X100700000Y-85200000D02*
X109600000Y-85200000D01*
X100700000Y-85200000D02*
X96500000Y-85200000D01*
X111775000Y-95075000D02*
X113225000Y-95075000D01*
X111399998Y-94699998D02*
X111775000Y-95075000D01*
X111399998Y-92614218D02*
X111399998Y-94699998D01*
X109899992Y-91114212D02*
X111399998Y-92614218D01*
X109899992Y-85499992D02*
X109899992Y-91114212D01*
X109600000Y-85200000D02*
X109899992Y-85499992D01*
X94810000Y-83300000D02*
X94810000Y-83310000D01*
X94810000Y-83310000D02*
X95200000Y-83700000D01*
X95200000Y-83700000D02*
X107200000Y-83700000D01*
X113900000Y-93800000D02*
X115500000Y-93800000D01*
X111900000Y-93500000D02*
X112200000Y-93800000D01*
X112200000Y-93800000D02*
X113900000Y-93800000D01*
X107700000Y-83800000D02*
X110299994Y-83800000D01*
X107200000Y-83700000D02*
X107300000Y-83800000D01*
X107300000Y-83800000D02*
X107700000Y-83800000D01*
X111900000Y-92407110D02*
X111900000Y-92500000D01*
X110399994Y-90907104D02*
X111900000Y-92407110D01*
X110399994Y-83900000D02*
X110399994Y-90907104D01*
X110299994Y-83800000D02*
X110399994Y-83900000D01*
X111900000Y-92500000D02*
X111900000Y-93500000D01*
X115765000Y-94065000D02*
X115765000Y-95075000D01*
X115500000Y-93800000D02*
X115765000Y-94065000D01*
X94810000Y-83310000D02*
X95100000Y-83600000D01*
X100700000Y-87600000D02*
X109100000Y-87600000D01*
X95100000Y-87600000D02*
X100700000Y-87600000D01*
X112515000Y-97615000D02*
X113225000Y-97615000D01*
X112000000Y-97100000D02*
X112515000Y-97615000D01*
X112000000Y-96007110D02*
X112000000Y-97100000D01*
X110899996Y-94907106D02*
X112000000Y-96007110D01*
X110899996Y-92821326D02*
X110899996Y-94907106D01*
X109399990Y-91321320D02*
X110899996Y-92821326D01*
X109399990Y-87899990D02*
X109399990Y-91321320D01*
X109100000Y-87600000D02*
X109399990Y-87899990D01*
X94810000Y-87300000D02*
X94810000Y-87310000D01*
X94810000Y-87310000D02*
X95100000Y-87600000D01*
X100600000Y-91600000D02*
X108264450Y-91600000D01*
X112155000Y-100155000D02*
X113225000Y-100155000D01*
X112000000Y-100000000D02*
X112155000Y-100155000D01*
X112000000Y-99307110D02*
X112000000Y-100000000D01*
X111396445Y-98703555D02*
X112000000Y-99307110D01*
X111396445Y-98103555D02*
X111396445Y-98703555D01*
X110999996Y-97707106D02*
X111396445Y-98103555D01*
X110999996Y-96421326D02*
X110999996Y-97707106D01*
X109899992Y-95321322D02*
X110999996Y-96421326D01*
X109899992Y-93235542D02*
X109899992Y-95321322D01*
X108264450Y-91600000D02*
X109899992Y-93235542D01*
X94810000Y-91300000D02*
X94810000Y-91310000D01*
X94810000Y-91310000D02*
X95100000Y-91600000D01*
X95100000Y-91600000D02*
X100600000Y-91600000D01*
X100600000Y-91600000D02*
X100700000Y-91600000D01*
X94810000Y-91300000D02*
X94820000Y-91300000D01*
X114200000Y-98900000D02*
X115500000Y-98900000D01*
X108400000Y-89200000D02*
X108899988Y-89699988D01*
X108899988Y-89699988D02*
X108899988Y-91528428D01*
X108899988Y-91528428D02*
X110399994Y-93028434D01*
X110399994Y-93028434D02*
X110399994Y-95114214D01*
X110399994Y-95114214D02*
X111499998Y-96214218D01*
X111499998Y-96214218D02*
X111499998Y-97499998D01*
X111499998Y-97499998D02*
X112000000Y-98000000D01*
X112000000Y-98000000D02*
X112000000Y-98600000D01*
X112000000Y-98600000D02*
X112300000Y-98900000D01*
X112300000Y-98900000D02*
X114200000Y-98900000D01*
X100600000Y-89200000D02*
X108400000Y-89200000D01*
X115765000Y-99165000D02*
X115765000Y-100155000D01*
X115500000Y-98900000D02*
X115765000Y-99165000D01*
X100700000Y-89200000D02*
X100600000Y-89200000D01*
X100600000Y-89200000D02*
X96500000Y-89200000D01*
X100700000Y-93200000D02*
X109099990Y-93200000D01*
X100700000Y-93200000D02*
X96500000Y-93200000D01*
X115765000Y-101665000D02*
X115765000Y-102695000D01*
X115500000Y-101400000D02*
X115765000Y-101665000D01*
X112200000Y-101400000D02*
X115500000Y-101400000D01*
X112000000Y-101200000D02*
X112200000Y-101400000D01*
X112000000Y-100900000D02*
X112000000Y-101200000D01*
X111499998Y-100399998D02*
X112000000Y-100900000D01*
X111499998Y-99514218D02*
X111499998Y-100399998D01*
X110896443Y-98910663D02*
X111499998Y-99514218D01*
X110896443Y-98310663D02*
X110896443Y-98910663D01*
X110499994Y-97914214D02*
X110896443Y-98310663D01*
X110499994Y-96628434D02*
X110499994Y-97914214D01*
X109399990Y-95528430D02*
X110499994Y-96628434D01*
X109399990Y-93500000D02*
X109399990Y-95528430D01*
X109099990Y-93200000D02*
X109399990Y-93500000D01*
X100700000Y-95600000D02*
X108764450Y-95600000D01*
X95200000Y-95600000D02*
X100700000Y-95600000D01*
X112235000Y-105235000D02*
X113225000Y-105235000D01*
X111900000Y-104900000D02*
X112235000Y-105235000D01*
X111900000Y-101900000D02*
X111900000Y-104900000D01*
X111400000Y-101400000D02*
X111900000Y-101900000D01*
X111400000Y-101007110D02*
X111400000Y-101400000D01*
X110999996Y-100607106D02*
X111400000Y-101007110D01*
X110999996Y-99721326D02*
X110999996Y-100607106D01*
X110396441Y-99117771D02*
X110999996Y-99721326D01*
X110396441Y-98517771D02*
X110396441Y-99117771D01*
X109999992Y-98121322D02*
X110396441Y-98517771D01*
X109999992Y-96835542D02*
X109999992Y-98121322D01*
X108764450Y-95600000D02*
X109999992Y-96835542D01*
X94810000Y-95300000D02*
X94900000Y-95300000D01*
X94900000Y-95300000D02*
X95200000Y-95600000D01*
X94810000Y-95300000D02*
X94820000Y-95300000D01*
X100700000Y-99600000D02*
X108692890Y-99600000D01*
X95100000Y-99600000D02*
X100700000Y-99600000D01*
X112075000Y-107775000D02*
X113225000Y-107775000D01*
X112000000Y-107700000D02*
X112075000Y-107775000D01*
X112000000Y-107200000D02*
X112000000Y-107700000D01*
X111400000Y-106600000D02*
X112000000Y-107200000D01*
X111400000Y-106007110D02*
X111400000Y-106600000D01*
X110799998Y-105407108D02*
X111400000Y-106007110D01*
X110799998Y-102607108D02*
X110799998Y-105407108D01*
X109699998Y-101507108D02*
X110799998Y-102607108D01*
X109699998Y-100607108D02*
X109699998Y-101507108D01*
X108692890Y-99600000D02*
X109699998Y-100607108D01*
X94810000Y-99300000D02*
X94810000Y-99310000D01*
X94810000Y-99310000D02*
X95100000Y-99600000D01*
X94810000Y-99300000D02*
X94810000Y-99340000D01*
X112000000Y-105900000D02*
X112000000Y-106300000D01*
X111300000Y-102400000D02*
X111300000Y-105200000D01*
X111300000Y-105200000D02*
X112000000Y-105900000D01*
X110200000Y-100400000D02*
X110200000Y-101300000D01*
X109200000Y-97600000D02*
X109200000Y-99400000D01*
X108800000Y-97200000D02*
X109200000Y-97600000D01*
X107800000Y-97200000D02*
X100700000Y-97200000D01*
X100700000Y-97200000D02*
X96500000Y-97200000D01*
X107800000Y-97200000D02*
X108800000Y-97200000D01*
X109200000Y-99400000D02*
X109700000Y-99900000D01*
X110200000Y-100400000D02*
X109700000Y-99900000D01*
X110200000Y-101300000D02*
X110900000Y-102000000D01*
X110900000Y-102000000D02*
X111300000Y-102400000D01*
X115765000Y-106765000D02*
X115765000Y-107775000D01*
X115500000Y-106500000D02*
X115765000Y-106765000D01*
X112200000Y-106500000D02*
X115500000Y-106500000D01*
X112000000Y-106300000D02*
X112200000Y-106500000D01*
X111900000Y-109800000D02*
X111900000Y-110000000D01*
X109399994Y-103600000D02*
X109799994Y-104000000D01*
X109799994Y-104000000D02*
X109799994Y-105821324D01*
X109799994Y-105821324D02*
X110300000Y-106321330D01*
X110300000Y-106321330D02*
X110300000Y-106914220D01*
X110300000Y-106914220D02*
X110999996Y-107614216D01*
X110999996Y-107614216D02*
X110999996Y-108899996D01*
X110999996Y-108899996D02*
X111900000Y-109800000D01*
X95100000Y-103600000D02*
X100700000Y-103600000D01*
X100700000Y-103600000D02*
X109399994Y-103600000D01*
X112215000Y-110315000D02*
X113225000Y-110315000D01*
X111900000Y-110000000D02*
X112215000Y-110315000D01*
X94810000Y-103300000D02*
X94810000Y-103310000D01*
X94810000Y-103310000D02*
X95100000Y-103600000D01*
X94810000Y-103300000D02*
X94820000Y-103300000D01*
X113900000Y-109100000D02*
X115500000Y-109100000D01*
X108685780Y-101200000D02*
X110299996Y-102814216D01*
X110299996Y-102814216D02*
X110299996Y-105614216D01*
X110299996Y-105614216D02*
X110899998Y-106214218D01*
X110899998Y-106214218D02*
X110899998Y-106807108D01*
X110899998Y-106807108D02*
X111499998Y-107407108D01*
X111499998Y-107407108D02*
X111499998Y-108499998D01*
X111499998Y-108499998D02*
X112100000Y-109100000D01*
X112100000Y-109100000D02*
X113900000Y-109100000D01*
X100700000Y-101200000D02*
X96500000Y-101200000D01*
X100700000Y-101200000D02*
X108685780Y-101200000D01*
X115765000Y-109365000D02*
X115765000Y-110315000D01*
X115500000Y-109100000D02*
X115765000Y-109365000D01*
X112100000Y-111200000D02*
X112100000Y-111300000D01*
X110389335Y-107710665D02*
X110389335Y-108996445D01*
X109700000Y-107021330D02*
X110389335Y-107710665D01*
X100700000Y-105200000D02*
X108900000Y-105200000D01*
X100700000Y-105200000D02*
X96500000Y-105200000D01*
X109700000Y-106428440D02*
X109700000Y-107000000D01*
X109200000Y-105928440D02*
X109700000Y-106428440D01*
X109200000Y-105500000D02*
X109200000Y-105928440D01*
X108900000Y-105200000D02*
X109200000Y-105500000D01*
X109700000Y-107000000D02*
X109700000Y-107021330D01*
X111300000Y-109907110D02*
X111300000Y-110400000D01*
X110389335Y-108996445D02*
X111300000Y-109907110D01*
X112100000Y-111200000D02*
X111300000Y-110400000D01*
X115765000Y-111865000D02*
X115765000Y-112855000D01*
X115500000Y-111600000D02*
X115765000Y-111865000D01*
X112400000Y-111600000D02*
X115500000Y-111600000D01*
X112100000Y-111300000D02*
X112400000Y-111600000D01*
X113225000Y-117935000D02*
X113225000Y-117475000D01*
X113225000Y-117475000D02*
X111900000Y-116150000D01*
X111900000Y-116150000D02*
X111900000Y-113600000D01*
X111446445Y-111253555D02*
X111446445Y-111353555D01*
X111446445Y-111353555D02*
X111746445Y-111653555D01*
X111900000Y-111807110D02*
X111900000Y-112400000D01*
X111746445Y-111653555D02*
X111900000Y-111807110D01*
X109571560Y-107600000D02*
X109889333Y-107917773D01*
X109889333Y-107917773D02*
X109889333Y-109203553D01*
X109889333Y-109203553D02*
X110799998Y-110114218D01*
X110799998Y-110114218D02*
X110799998Y-110607108D01*
X110799998Y-110607108D02*
X111446445Y-111253555D01*
X95100000Y-107600000D02*
X100700000Y-107600000D01*
X100700000Y-107600000D02*
X109571560Y-107600000D01*
X111900000Y-112400000D02*
X111900000Y-113600000D01*
X94810000Y-107300000D02*
X94810000Y-107310000D01*
X94810000Y-107310000D02*
X95100000Y-107600000D01*
X94810000Y-107300000D02*
X94820000Y-107300000D01*
X110300000Y-112350000D02*
X110300000Y-112600000D01*
X110650000Y-112950000D02*
X111100000Y-112950000D01*
X110300000Y-112600000D02*
X110650000Y-112950000D01*
X111200000Y-112950000D02*
X111250000Y-112950000D01*
X110300000Y-112300000D02*
X110300000Y-112350000D01*
X110300000Y-112300000D02*
X109750000Y-111750000D01*
X108950000Y-111600000D02*
X109600000Y-111600000D01*
X109600000Y-111600000D02*
X109750000Y-111750000D01*
X95100000Y-111600000D02*
X100700000Y-111600000D01*
X100700000Y-111600000D02*
X108950000Y-111600000D01*
X94810000Y-111300000D02*
X94810000Y-111310000D01*
X94810000Y-111310000D02*
X95100000Y-111600000D01*
X94810000Y-111300000D02*
X94820000Y-111300000D01*
X109600000Y-109800000D02*
X110100000Y-110300000D01*
X110100000Y-110300000D02*
X110100000Y-110900000D01*
X109000000Y-109200000D02*
X109600000Y-109800000D01*
X110100000Y-110900000D02*
X110100000Y-111200000D01*
X110100000Y-111200000D02*
X110925000Y-112025000D01*
X100700000Y-109200000D02*
X96500000Y-109200000D01*
X100700000Y-109200000D02*
X109000000Y-109200000D01*
X108650000Y-113200000D02*
X110000000Y-113200000D01*
X100800000Y-113200000D02*
X96500000Y-113200000D01*
X100800000Y-113200000D02*
X108650000Y-113200000D01*
X110000000Y-113200000D02*
X110700000Y-113900000D01*
X112100006Y-117950000D02*
X112100006Y-117292896D01*
X110800000Y-115800000D02*
X110600000Y-115600000D01*
X110800000Y-115992890D02*
X110800000Y-115800000D01*
X112100006Y-117292896D02*
X110800000Y-115992890D01*
X113225000Y-125555000D02*
X112655000Y-125555000D01*
X112655000Y-125555000D02*
X112100006Y-125000006D01*
X112100006Y-125000006D02*
X112100006Y-117950000D01*
X110600000Y-115600000D02*
X100700000Y-115600000D01*
X94810000Y-115300000D02*
X94810000Y-115310000D01*
X94810000Y-115310000D02*
X95100000Y-115600000D01*
X95100000Y-115600000D02*
X100700000Y-115600000D01*
X94810000Y-115300000D02*
X94810000Y-115340000D01*
X100400000Y-117200000D02*
X108500000Y-117200000D01*
X108500000Y-117200000D02*
X108600000Y-117100000D01*
X108600000Y-117100000D02*
X111200000Y-117100000D01*
X111200000Y-117100000D02*
X111500000Y-117400000D01*
X115765000Y-126535000D02*
X115765000Y-125555000D01*
X115500000Y-126800000D02*
X115765000Y-126535000D01*
X111900000Y-126800000D02*
X115500000Y-126800000D01*
X111600004Y-126500004D02*
X111900000Y-126800000D01*
X111600004Y-117500004D02*
X111600004Y-126500004D01*
X111500000Y-117400000D02*
X111600004Y-117500004D01*
X100400000Y-117200000D02*
X96500000Y-117200000D01*
X108700000Y-119600000D02*
X110600000Y-119600000D01*
X111195000Y-128095000D02*
X113225000Y-128095000D01*
X111100002Y-128000002D02*
X111195000Y-128095000D01*
X111100002Y-120100002D02*
X111100002Y-128000002D01*
X110600000Y-119600000D02*
X111100002Y-120100002D01*
X100700000Y-119600000D02*
X95100000Y-119600000D01*
X100700000Y-119600000D02*
X108700000Y-119600000D01*
X94810000Y-119300000D02*
X94810000Y-119310000D01*
X94810000Y-119310000D02*
X95100000Y-119600000D01*
X94810000Y-119300000D02*
X94820000Y-119300000D01*
X114000000Y-129400000D02*
X115600000Y-129400000D01*
X110600000Y-128900000D02*
X111100000Y-129400000D01*
X111100000Y-129400000D02*
X114000000Y-129400000D01*
X110300000Y-121200000D02*
X110600000Y-121500000D01*
X110600000Y-121500000D02*
X110600000Y-122500000D01*
X110600000Y-122500000D02*
X110600000Y-128900000D01*
X115765000Y-129235000D02*
X115765000Y-128095000D01*
X115600000Y-129400000D02*
X115765000Y-129235000D01*
X109500000Y-121200000D02*
X110300000Y-121200000D01*
X100800000Y-121200000D02*
X109500000Y-121200000D01*
X100800000Y-121200000D02*
X97000000Y-121200000D01*
X101350000Y-125850000D02*
X108050000Y-125850000D01*
X108500000Y-132000000D02*
X108700000Y-132200000D01*
X108500000Y-126300000D02*
X108500000Y-132000000D01*
X108050000Y-125850000D02*
X108500000Y-126300000D01*
X115765000Y-130635000D02*
X115765000Y-131535000D01*
X109600000Y-132200000D02*
X108700000Y-132200000D01*
X109800000Y-132200000D02*
X112900000Y-132200000D01*
X109800000Y-132200000D02*
X109600000Y-132200000D01*
X115765000Y-131535000D02*
X115300000Y-132000000D01*
X115300000Y-132000000D02*
X113100000Y-132000000D01*
X113100000Y-132000000D02*
X112900000Y-132200000D01*
X94810000Y-125010000D02*
X95050000Y-125250000D01*
X95050000Y-125250000D02*
X99750000Y-125250000D01*
X99750000Y-125250000D02*
X100350000Y-125850000D01*
X100350000Y-125850000D02*
X101350000Y-125850000D01*
X94810000Y-123300000D02*
X94810000Y-125010000D01*
X94810000Y-123300000D02*
X94810000Y-123310000D01*
X94810000Y-123300000D02*
X94820000Y-123300000D01*
D24*
X106610000Y-132830000D02*
X105830000Y-132830000D01*
X90200000Y-130100000D02*
X90200000Y-133530000D01*
X90447998Y-129852002D02*
X90200000Y-130100000D01*
X105400000Y-129852002D02*
X90447998Y-129852002D01*
X105600000Y-130052002D02*
X105400000Y-129852002D01*
X105600000Y-132600000D02*
X105600000Y-130052002D01*
X105830000Y-132830000D02*
X105600000Y-132600000D01*
X107850000Y-105700000D02*
X108050000Y-105900000D01*
X108050000Y-105900000D02*
X108050000Y-106900000D01*
X107550000Y-105700000D02*
X107850000Y-105700000D01*
X106600000Y-105700000D02*
X107550000Y-105700000D01*
X96200000Y-106100000D02*
X96300000Y-106100000D01*
X96300000Y-106100000D02*
X96500000Y-105900000D01*
X97300000Y-105700000D02*
X97900000Y-105700000D01*
X97100000Y-105900000D02*
X97300000Y-105700000D01*
X96500000Y-105900000D02*
X97100000Y-105900000D01*
X97900000Y-105700000D02*
X100800000Y-105700000D01*
X100800000Y-105700000D02*
X106600000Y-105700000D01*
X106240000Y-132060000D02*
X106240000Y-129665000D01*
X88930000Y-129720000D02*
X88930000Y-133530000D01*
X89175000Y-129475000D02*
X88930000Y-129720000D01*
X106050000Y-129475000D02*
X89175000Y-129475000D01*
X106240000Y-129665000D02*
X106050000Y-129475000D01*
X106550000Y-107100000D02*
X106750000Y-106900000D01*
X106100000Y-107100000D02*
X106550000Y-107100000D01*
X94810000Y-106350000D02*
X95450000Y-106350000D01*
X97000000Y-106400000D02*
X97860000Y-106400000D01*
X96600000Y-106800000D02*
X97000000Y-106400000D01*
X95900000Y-106800000D02*
X96600000Y-106800000D01*
X95450000Y-106350000D02*
X95900000Y-106800000D01*
X97860000Y-106400000D02*
X97860000Y-106860000D01*
X98100000Y-107100000D02*
X100700000Y-107100000D01*
X97860000Y-106860000D02*
X98100000Y-107100000D01*
X100700000Y-107100000D02*
X106100000Y-107100000D01*
X97710000Y-106550000D02*
X97860000Y-106400000D01*
X107370000Y-134370000D02*
X106303676Y-134370000D01*
X92740000Y-130860000D02*
X92740000Y-133530000D01*
X92993994Y-130606006D02*
X92740000Y-130860000D01*
X104606006Y-130606006D02*
X92993994Y-130606006D01*
X104845996Y-130845996D02*
X104606006Y-130606006D01*
X104845996Y-132912320D02*
X104845996Y-130845996D01*
X106303676Y-134370000D02*
X104845996Y-132912320D01*
X97400000Y-109700000D02*
X97500000Y-109700000D01*
X96500000Y-109900000D02*
X97000000Y-109900000D01*
X97000000Y-109900000D02*
X97200000Y-109700000D01*
X97200000Y-109700000D02*
X97400000Y-109700000D01*
X96500000Y-109900000D02*
X96300000Y-110100000D01*
X97500000Y-109700000D02*
X108050000Y-109700000D01*
X108050000Y-109700000D02*
X108650000Y-109700000D01*
X108800000Y-109850000D02*
X108800000Y-110900000D01*
X108650000Y-109700000D02*
X108800000Y-109850000D01*
X96200000Y-110100000D02*
X96300000Y-110100000D01*
X107740000Y-135140000D02*
X106840000Y-135140000D01*
X94010000Y-131290000D02*
X94010000Y-133530000D01*
X94316992Y-130983008D02*
X94010000Y-131290000D01*
X104283008Y-130983008D02*
X94316992Y-130983008D01*
X104468994Y-131168994D02*
X104283008Y-130983008D01*
X104468994Y-133068480D02*
X104468994Y-131168994D01*
X106200514Y-134800000D02*
X104468994Y-133068480D01*
X106500000Y-134800000D02*
X106200514Y-134800000D01*
X106840000Y-135140000D02*
X106500000Y-134800000D01*
X100600000Y-115100000D02*
X107700000Y-115100000D01*
X97860000Y-114960000D02*
X98000000Y-115100000D01*
X98000000Y-115100000D02*
X100600000Y-115100000D01*
X97860000Y-114960000D02*
X97860000Y-114400000D01*
X108050000Y-115100000D02*
X108250000Y-114900000D01*
X107700000Y-115100000D02*
X108050000Y-115100000D01*
X96300000Y-114800000D02*
X96500000Y-114800000D01*
X95550000Y-114350000D02*
X96000000Y-114800000D01*
X96000000Y-114800000D02*
X96300000Y-114800000D01*
X94810000Y-114350000D02*
X95550000Y-114350000D01*
X96900000Y-114400000D02*
X97860000Y-114400000D01*
X96500000Y-114800000D02*
X96900000Y-114400000D01*
X97710000Y-114550000D02*
X97860000Y-114400000D01*
X111000000Y-117538502D02*
X111000004Y-117538502D01*
X111000004Y-117538502D02*
X111161502Y-117700000D01*
X108600000Y-117700000D02*
X108800000Y-117700000D01*
X108800000Y-117700000D02*
X108961498Y-117538502D01*
X111161502Y-117700000D02*
X111161502Y-117900000D01*
X111161502Y-117900000D02*
X111161502Y-118750000D01*
X110050000Y-119100000D02*
X109850000Y-118900000D01*
X110900000Y-119100000D02*
X110050000Y-119100000D01*
X111161502Y-119038498D02*
X111100000Y-119100000D01*
X111100000Y-119100000D02*
X110900000Y-119100000D01*
X111161502Y-118750000D02*
X111161502Y-119038498D01*
X110938502Y-117538502D02*
X111000000Y-117538502D01*
X108961498Y-117538502D02*
X110938502Y-117538502D01*
X108570000Y-117700000D02*
X108600000Y-117700000D01*
X106000000Y-135800000D02*
X104566838Y-135800000D01*
X97820000Y-132380000D02*
X97820000Y-133530000D01*
X98085986Y-132114014D02*
X97820000Y-132380000D01*
X103114014Y-132114014D02*
X98085986Y-132114014D01*
X103337988Y-132337988D02*
X103114014Y-132114014D01*
X103337988Y-133536960D02*
X103337988Y-132337988D01*
X103822998Y-134021970D02*
X103337988Y-133536960D01*
X103822998Y-135056160D02*
X103822998Y-134021970D01*
X104566838Y-135800000D02*
X103822998Y-135056160D01*
X96200000Y-118200000D02*
X96300000Y-118200000D01*
X96300000Y-118200000D02*
X96500000Y-118000000D01*
X97300000Y-117700000D02*
X108570000Y-117700000D01*
X97000000Y-118000000D02*
X97300000Y-117700000D01*
X96500000Y-118000000D02*
X97000000Y-118000000D01*
X104900000Y-134400000D02*
X104900000Y-134032648D01*
X109550000Y-113850000D02*
X109550000Y-114900000D01*
X109400000Y-113700000D02*
X109550000Y-113850000D01*
X108800000Y-113700000D02*
X109400000Y-113700000D01*
X107950000Y-113700000D02*
X108800000Y-113700000D01*
X97500000Y-113700000D02*
X100800000Y-113700000D01*
X100800000Y-113700000D02*
X107950000Y-113700000D01*
X95280000Y-131520000D02*
X95280000Y-133530000D01*
X95439990Y-131360010D02*
X95280000Y-131520000D01*
X103960010Y-131360010D02*
X95439990Y-131360010D01*
X104091992Y-131491992D02*
X103960010Y-131360010D01*
X104091992Y-133224640D02*
X104091992Y-131491992D01*
X104900000Y-134032648D02*
X104091992Y-133224640D01*
X96200000Y-114100000D02*
X96300000Y-114100000D01*
X96300000Y-114100000D02*
X96500000Y-113900000D01*
X97200000Y-113900000D02*
X97400000Y-113700000D01*
X96500000Y-113900000D02*
X97200000Y-113900000D01*
X97400000Y-113700000D02*
X97500000Y-113700000D01*
X97400000Y-113700000D02*
X97500000Y-113700000D01*
X106990000Y-133600000D02*
X106066838Y-133600000D01*
X91470000Y-130530000D02*
X91470000Y-133530000D01*
X91770996Y-130229004D02*
X91470000Y-130530000D01*
X105100000Y-130229004D02*
X91770996Y-130229004D01*
X105222998Y-130352002D02*
X105100000Y-130229004D01*
X105222998Y-132756160D02*
X105222998Y-130352002D01*
X106066838Y-133600000D02*
X105222998Y-132756160D01*
X107300000Y-111100000D02*
X107500000Y-110900000D01*
X106950000Y-111100000D02*
X107300000Y-111100000D01*
X96300000Y-110800000D02*
X96600000Y-110800000D01*
X95550000Y-110350000D02*
X96000000Y-110800000D01*
X96000000Y-110800000D02*
X96300000Y-110800000D01*
X94810000Y-110350000D02*
X95550000Y-110350000D01*
X97000000Y-110400000D02*
X97860000Y-110400000D01*
X96600000Y-110800000D02*
X97000000Y-110400000D01*
X97710000Y-110550000D02*
X97860000Y-110400000D01*
X100700000Y-111100000D02*
X106950000Y-111100000D01*
X97860000Y-110400000D02*
X97860000Y-110860000D01*
X98100000Y-111100000D02*
X100700000Y-111100000D01*
X97860000Y-110860000D02*
X98100000Y-111100000D01*
X105100000Y-136500000D02*
X104733676Y-136500000D01*
X99090000Y-132810000D02*
X99090000Y-133530000D01*
X99408984Y-132491016D02*
X99090000Y-132810000D01*
X102891016Y-132491016D02*
X99408984Y-132491016D01*
X102960986Y-132560986D02*
X102891016Y-132491016D01*
X102960986Y-133693120D02*
X102960986Y-132560986D01*
X103445996Y-134178130D02*
X102960986Y-133693120D01*
X103445996Y-135212320D02*
X103445996Y-134178130D01*
X104733676Y-136500000D02*
X103445996Y-135212320D01*
X109400000Y-123100000D02*
X109750000Y-122750000D01*
X108950000Y-123100000D02*
X109400000Y-123100000D01*
X97860000Y-122400000D02*
X97650000Y-122400000D01*
X97650000Y-122400000D02*
X97500000Y-122550000D01*
X97500000Y-123800000D02*
X97350000Y-123950000D01*
X97500000Y-122550000D02*
X97500000Y-123800000D01*
X95900000Y-123400000D02*
X95900000Y-123850000D01*
X95500000Y-122350000D02*
X95900000Y-122750000D01*
X95900000Y-122750000D02*
X95900000Y-123400000D01*
X94810000Y-122350000D02*
X95500000Y-122350000D01*
X96000000Y-123950000D02*
X97350000Y-123950000D01*
X95900000Y-123850000D02*
X96000000Y-123950000D01*
X100800000Y-123100000D02*
X108950000Y-123100000D01*
X97860000Y-122860000D02*
X98100000Y-123100000D01*
X98100000Y-123100000D02*
X100800000Y-123100000D01*
X97860000Y-122400000D02*
X97860000Y-122860000D01*
X105600000Y-137300000D02*
X104900000Y-137300000D01*
X102264704Y-133530000D02*
X100360000Y-133530000D01*
X103068994Y-134334290D02*
X102264704Y-133530000D01*
X103068994Y-135468994D02*
X103068994Y-134334290D01*
X104900000Y-137300000D02*
X103068994Y-135468994D01*
X97000000Y-122100000D02*
X97150000Y-122100000D01*
X97150000Y-122100000D02*
X97550000Y-121700000D01*
X97550000Y-121700000D02*
X98050000Y-121700000D01*
X97150000Y-122100000D02*
X97550000Y-121700000D01*
X109100000Y-121700000D02*
X100800000Y-121700000D01*
X97550000Y-121700000D02*
X98050000Y-121700000D01*
X98050000Y-121700000D02*
X100800000Y-121700000D01*
X109100000Y-121700000D02*
X109600000Y-121700000D01*
X109600000Y-121700000D02*
X109750000Y-121900000D01*
X104200000Y-134600000D02*
X104200000Y-133865810D01*
X104400000Y-135100000D02*
X104200000Y-134900000D01*
X104200000Y-134900000D02*
X104200000Y-134600000D01*
X105500000Y-135100000D02*
X104400000Y-135100000D01*
X96550000Y-131950000D02*
X96550000Y-133530000D01*
X96762988Y-131737012D02*
X96550000Y-131950000D01*
X103537012Y-131737012D02*
X96762988Y-131737012D01*
X103714990Y-131914990D02*
X103537012Y-131737012D01*
X103714990Y-133380800D02*
X103714990Y-131914990D01*
X104200000Y-133865810D02*
X103714990Y-133380800D01*
X100700000Y-119100000D02*
X108250000Y-119100000D01*
X97860000Y-118860000D02*
X97860000Y-118400000D01*
X98100000Y-119100000D02*
X100700000Y-119100000D01*
X97860000Y-118860000D02*
X98100000Y-119100000D01*
X108250000Y-119100000D02*
X108800000Y-119100000D01*
X108800000Y-119100000D02*
X109000000Y-118900000D01*
X96300000Y-118900000D02*
X96500000Y-118900000D01*
X95450000Y-118350000D02*
X96000000Y-118900000D01*
X96000000Y-118900000D02*
X96300000Y-118900000D01*
X94810000Y-118350000D02*
X95450000Y-118350000D01*
X97000000Y-118400000D02*
X97860000Y-118400000D01*
X96500000Y-118900000D02*
X97000000Y-118400000D01*
X97660000Y-118600000D02*
X97860000Y-118400000D01*
X103500000Y-91100000D02*
X103700000Y-90900000D01*
X103450000Y-91100000D02*
X103500000Y-91100000D01*
X96100000Y-90800000D02*
X96600000Y-90800000D01*
X95450000Y-90350000D02*
X95900000Y-90800000D01*
X95900000Y-90800000D02*
X96100000Y-90800000D01*
X94810000Y-90350000D02*
X95450000Y-90350000D01*
X97000000Y-90400000D02*
X97860000Y-90400000D01*
X96600000Y-90800000D02*
X97000000Y-90400000D01*
X97710000Y-90550000D02*
X97860000Y-90400000D01*
X100800000Y-91100000D02*
X103450000Y-91100000D01*
X97860000Y-90860000D02*
X98100000Y-91100000D01*
X98100000Y-91100000D02*
X100800000Y-91100000D01*
X97860000Y-90400000D02*
X97860000Y-90860000D01*
X82580000Y-133530000D02*
X82580000Y-132580000D01*
X82580000Y-132580000D02*
X82350000Y-132350000D01*
X70400000Y-132350000D02*
X70200000Y-132550000D01*
X82350000Y-132350000D02*
X70400000Y-132350000D01*
X70200000Y-135550000D02*
X70200000Y-135650000D01*
X70200000Y-135550000D02*
X70200000Y-132800000D01*
X101300000Y-135650000D02*
X101100000Y-135850000D01*
X101100000Y-135850000D02*
X70400000Y-135850000D01*
X101450000Y-135650000D02*
X101300000Y-135650000D01*
X70200000Y-132550000D02*
X70200000Y-132800000D01*
X70200000Y-135650000D02*
X70400000Y-135850000D01*
X105650000Y-93700000D02*
X105800000Y-93850000D01*
X105800000Y-93850000D02*
X105800000Y-94900000D01*
X105500000Y-93700000D02*
X105650000Y-93700000D01*
X105250000Y-93700000D02*
X105500000Y-93700000D01*
X96200000Y-94100000D02*
X96300000Y-94100000D01*
X96300000Y-94100000D02*
X96500000Y-93900000D01*
X97300000Y-93700000D02*
X97700000Y-93700000D01*
X97100000Y-93900000D02*
X97300000Y-93700000D01*
X96500000Y-93900000D02*
X97100000Y-93900000D01*
X97700000Y-93700000D02*
X105250000Y-93700000D01*
X104300000Y-95100000D02*
X104500000Y-94900000D01*
X104050000Y-95100000D02*
X104300000Y-95100000D01*
X96300000Y-94800000D02*
X96600000Y-94800000D01*
X95450000Y-94350000D02*
X95900000Y-94800000D01*
X95900000Y-94800000D02*
X96300000Y-94800000D01*
X94810000Y-94350000D02*
X95450000Y-94350000D01*
X97000000Y-94400000D02*
X97860000Y-94400000D01*
X96600000Y-94800000D02*
X97000000Y-94400000D01*
X97710000Y-94550000D02*
X97860000Y-94400000D01*
X97860000Y-94400000D02*
X97860000Y-94860000D01*
X98100000Y-95100000D02*
X100800000Y-95100000D01*
X97860000Y-94860000D02*
X98100000Y-95100000D01*
X100800000Y-95100000D02*
X104050000Y-95100000D01*
X69483676Y-137066324D02*
X69466324Y-137066324D01*
X69466324Y-137066324D02*
X68691992Y-136291992D01*
X87660000Y-133530000D02*
X87660000Y-131360000D01*
X87660000Y-131360000D02*
X87141992Y-130841992D01*
X87141992Y-130841992D02*
X69675360Y-130841992D01*
X69675360Y-130841992D02*
X68691992Y-131825360D01*
X68691992Y-131825360D02*
X68691992Y-136291992D01*
X69300000Y-136900000D02*
X69300000Y-136882648D01*
X68691992Y-136291992D02*
X69300000Y-136900000D01*
X103350000Y-137900000D02*
X103072998Y-137900000D01*
X104100000Y-137650000D02*
X103850000Y-137900000D01*
X103850000Y-137900000D02*
X103350000Y-137900000D01*
X104200000Y-137650000D02*
X104100000Y-137650000D01*
X69775360Y-137358008D02*
X69483676Y-137066324D01*
X69483676Y-137066324D02*
X69300000Y-136882648D01*
X69300000Y-136882648D02*
X69233676Y-136816324D01*
X100391684Y-137358008D02*
X69775360Y-137358008D01*
X100860678Y-137827002D02*
X100391684Y-137358008D01*
X103000000Y-137827002D02*
X100860678Y-137827002D01*
X103072998Y-137900000D02*
X103000000Y-137827002D01*
X107150000Y-101700000D02*
X107300000Y-101850000D01*
X107300000Y-101850000D02*
X107300000Y-102900000D01*
X106400000Y-101700000D02*
X107150000Y-101700000D01*
X96200000Y-102100000D02*
X96300000Y-102100000D01*
X96300000Y-102100000D02*
X96500000Y-101900000D01*
X97300000Y-101700000D02*
X97700000Y-101700000D01*
X97100000Y-101900000D02*
X97300000Y-101700000D01*
X96500000Y-101900000D02*
X97100000Y-101900000D01*
X106000000Y-101700000D02*
X105800000Y-101700000D01*
X100700000Y-101700000D02*
X105800000Y-101700000D01*
X97700000Y-101700000D02*
X100700000Y-101700000D01*
X106000000Y-101700000D02*
X106400000Y-101700000D01*
X102600000Y-137450000D02*
X101016838Y-137450000D01*
X103400000Y-137250000D02*
X103200000Y-137450000D01*
X103200000Y-137450000D02*
X102600000Y-137450000D01*
X103450000Y-137250000D02*
X103400000Y-137250000D01*
X86390000Y-131940000D02*
X86390000Y-133530000D01*
X85668994Y-131218994D02*
X86390000Y-131940000D01*
X69831520Y-131218994D02*
X85668994Y-131218994D01*
X69068994Y-131981520D02*
X69831520Y-131218994D01*
X69068994Y-136118480D02*
X69068994Y-131981520D01*
X69931520Y-136981006D02*
X69068994Y-136118480D01*
X100547844Y-136981006D02*
X69931520Y-136981006D01*
X101016838Y-137450000D02*
X100547844Y-136981006D01*
X105800000Y-103100000D02*
X106000000Y-102900000D01*
X105250000Y-103100000D02*
X105800000Y-103100000D01*
X96000000Y-102800000D02*
X96500000Y-102800000D01*
X94810000Y-102350000D02*
X95550000Y-102350000D01*
X95550000Y-102350000D02*
X95900000Y-102700000D01*
X96000000Y-102800000D02*
X95900000Y-102700000D01*
X96900000Y-102400000D02*
X97860000Y-102400000D01*
X96500000Y-102800000D02*
X96900000Y-102400000D01*
X100700000Y-103100000D02*
X105250000Y-103100000D01*
X97860000Y-102860000D02*
X98100000Y-103100000D01*
X98100000Y-103100000D02*
X100700000Y-103100000D01*
X97860000Y-102400000D02*
X97860000Y-102860000D01*
X83850000Y-133530000D02*
X83850000Y-132200000D01*
X102000000Y-136200000D02*
X101850000Y-136350000D01*
X101850000Y-136350000D02*
X101122998Y-136350000D01*
X101122998Y-136350000D02*
X101000000Y-136227002D01*
X101000000Y-136227002D02*
X70243840Y-136227002D01*
X70243840Y-136227002D02*
X69822998Y-135806160D01*
X69822998Y-135806160D02*
X69822998Y-132293840D01*
X102100000Y-136200000D02*
X102000000Y-136200000D01*
X83850000Y-132200000D02*
X83622998Y-131972998D01*
X83622998Y-131972998D02*
X70143840Y-131972998D01*
X70143840Y-131972998D02*
X69822998Y-132293840D01*
X105050000Y-99100000D02*
X105250000Y-98900000D01*
X104300000Y-99100000D02*
X105050000Y-99100000D01*
X97860000Y-98400000D02*
X96900000Y-98400000D01*
X96500000Y-98800000D02*
X96900000Y-98400000D01*
X95550000Y-98350000D02*
X94810000Y-98350000D01*
X96000000Y-98800000D02*
X96300000Y-98800000D01*
X95550000Y-98350000D02*
X96000000Y-98800000D01*
X96300000Y-98800000D02*
X96500000Y-98800000D01*
X97710000Y-98550000D02*
X97860000Y-98400000D01*
X97860000Y-98400000D02*
X97860000Y-98860000D01*
X98100000Y-99100000D02*
X100800000Y-99100000D01*
X97860000Y-98860000D02*
X98100000Y-99100000D01*
X100800000Y-99100000D02*
X104300000Y-99100000D01*
X101400000Y-136900000D02*
X101000000Y-136900000D01*
X101000000Y-136900000D02*
X100704004Y-136604004D01*
X100704004Y-136604004D02*
X70087680Y-136604004D01*
X70087680Y-136604004D02*
X69445996Y-135962320D01*
X69445996Y-135962320D02*
X69445996Y-132137680D01*
X69445996Y-132137680D02*
X69987680Y-131595996D01*
X69987680Y-131595996D02*
X84895996Y-131595996D01*
X84895996Y-131595996D02*
X85120000Y-131820000D01*
X85120000Y-131820000D02*
X85120000Y-133530000D01*
X102750000Y-136750000D02*
X102700000Y-136750000D01*
X102550000Y-136900000D02*
X101400000Y-136900000D01*
X102700000Y-136750000D02*
X102550000Y-136900000D01*
X106300000Y-97700000D02*
X106550000Y-97950000D01*
X106550000Y-97950000D02*
X106550000Y-98900000D01*
X105800000Y-97700000D02*
X106300000Y-97700000D01*
X96200000Y-98100000D02*
X96300000Y-98100000D01*
X96300000Y-98100000D02*
X96500000Y-97900000D01*
X97400000Y-97700000D02*
X97700000Y-97700000D01*
X97200000Y-97900000D02*
X97400000Y-97700000D01*
X96500000Y-97900000D02*
X97200000Y-97900000D01*
X96200000Y-98100000D02*
X96200000Y-98006667D01*
X96150000Y-97950000D02*
X96200000Y-98006667D01*
X97700000Y-97700000D02*
X100700000Y-97700000D01*
X100700000Y-97700000D02*
X105800000Y-97700000D01*
X104400000Y-86800000D02*
X104400000Y-85900000D01*
X104200000Y-85700000D02*
X104050000Y-85700000D01*
X104400000Y-85900000D02*
X104200000Y-85700000D01*
X103650000Y-85700000D02*
X104050000Y-85700000D01*
X100700000Y-85700000D02*
X103650000Y-85700000D01*
X98400000Y-85700000D02*
X100700000Y-85700000D01*
X96500000Y-85900000D02*
X97100000Y-85900000D01*
X97100000Y-85900000D02*
X97300000Y-85700000D01*
X97300000Y-85700000D02*
X98400000Y-85700000D01*
X96300000Y-86100000D02*
X96500000Y-85900000D01*
X96200000Y-86100000D02*
X96300000Y-86100000D01*
X104800000Y-89700000D02*
X105000000Y-89900000D01*
X105000000Y-89900000D02*
X105000000Y-90900000D01*
X104800000Y-89700000D02*
X104750000Y-89700000D01*
X104200000Y-89700000D02*
X104750000Y-89700000D01*
X96300000Y-90100000D02*
X96500000Y-89900000D01*
X97300000Y-89700000D02*
X98400000Y-89700000D01*
X97100000Y-89900000D02*
X97300000Y-89700000D01*
X96500000Y-89900000D02*
X97100000Y-89900000D01*
X98400000Y-89700000D02*
X100700000Y-89700000D01*
X100700000Y-89700000D02*
X104200000Y-89700000D01*
X96200000Y-90100000D02*
X96300000Y-90100000D01*
X102700000Y-87100000D02*
X102950000Y-86850000D01*
X102450000Y-87100000D02*
X102700000Y-87100000D01*
X95900000Y-86800000D02*
X96600000Y-86800000D01*
X94810000Y-86350000D02*
X95450000Y-86350000D01*
X95450000Y-86350000D02*
X95800000Y-86700000D01*
X95900000Y-86800000D02*
X95800000Y-86700000D01*
X97000000Y-86400000D02*
X97860000Y-86400000D01*
X96600000Y-86800000D02*
X97000000Y-86400000D01*
X97710000Y-86550000D02*
X97860000Y-86400000D01*
X97860000Y-86400000D02*
X97860000Y-86960000D01*
X98000000Y-87100000D02*
X100700000Y-87100000D01*
X97860000Y-86960000D02*
X98000000Y-87100000D01*
X100700000Y-87100000D02*
X102250000Y-87100000D01*
X102250000Y-87100000D02*
X102450000Y-87100000D01*
X103300000Y-81700000D02*
X103550000Y-81950000D01*
X103550000Y-81950000D02*
X103550000Y-82550000D01*
X103550000Y-83000000D02*
X103550000Y-82550000D01*
X97900000Y-81700000D02*
X97300000Y-81700000D01*
X101000000Y-81700000D02*
X102700000Y-81700000D01*
X97900000Y-81700000D02*
X101000000Y-81700000D01*
X102700000Y-81700000D02*
X103300000Y-81700000D01*
X97300000Y-81700000D02*
X97100000Y-81900000D01*
X97100000Y-81900000D02*
X96500000Y-81900000D01*
X96500000Y-81900000D02*
X96300000Y-82100000D01*
X96300000Y-82100000D02*
X96200000Y-82100000D01*
X102100000Y-83100000D02*
X102200000Y-83000000D01*
X101600000Y-83100000D02*
X102100000Y-83100000D01*
X96400000Y-82800000D02*
X96700000Y-82800000D01*
X96000000Y-82800000D02*
X96400000Y-82800000D01*
X94810000Y-82350000D02*
X95550000Y-82350000D01*
X95550000Y-82350000D02*
X95700000Y-82500000D01*
X95700000Y-82500000D02*
X96000000Y-82800000D01*
X97100000Y-82400000D02*
X97860000Y-82400000D01*
X96700000Y-82800000D02*
X97100000Y-82400000D01*
X97710000Y-82550000D02*
X97860000Y-82400000D01*
X97860000Y-82960000D02*
X98000000Y-83100000D01*
X98000000Y-83100000D02*
X99900000Y-83100000D01*
X97860000Y-82400000D02*
X97860000Y-82960000D01*
X100900000Y-83100000D02*
X99900000Y-83100000D01*
X100900000Y-83100000D02*
X101600000Y-83100000D01*
X97860000Y-82400000D02*
X97860000Y-82540000D01*
X94810000Y-82350000D02*
X95260000Y-82350000D01*
X100200000Y-79050000D02*
X100250000Y-79000000D01*
X97860000Y-78810000D02*
X97860000Y-78400000D01*
X98100000Y-79050000D02*
X99200000Y-79050000D01*
X97860000Y-78810000D02*
X98100000Y-79050000D01*
X99200000Y-79050000D02*
X100200000Y-79050000D01*
X96700000Y-78600000D02*
X96800000Y-78500000D01*
X96800000Y-78500000D02*
X96900000Y-78400000D01*
X96900000Y-78400000D02*
X97860000Y-78400000D01*
X95900000Y-78800000D02*
X96500000Y-78800000D01*
X96500000Y-78800000D02*
X96700000Y-78600000D01*
X95800000Y-78700000D02*
X95900000Y-78800000D01*
X94810000Y-78350000D02*
X95450000Y-78350000D01*
X95450000Y-78350000D02*
X95600000Y-78500000D01*
X95800000Y-78700000D02*
X95600000Y-78500000D01*
X95900000Y-78800000D02*
X96400000Y-78800000D01*
X97710000Y-78550000D02*
X97860000Y-78400000D01*
X97860000Y-78400000D02*
X97860000Y-78440000D01*
X97860000Y-78400000D02*
X97860000Y-78540000D01*
X94810000Y-78350000D02*
X95260000Y-78350000D01*
X97810000Y-78350000D02*
X97860000Y-78400000D01*
X99988502Y-77638502D02*
X100050000Y-77700000D01*
X100050000Y-77700000D02*
X100075000Y-77725000D01*
X100200000Y-77850000D02*
X100200000Y-78000000D01*
X100200000Y-78000000D02*
X100700000Y-78500000D01*
X100075000Y-77725000D02*
X100200000Y-77850000D01*
X100700000Y-78500000D02*
X100950000Y-78750000D01*
X101200000Y-79000000D02*
X101200000Y-79450000D01*
X100950000Y-78750000D02*
X101200000Y-79000000D01*
X96200000Y-78150000D02*
X96450000Y-77900000D01*
X96450000Y-77900000D02*
X96750000Y-77900000D01*
X97000000Y-77900000D02*
X97100000Y-77900000D01*
X96750000Y-77900000D02*
X97000000Y-77900000D01*
X97100000Y-77900000D02*
X97361498Y-77638502D01*
X97361498Y-77638502D02*
X99988502Y-77638502D01*
X97100000Y-77900000D02*
X96500000Y-77900000D01*
X96500000Y-77900000D02*
X96450000Y-77900000D01*
D23*
X109960000Y-116400000D02*
X109130000Y-116400000D01*
X109080000Y-116450000D02*
X109130000Y-116400000D01*
X108860000Y-116450000D02*
X109700000Y-116450000D01*
X100300000Y-116450000D02*
X100950000Y-116450000D01*
X100950000Y-116450000D02*
X108860000Y-116450000D01*
X109080000Y-116450000D02*
X108860000Y-116450000D01*
X109960000Y-116400000D02*
X109970000Y-116410000D01*
X109200000Y-118200000D02*
X110350000Y-118200000D01*
X110350000Y-118200000D02*
X110370000Y-118220000D01*
X98760000Y-118400000D02*
X98760000Y-118378502D01*
X98760000Y-118378502D02*
X98938502Y-118200000D01*
X98938502Y-118200000D02*
X109200000Y-118200000D01*
X109200000Y-118200000D02*
X109250000Y-118200000D01*
X99600000Y-86400000D02*
X99600000Y-86388502D01*
X99600000Y-86388502D02*
X99788502Y-86200000D01*
X99788502Y-86200000D02*
X102150000Y-86200000D01*
X102150000Y-86200000D02*
X102150000Y-86138502D01*
X98760000Y-90400000D02*
X98788502Y-90400000D01*
X98788502Y-90400000D02*
X98988502Y-90200000D01*
X98988502Y-90200000D02*
X104200000Y-90200000D01*
X104200000Y-90200000D02*
X104350000Y-90350000D01*
X98938502Y-94200000D02*
X105000000Y-94200000D01*
X104938502Y-94138502D02*
X105150000Y-94350000D01*
X100400000Y-94400000D02*
X100661498Y-94138502D01*
X100661498Y-94138502D02*
X104650000Y-94138502D01*
X104650000Y-94138502D02*
X104938502Y-94138502D01*
X105000000Y-94200000D02*
X105150000Y-94350000D01*
X98760000Y-94400000D02*
X98760000Y-94378502D01*
X98760000Y-94378502D02*
X98938502Y-94200000D01*
X98760000Y-98400000D02*
X98788502Y-98400000D01*
X98788502Y-98400000D02*
X98988502Y-98200000D01*
X98988502Y-98200000D02*
X105750000Y-98200000D01*
X105750000Y-98200000D02*
X105900000Y-98350000D01*
X98760000Y-118378502D02*
X98950000Y-118188502D01*
X98760000Y-114400000D02*
X98788502Y-114400000D01*
X98788502Y-114400000D02*
X99000000Y-114188502D01*
X108738502Y-114188502D02*
X108900000Y-114350000D01*
X99000000Y-114188502D02*
X108738502Y-114188502D01*
X98760000Y-110400000D02*
X98788502Y-110400000D01*
X98788502Y-110400000D02*
X99000000Y-110188502D01*
X107988502Y-110188502D02*
X108150000Y-110350000D01*
X99000000Y-110188502D02*
X107988502Y-110188502D01*
X98760000Y-110400000D02*
X98838502Y-110400000D01*
X98760000Y-108400000D02*
X108000000Y-108400000D01*
X98760000Y-106400000D02*
X98760000Y-106378502D01*
X98760000Y-106378502D02*
X98950000Y-106188502D01*
X107238502Y-106188502D02*
X107400000Y-106350000D01*
X98950000Y-106188502D02*
X107238502Y-106188502D01*
X99650000Y-102400000D02*
X99650000Y-102388502D01*
X106488502Y-102188502D02*
X106650000Y-102350000D01*
X99850000Y-102188502D02*
X106488502Y-102188502D01*
X99650000Y-102388502D02*
X99850000Y-102188502D01*
X105450000Y-98138502D02*
X105688502Y-98138502D01*
X100611498Y-98138502D02*
X105450000Y-98138502D01*
X100350000Y-98400000D02*
X100611498Y-98138502D01*
X105688502Y-98138502D02*
X105900000Y-98350000D01*
X98760000Y-98400000D02*
X100350000Y-98400000D01*
X98760000Y-94400000D02*
X100400000Y-94400000D01*
X103950000Y-90138502D02*
X104138502Y-90138502D01*
X104138502Y-90138502D02*
X104350000Y-90350000D01*
X98760000Y-90400000D02*
X100338502Y-90400000D01*
X100338502Y-90400000D02*
X100600000Y-90138502D01*
X100600000Y-90138502D02*
X103950000Y-90138502D01*
X103950000Y-90138502D02*
X104100000Y-90138502D01*
X100561498Y-86138502D02*
X102150000Y-86138502D01*
X102150000Y-86138502D02*
X103200000Y-86138502D01*
X100350000Y-86350000D02*
X100561498Y-86138502D01*
X103438502Y-86138502D02*
X103650000Y-86350000D01*
X103200000Y-86138502D02*
X103438502Y-86138502D01*
X100350000Y-86400000D02*
X100350000Y-86350000D01*
X102750000Y-82250000D02*
X102900000Y-82400000D01*
X102400000Y-82250000D02*
X102750000Y-82250000D01*
X102400000Y-82250000D02*
X102300000Y-82250000D01*
X102300000Y-82250000D02*
X100500000Y-82250000D01*
X100500000Y-82250000D02*
X100350000Y-82400000D01*
X98760000Y-80400000D02*
X99600000Y-80400000D01*
X103400000Y-77300000D02*
X101900000Y-77300000D01*
X101750000Y-77150000D02*
X101750000Y-76400000D01*
X101900000Y-77300000D02*
X101750000Y-77150000D01*
X100000000Y-104400000D02*
X107300000Y-104400000D01*
X86500000Y-78550000D02*
X86500000Y-78500000D01*
X86600000Y-78400000D02*
X87500000Y-78400000D01*
X86500000Y-78500000D02*
X86600000Y-78400000D01*
X87500000Y-78400000D02*
X87600000Y-78300000D01*
X109750000Y-116450000D02*
X109700000Y-116450000D01*
X99650000Y-116450000D02*
X100300000Y-116450000D01*
X98760000Y-116400000D02*
X99600000Y-116400000D01*
X99600000Y-116400000D02*
X99650000Y-116450000D01*
X91000000Y-122340000D02*
X91000000Y-122350000D01*
X91000000Y-122350000D02*
X91000000Y-122300000D01*
X91000000Y-122300000D02*
X91000000Y-122350000D01*
X91000000Y-114340000D02*
X91000000Y-114350000D01*
X91000000Y-114350000D02*
X91000000Y-114300000D01*
X91000000Y-114300000D02*
X91000000Y-114350000D01*
X91000000Y-106340000D02*
X91000000Y-106350000D01*
X91000000Y-106350000D02*
X91000000Y-106300000D01*
X91000000Y-106300000D02*
X91000000Y-106350000D01*
X91000000Y-98340000D02*
X91000000Y-98350000D01*
X91000000Y-98350000D02*
X91000000Y-98300000D01*
X91000000Y-98300000D02*
X91000000Y-98350000D01*
X91000000Y-90340000D02*
X91000000Y-90350000D01*
X91000000Y-90350000D02*
X91000000Y-90300000D01*
X91000000Y-90300000D02*
X91000000Y-90350000D01*
X91000000Y-82340000D02*
X91000000Y-82350000D01*
X91000000Y-82350000D02*
X91000000Y-82300000D01*
X91000000Y-82300000D02*
X91000000Y-82350000D01*
X87650000Y-86300000D02*
X89600000Y-86300000D01*
X86500000Y-86300000D02*
X87650000Y-86300000D01*
X106300000Y-84400000D02*
X100000000Y-84400000D01*
X107000000Y-88400000D02*
X100000000Y-88400000D01*
X107500000Y-96400000D02*
X100000000Y-96400000D01*
X108600000Y-112400000D02*
X100000000Y-112400000D01*
X108700000Y-112300000D02*
X108600000Y-112400000D01*
X110100000Y-120300000D02*
X100100000Y-120300000D01*
X100100000Y-120300000D02*
X100000000Y-120400000D01*
X110000000Y-124800000D02*
X109700000Y-124500000D01*
X109700000Y-124500000D02*
X101200000Y-124500000D01*
X110700000Y-130600000D02*
X110000000Y-129900000D01*
X110000000Y-129900000D02*
X110000000Y-127700000D01*
X110000000Y-127700000D02*
X110000000Y-124800000D01*
X99500000Y-75500000D02*
X99700000Y-75500000D01*
X100000000Y-75800000D02*
X99700000Y-76400000D01*
X99700000Y-75500000D02*
X100000000Y-75800000D01*
X86500000Y-78300000D02*
X86500000Y-75900000D01*
X86900000Y-75500000D02*
X99500000Y-75500000D01*
X86500000Y-75900000D02*
X86900000Y-75500000D01*
X103400000Y-77300000D02*
X102500000Y-76400000D01*
X99700000Y-76400000D02*
X101750000Y-76400000D01*
X101750000Y-76400000D02*
X102500000Y-76400000D01*
X114600000Y-121100000D02*
X114600000Y-122700000D01*
X114965000Y-117935000D02*
X114600000Y-118300000D01*
X114600000Y-118300000D02*
X114600000Y-121100000D01*
X115765000Y-117935000D02*
X114965000Y-117935000D01*
X114915000Y-123015000D02*
X115765000Y-123015000D01*
X114600000Y-122700000D02*
X114915000Y-123015000D01*
X98760000Y-122400000D02*
X100000000Y-122400000D01*
X98760000Y-120400000D02*
X100000000Y-120400000D01*
X98760000Y-118400000D02*
X100000000Y-118400000D01*
X98760000Y-116400000D02*
X100000000Y-116400000D01*
X98760000Y-114400000D02*
X100000000Y-114400000D01*
X98760000Y-112400000D02*
X100000000Y-112400000D01*
X98760000Y-110400000D02*
X100000000Y-110400000D01*
X98760000Y-108400000D02*
X100000000Y-108400000D01*
X98760000Y-106400000D02*
X100000000Y-106400000D01*
X98760000Y-104400000D02*
X100000000Y-104400000D01*
X98760000Y-102400000D02*
X99650000Y-102400000D01*
X98760000Y-100400000D02*
X99650000Y-100400000D01*
X98760000Y-98400000D02*
X100000000Y-98400000D01*
X98760000Y-96400000D02*
X100000000Y-96400000D01*
X98760000Y-94400000D02*
X100000000Y-94400000D01*
X98760000Y-92400000D02*
X100000000Y-92400000D01*
X98760000Y-90400000D02*
X100000000Y-90400000D01*
X100000000Y-88400000D02*
X98760000Y-88400000D01*
X98760000Y-86400000D02*
X100000000Y-86400000D01*
X86500000Y-118300000D02*
X86500000Y-121400000D01*
X86500000Y-121400000D02*
X87400000Y-122300000D01*
X87400000Y-122300000D02*
X87600000Y-122300000D01*
X88600000Y-122400000D02*
X88600000Y-122300000D01*
X88600000Y-122400000D02*
X88600000Y-122300000D01*
X86500000Y-82300000D02*
X86500000Y-78550000D01*
X86500000Y-78550000D02*
X86500000Y-78300000D01*
X86500000Y-86300000D02*
X86500000Y-90300000D01*
X87600000Y-90300000D02*
X86500000Y-90300000D01*
X86500000Y-90300000D02*
X86500000Y-94300000D01*
X86500000Y-94300000D02*
X86500000Y-98300000D01*
X86500000Y-98300000D02*
X86500000Y-102300000D01*
X86500000Y-102300000D02*
X86500000Y-106300000D01*
X86500000Y-106300000D02*
X86500000Y-110300000D01*
X86500000Y-110300000D02*
X86500000Y-114300000D01*
X86500000Y-114300000D02*
X86500000Y-118300000D01*
X92610000Y-122350000D02*
X91000000Y-122350000D01*
X91000000Y-122350000D02*
X89650000Y-122350000D01*
X89650000Y-122350000D02*
X89600000Y-122300000D01*
X89600000Y-122300000D02*
X88600000Y-122300000D01*
X88600000Y-122300000D02*
X87600000Y-122300000D01*
X87600000Y-118300000D02*
X86500000Y-118300000D01*
X92610000Y-118350000D02*
X91000000Y-118350000D01*
X91000000Y-118350000D02*
X89650000Y-118350000D01*
X89650000Y-118350000D02*
X89600000Y-118300000D01*
X89600000Y-118300000D02*
X87600000Y-118300000D01*
X87600000Y-114300000D02*
X86500000Y-114300000D01*
X92610000Y-114350000D02*
X91000000Y-114350000D01*
X91000000Y-114350000D02*
X89650000Y-114350000D01*
X89650000Y-114350000D02*
X89600000Y-114300000D01*
X89600000Y-114300000D02*
X87600000Y-114300000D01*
X87600000Y-110300000D02*
X86500000Y-110300000D01*
X92610000Y-110350000D02*
X91000000Y-110350000D01*
X91000000Y-110350000D02*
X89650000Y-110350000D01*
X89650000Y-110350000D02*
X89600000Y-110300000D01*
X89600000Y-110300000D02*
X87600000Y-110300000D01*
X87600000Y-106300000D02*
X86500000Y-106300000D01*
X89600000Y-106300000D02*
X87600000Y-106300000D01*
X92610000Y-106350000D02*
X91000000Y-106350000D01*
X91000000Y-106350000D02*
X89650000Y-106350000D01*
X89650000Y-106350000D02*
X89600000Y-106300000D01*
X89600000Y-102300000D02*
X87600000Y-102300000D01*
X87600000Y-102300000D02*
X86500000Y-102300000D01*
X92610000Y-102350000D02*
X91000000Y-102350000D01*
X91000000Y-102350000D02*
X89650000Y-102350000D01*
X89650000Y-102350000D02*
X89600000Y-102300000D01*
X87600000Y-98300000D02*
X86500000Y-98300000D01*
X92610000Y-98350000D02*
X91000000Y-98350000D01*
X91000000Y-98350000D02*
X89650000Y-98350000D01*
X89650000Y-98350000D02*
X89600000Y-98300000D01*
X89600000Y-98300000D02*
X87600000Y-98300000D01*
X87600000Y-94300000D02*
X86500000Y-94300000D01*
X92610000Y-94350000D02*
X91000000Y-94350000D01*
X91000000Y-94350000D02*
X89650000Y-94350000D01*
X89650000Y-94350000D02*
X89600000Y-94300000D01*
X89600000Y-94300000D02*
X87600000Y-94300000D01*
X89600000Y-90300000D02*
X87600000Y-90300000D01*
X92610000Y-90350000D02*
X91000000Y-90350000D01*
X91000000Y-90350000D02*
X89650000Y-90350000D01*
X89650000Y-90350000D02*
X89600000Y-90300000D01*
X89600000Y-78300000D02*
X87600000Y-78300000D01*
X87600000Y-82300000D02*
X89600000Y-82300000D01*
X87700000Y-86350000D02*
X87650000Y-86300000D01*
X89600000Y-86400000D02*
X89550000Y-86350000D01*
X89600000Y-86300000D02*
X89600000Y-86400000D01*
X86500000Y-82300000D02*
X86500000Y-86300000D01*
X89660000Y-82350000D02*
X91000000Y-82350000D01*
X91000000Y-82350000D02*
X92610000Y-82350000D01*
X92610000Y-86350000D02*
X91000000Y-86350000D01*
X91000000Y-86350000D02*
X89710000Y-86350000D01*
X89710000Y-86350000D02*
X89610000Y-86250000D01*
X86500000Y-82300000D02*
X87610000Y-82300000D01*
X89610000Y-82300000D02*
X89660000Y-82350000D01*
X89610000Y-78300000D02*
X89660000Y-78350000D01*
X89660000Y-78350000D02*
X91000000Y-78350000D01*
X91000000Y-78350000D02*
X92610000Y-78350000D01*
X98770000Y-94390000D02*
X98760000Y-94400000D01*
X98770000Y-120390000D02*
X98760000Y-120400000D01*
X98770000Y-86390000D02*
X98760000Y-86400000D01*
X98770000Y-90390000D02*
X98760000Y-90400000D01*
X98770000Y-88390000D02*
X98760000Y-88400000D01*
X89660000Y-82350000D02*
X89610000Y-82300000D01*
X98760000Y-84400000D02*
X100000000Y-84400000D01*
X100000000Y-82400000D02*
X98760000Y-82400000D01*
X98760000Y-78400000D02*
X99600000Y-78400000D01*
X99700000Y-76400000D02*
X98760000Y-76400000D01*
X89610000Y-82300000D02*
X89660000Y-82350000D01*
X89610000Y-82300000D02*
X89660000Y-82350000D01*
X100500000Y-100400000D02*
X106800000Y-100400000D01*
X106800000Y-100400000D02*
X108300000Y-100400000D01*
X92900000Y-120350000D02*
X93760000Y-120350000D01*
X93760000Y-120350000D02*
X94810000Y-121400000D01*
X93200000Y-120350000D02*
X92900000Y-120350000D01*
X93710000Y-119250000D02*
X93710000Y-119840000D01*
X93710000Y-119840000D02*
X93200000Y-120350000D01*
X92850000Y-116350000D02*
X93760000Y-116350000D01*
X93760000Y-116350000D02*
X94810000Y-117400000D01*
X93700000Y-115850000D02*
X93200000Y-116350000D01*
X93200000Y-116350000D02*
X92850000Y-116350000D01*
X93700000Y-115200000D02*
X93700000Y-115850000D01*
X92850000Y-112400000D02*
X93810000Y-112400000D01*
X93810000Y-112400000D02*
X94810000Y-113400000D01*
X93700000Y-111900000D02*
X93200000Y-112400000D01*
X93200000Y-112400000D02*
X92850000Y-112400000D01*
X93700000Y-111250000D02*
X93700000Y-111900000D01*
X92650000Y-108350000D02*
X93760000Y-108350000D01*
X93760000Y-108350000D02*
X94810000Y-109400000D01*
X93710000Y-107840000D02*
X93200000Y-108350000D01*
X93200000Y-108350000D02*
X92650000Y-108350000D01*
X93710000Y-107050000D02*
X93710000Y-107840000D01*
X92750000Y-104350000D02*
X93760000Y-104350000D01*
X93760000Y-104350000D02*
X94810000Y-105400000D01*
X93710000Y-103840000D02*
X93200000Y-104350000D01*
X93200000Y-104350000D02*
X92750000Y-104350000D01*
X93710000Y-103200000D02*
X93710000Y-103840000D01*
X92650000Y-100350000D02*
X93760000Y-100350000D01*
X93760000Y-100350000D02*
X94810000Y-101400000D01*
X93710000Y-99840000D02*
X93200000Y-100350000D01*
X93200000Y-100350000D02*
X92650000Y-100350000D01*
X93710000Y-99100000D02*
X93710000Y-99840000D01*
X92750000Y-92350000D02*
X93760000Y-92350000D01*
X93760000Y-92350000D02*
X94810000Y-93400000D01*
X92750000Y-96400000D02*
X93810000Y-96400000D01*
X93810000Y-96400000D02*
X94810000Y-97400000D01*
X93700000Y-95850000D02*
X93150000Y-96400000D01*
X94810000Y-93400000D02*
X94000000Y-93400000D01*
X93700000Y-93700000D02*
X93700000Y-95250000D01*
X94000000Y-93400000D02*
X93700000Y-93700000D01*
X93700000Y-95250000D02*
X93700000Y-95850000D01*
X93150000Y-96400000D02*
X92750000Y-96400000D01*
X93710000Y-91840000D02*
X93200000Y-92350000D01*
X93200000Y-92350000D02*
X92750000Y-92350000D01*
X93710000Y-91150000D02*
X93710000Y-91840000D01*
X92750000Y-88350000D02*
X93760000Y-88350000D01*
X93760000Y-88350000D02*
X94810000Y-89400000D01*
X93700000Y-87800000D02*
X93150000Y-88350000D01*
X93150000Y-88350000D02*
X92750000Y-88350000D01*
X93700000Y-87000000D02*
X93700000Y-87800000D01*
X96300000Y-121950000D02*
X96300000Y-122350000D01*
X96300000Y-121950000D02*
X96300000Y-121650000D01*
X96300000Y-121650000D02*
X96050000Y-121400000D01*
X94810000Y-121400000D02*
X96050000Y-121400000D01*
X96800000Y-122900000D02*
X96800000Y-123290000D01*
X96800000Y-122900000D02*
X96300000Y-122400000D01*
X96300000Y-122350000D02*
X96300000Y-122400000D01*
X92700000Y-84350000D02*
X93760000Y-84350000D01*
X93760000Y-84350000D02*
X94810000Y-85400000D01*
X93700000Y-83750000D02*
X93100000Y-84350000D01*
X93100000Y-84350000D02*
X92700000Y-84350000D01*
X93700000Y-82900000D02*
X93700000Y-83750000D01*
X92650000Y-80350000D02*
X93760000Y-80350000D01*
X93760000Y-80350000D02*
X94810000Y-81400000D01*
X93710000Y-79740000D02*
X93100000Y-80350000D01*
X93100000Y-80350000D02*
X92650000Y-80350000D01*
X93710000Y-79300000D02*
X93710000Y-79740000D01*
X106650000Y-79250000D02*
X106750000Y-79150000D01*
X102650000Y-79250000D02*
X106650000Y-79250000D01*
X94150000Y-113400000D02*
X94810000Y-113400000D01*
X93700000Y-113850000D02*
X94150000Y-113400000D01*
X93700000Y-115200000D02*
X93700000Y-113850000D01*
X93900000Y-109400000D02*
X93700000Y-109600000D01*
X93700000Y-109600000D02*
X93700000Y-111250000D01*
X94810000Y-109400000D02*
X93900000Y-109400000D01*
X93760000Y-104350000D02*
X94810000Y-105400000D01*
X93710000Y-101690000D02*
X93710000Y-103200000D01*
X94000000Y-101400000D02*
X93710000Y-101690000D01*
X94810000Y-101400000D02*
X94000000Y-101400000D01*
X93760000Y-88350000D02*
X94810000Y-89400000D01*
X93760000Y-84350000D02*
X94810000Y-85400000D01*
X94810000Y-81400000D02*
X93900000Y-81400000D01*
X93700000Y-81600000D02*
X93700000Y-82900000D01*
X93900000Y-81400000D02*
X93700000Y-81600000D01*
X93700000Y-87000000D02*
X93700000Y-85700000D01*
X93700000Y-85700000D02*
X94000000Y-85400000D01*
X94000000Y-85400000D02*
X94810000Y-85400000D01*
X94810000Y-121400000D02*
X94810000Y-121390000D01*
X94810000Y-121390000D02*
X95800000Y-120400000D01*
X95800000Y-120400000D02*
X97860000Y-120400000D01*
X94810000Y-117400000D02*
X94810000Y-117390000D01*
X94810000Y-117390000D02*
X95800000Y-116400000D01*
X95800000Y-116400000D02*
X97860000Y-116400000D01*
X94810000Y-113400000D02*
X94810000Y-113390000D01*
X94810000Y-113390000D02*
X95800000Y-112400000D01*
X95800000Y-112400000D02*
X97860000Y-112400000D01*
X94810000Y-109400000D02*
X94810000Y-109390000D01*
X94810000Y-109390000D02*
X95800000Y-108400000D01*
X95800000Y-108400000D02*
X97860000Y-108400000D01*
X94810000Y-105400000D02*
X94810000Y-105390000D01*
X94810000Y-105390000D02*
X95800000Y-104400000D01*
X95800000Y-104400000D02*
X97860000Y-104400000D01*
X94810000Y-101400000D02*
X94900000Y-101400000D01*
X94900000Y-101400000D02*
X95900000Y-100400000D01*
X95900000Y-100400000D02*
X97860000Y-100400000D01*
X94810000Y-97400000D02*
X94810000Y-97390000D01*
X94810000Y-97390000D02*
X95800000Y-96400000D01*
X95800000Y-96400000D02*
X97860000Y-96400000D01*
X94810000Y-93400000D02*
X94810000Y-93390000D01*
X94810000Y-93390000D02*
X95800000Y-92400000D01*
X95800000Y-92400000D02*
X97860000Y-92400000D01*
X94810000Y-89400000D02*
X94810000Y-89390000D01*
X94810000Y-89390000D02*
X95800000Y-88400000D01*
X95800000Y-88400000D02*
X97860000Y-88400000D01*
X94810000Y-85400000D02*
X94810000Y-85390000D01*
X94810000Y-85390000D02*
X95800000Y-84400000D01*
X95800000Y-84400000D02*
X97860000Y-84400000D01*
X94810000Y-81400000D02*
X94810000Y-81390000D01*
X94810000Y-81390000D02*
X95800000Y-80400000D01*
X95800000Y-80400000D02*
X97860000Y-80400000D01*
X94810000Y-77400000D02*
X94810000Y-77390000D01*
X94810000Y-77390000D02*
X95800000Y-76400000D01*
X95800000Y-76400000D02*
X97860000Y-76400000D01*
X94810000Y-117400000D02*
X94000000Y-117400000D01*
X93710000Y-117690000D02*
X93710000Y-119250000D01*
X94000000Y-117400000D02*
X93710000Y-117690000D01*
X94810000Y-105400000D02*
X94150000Y-105400000D01*
X93710000Y-105840000D02*
X93710000Y-107050000D01*
X94150000Y-105400000D02*
X93710000Y-105840000D01*
X94810000Y-101400000D02*
X94810000Y-101390000D01*
X94810000Y-97400000D02*
X94000000Y-97400000D01*
X93710000Y-97690000D02*
X93710000Y-99100000D01*
X94000000Y-97400000D02*
X93710000Y-97690000D01*
X94810000Y-89400000D02*
X93950000Y-89400000D01*
X93710000Y-89640000D02*
X93710000Y-91150000D01*
X93950000Y-89400000D02*
X93710000Y-89640000D01*
X93760000Y-84350000D02*
X94810000Y-85400000D01*
X93760000Y-80350000D02*
X94810000Y-81400000D01*
X97810000Y-80350000D02*
X97860000Y-80400000D01*
X93910000Y-77400000D02*
X93710000Y-77600000D01*
X93710000Y-77600000D02*
X93710000Y-79300000D01*
X94810000Y-77400000D02*
X93910000Y-77400000D01*
X97760000Y-76500000D02*
X97860000Y-76400000D01*
D25*
X113325000Y-81125000D02*
X109950000Y-81125000D01*
X115765000Y-82375000D02*
X115765000Y-81415000D01*
X115475000Y-81125000D02*
X114100000Y-81125000D01*
X115765000Y-81415000D02*
X115475000Y-81125000D01*
X113325000Y-81125000D02*
X114100000Y-81125000D01*
X109600000Y-80775000D02*
X109600000Y-79300000D01*
X109950000Y-81125000D02*
X109600000Y-80775000D01*
X115765000Y-82375000D02*
X115765000Y-81865000D01*
X115765000Y-84915000D02*
X115765000Y-82375000D01*
X99090000Y-134800000D02*
X97820000Y-134800000D01*
X97820000Y-134800000D02*
X96550000Y-134800000D01*
X96550000Y-134800000D02*
X95280000Y-134800000D01*
X95280000Y-134800000D02*
X94010000Y-134800000D01*
X94010000Y-134800000D02*
X92740000Y-134800000D01*
X92740000Y-134800000D02*
X91470000Y-134800000D01*
X91470000Y-134800000D02*
X90200000Y-134800000D01*
X90200000Y-134800000D02*
X88930000Y-134800000D01*
X88930000Y-134800000D02*
X87660000Y-134800000D01*
X87660000Y-134800000D02*
X86390000Y-134800000D01*
X86390000Y-134800000D02*
X85120000Y-134800000D01*
X85120000Y-134800000D02*
X83850000Y-134800000D01*
X83850000Y-134800000D02*
X82580000Y-134800000D01*
X82580000Y-134800000D02*
X81310000Y-134800000D01*
X81310000Y-134800000D02*
X80040000Y-134800000D01*
X80040000Y-134800000D02*
X78770000Y-134800000D01*
X78770000Y-134800000D02*
X77500000Y-134800000D01*
X77500000Y-134800000D02*
X76230000Y-134800000D01*
X76230000Y-134800000D02*
X74960000Y-134800000D01*
X74960000Y-134800000D02*
X73690000Y-134800000D01*
X73690000Y-134800000D02*
X72420000Y-134800000D01*
X72420000Y-134800000D02*
X71150000Y-134800000D01*
X71150000Y-128400000D02*
X72420000Y-128400000D01*
X72420000Y-128400000D02*
X73690000Y-128400000D01*
X73690000Y-128400000D02*
X74960000Y-128400000D01*
X74960000Y-128400000D02*
X76230000Y-128400000D01*
X76230000Y-128400000D02*
X77500000Y-128400000D01*
X77500000Y-128400000D02*
X78770000Y-128400000D01*
X78770000Y-128400000D02*
X80040000Y-128400000D01*
X80040000Y-128400000D02*
X81310000Y-128400000D01*
X81310000Y-128400000D02*
X82580000Y-128400000D01*
X82580000Y-128400000D02*
X83850000Y-128400000D01*
X83850000Y-128400000D02*
X85120000Y-128400000D01*
X85120000Y-128400000D02*
X86390000Y-128400000D01*
X86390000Y-128400000D02*
X87660000Y-128400000D01*
X87660000Y-128400000D02*
X88930000Y-128400000D01*
X88930000Y-128400000D02*
X90200000Y-128400000D01*
X90200000Y-128400000D02*
X91470000Y-128400000D01*
X91470000Y-128400000D02*
X92740000Y-128400000D01*
X92740000Y-128400000D02*
X94010000Y-128400000D01*
X94010000Y-128400000D02*
X95280000Y-128400000D01*
X95280000Y-128400000D02*
X96550000Y-128400000D01*
X96550000Y-128400000D02*
X97820000Y-128400000D01*
X97820000Y-128400000D02*
X99090000Y-128400000D01*
X69950000Y-128400000D02*
X71150000Y-128400000D01*
X69950000Y-128400000D02*
X70000000Y-128400000D01*
X105940000Y-77300000D02*
X105940000Y-77160000D01*
X105940000Y-77160000D02*
X106340000Y-76760000D01*
X106340000Y-76760000D02*
X109600000Y-76760000D01*
X105940000Y-77300000D02*
X105940000Y-77260000D01*
D26*
G36*
X109840000Y-123685079D02*
X109840000Y-128900000D01*
X109897852Y-129190839D01*
X110062599Y-129437401D01*
X110562599Y-129937401D01*
X110809161Y-130102148D01*
X111100000Y-130160000D01*
X114516720Y-130160000D01*
X114430232Y-130368287D01*
X114429769Y-130899383D01*
X114570509Y-131240000D01*
X113100000Y-131240000D01*
X112809161Y-131297852D01*
X112596421Y-131440000D01*
X109260000Y-131440000D01*
X109260000Y-126300000D01*
X109202148Y-126009161D01*
X109037401Y-125762599D01*
X108587401Y-125312599D01*
X108340839Y-125147852D01*
X108050000Y-125090000D01*
X100664802Y-125090000D01*
X100287401Y-124712599D01*
X100040839Y-124547852D01*
X99750000Y-124490000D01*
X99227000Y-124490000D01*
X99227000Y-123798500D01*
X109400000Y-123798500D01*
X109667305Y-123745330D01*
X109757584Y-123685007D01*
X109840000Y-123685079D01*
X109840000Y-123685079D01*
G37*
X109840000Y-123685079D02*
X109840000Y-128900000D01*
X109897852Y-129190839D01*
X110062599Y-129437401D01*
X110562599Y-129937401D01*
X110809161Y-130102148D01*
X111100000Y-130160000D01*
X114516720Y-130160000D01*
X114430232Y-130368287D01*
X114429769Y-130899383D01*
X114570509Y-131240000D01*
X113100000Y-131240000D01*
X112809161Y-131297852D01*
X112596421Y-131440000D01*
X109260000Y-131440000D01*
X109260000Y-126300000D01*
X109202148Y-126009161D01*
X109037401Y-125762599D01*
X108587401Y-125312599D01*
X108340839Y-125147852D01*
X108050000Y-125090000D01*
X100664802Y-125090000D01*
X100287401Y-124712599D01*
X100040839Y-124547852D01*
X99750000Y-124490000D01*
X99227000Y-124490000D01*
X99227000Y-123798500D01*
X109400000Y-123798500D01*
X109667305Y-123745330D01*
X109757584Y-123685007D01*
X109840000Y-123685079D01*
G36*
X114632582Y-85670229D02*
X115007796Y-86046098D01*
X115498287Y-86249768D01*
X116029383Y-86250231D01*
X116037203Y-86247000D01*
X117315000Y-86247000D01*
X117315000Y-124248000D01*
X116098586Y-124248000D01*
X116031713Y-124220232D01*
X115500617Y-124219769D01*
X115009771Y-124422582D01*
X114633902Y-124797796D01*
X114494909Y-125132527D01*
X114357418Y-124799771D01*
X113982204Y-124423902D01*
X113647473Y-124284909D01*
X113980229Y-124147418D01*
X114356098Y-123772204D01*
X114559768Y-123281713D01*
X114560231Y-122750617D01*
X114357418Y-122259771D01*
X113982204Y-121883902D01*
X113647473Y-121744909D01*
X113980229Y-121607418D01*
X114356098Y-121232204D01*
X114495091Y-120897473D01*
X114632582Y-121230229D01*
X115007796Y-121606098D01*
X115498287Y-121809768D01*
X116029383Y-121810231D01*
X116520229Y-121607418D01*
X116896098Y-121232204D01*
X117099768Y-120741713D01*
X117100231Y-120210617D01*
X116897418Y-119719771D01*
X116522204Y-119343902D01*
X116031713Y-119140232D01*
X115500617Y-119139769D01*
X115009771Y-119342582D01*
X114633902Y-119717796D01*
X114494909Y-120052527D01*
X114357418Y-119719771D01*
X113982204Y-119343902D01*
X113647473Y-119204909D01*
X113980229Y-119067418D01*
X114356098Y-118692204D01*
X114559768Y-118201713D01*
X114560231Y-117670617D01*
X114357418Y-117179771D01*
X113982204Y-116803902D01*
X113647473Y-116664909D01*
X113980229Y-116527418D01*
X114356098Y-116152204D01*
X114495091Y-115817473D01*
X114632582Y-116150229D01*
X115007796Y-116526098D01*
X115498287Y-116729768D01*
X116029383Y-116730231D01*
X116520229Y-116527418D01*
X116896098Y-116152204D01*
X117099768Y-115661713D01*
X117100231Y-115130617D01*
X116897418Y-114639771D01*
X116522204Y-114263902D01*
X116187473Y-114124909D01*
X116520229Y-113987418D01*
X116896098Y-113612204D01*
X117099768Y-113121713D01*
X117100231Y-112590617D01*
X116897418Y-112099771D01*
X116522204Y-111723902D01*
X116494658Y-111712464D01*
X116467148Y-111574161D01*
X116412268Y-111492027D01*
X116520229Y-111447418D01*
X116896098Y-111072204D01*
X117099768Y-110581713D01*
X117100231Y-110050617D01*
X116897418Y-109559771D01*
X116522204Y-109183902D01*
X116485986Y-109168863D01*
X116467148Y-109074161D01*
X116391323Y-108960681D01*
X116520229Y-108907418D01*
X116896098Y-108532204D01*
X117099768Y-108041713D01*
X117100231Y-107510617D01*
X116897418Y-107019771D01*
X116522204Y-106643902D01*
X116498995Y-106634265D01*
X116467148Y-106474161D01*
X116302401Y-106227599D01*
X116037401Y-105962599D01*
X115790839Y-105797852D01*
X115500000Y-105740000D01*
X114460822Y-105740000D01*
X114559768Y-105501713D01*
X114560231Y-104970617D01*
X114357418Y-104479771D01*
X113982204Y-104103902D01*
X113647473Y-103964909D01*
X113980229Y-103827418D01*
X114356098Y-103452204D01*
X114495091Y-103117473D01*
X114632582Y-103450229D01*
X115007796Y-103826098D01*
X115498287Y-104029768D01*
X116029383Y-104030231D01*
X116520229Y-103827418D01*
X116896098Y-103452204D01*
X117099768Y-102961713D01*
X117100231Y-102430617D01*
X116897418Y-101939771D01*
X116522204Y-101563902D01*
X116503331Y-101556065D01*
X116467148Y-101374161D01*
X116433212Y-101323372D01*
X116520229Y-101287418D01*
X116896098Y-100912204D01*
X117099768Y-100421713D01*
X117100231Y-99890617D01*
X116897418Y-99399771D01*
X116522204Y-99023902D01*
X116494658Y-99012464D01*
X116467148Y-98874161D01*
X116302401Y-98627599D01*
X116037401Y-98362599D01*
X115790839Y-98197852D01*
X115500000Y-98140000D01*
X114452518Y-98140000D01*
X114559768Y-97881713D01*
X114560231Y-97350617D01*
X114357418Y-96859771D01*
X113982204Y-96483902D01*
X113647473Y-96344909D01*
X113980229Y-96207418D01*
X114356098Y-95832204D01*
X114495091Y-95497473D01*
X114632582Y-95830229D01*
X115007796Y-96206098D01*
X115498287Y-96409768D01*
X116029383Y-96410231D01*
X116520229Y-96207418D01*
X116896098Y-95832204D01*
X117099768Y-95341713D01*
X117100231Y-94810617D01*
X116897418Y-94319771D01*
X116522204Y-93943902D01*
X116498995Y-93934265D01*
X116467148Y-93774161D01*
X116422740Y-93707700D01*
X116520229Y-93667418D01*
X116896098Y-93292204D01*
X117099768Y-92801713D01*
X117100231Y-92270617D01*
X116897418Y-91779771D01*
X116522204Y-91403902D01*
X116468640Y-91381660D01*
X116467148Y-91374161D01*
X116349434Y-91197989D01*
X116520229Y-91127418D01*
X116896098Y-90752204D01*
X117099768Y-90261713D01*
X117100231Y-89730617D01*
X116897418Y-89239771D01*
X116522204Y-88863902D01*
X116481649Y-88847062D01*
X116467148Y-88774161D01*
X116302401Y-88527599D01*
X115937401Y-88162599D01*
X115690839Y-87997852D01*
X115400000Y-87940000D01*
X114469127Y-87940000D01*
X114559768Y-87721713D01*
X114560231Y-87190617D01*
X114357418Y-86699771D01*
X113982204Y-86323902D01*
X113647473Y-86184909D01*
X113980229Y-86047418D01*
X114356098Y-85672204D01*
X114495091Y-85337473D01*
X114632582Y-85670229D01*
X114632582Y-85670229D01*
G37*
X114632582Y-85670229D02*
X115007796Y-86046098D01*
X115498287Y-86249768D01*
X116029383Y-86250231D01*
X116037203Y-86247000D01*
X117315000Y-86247000D01*
X117315000Y-124248000D01*
X116098586Y-124248000D01*
X116031713Y-124220232D01*
X115500617Y-124219769D01*
X115009771Y-124422582D01*
X114633902Y-124797796D01*
X114494909Y-125132527D01*
X114357418Y-124799771D01*
X113982204Y-124423902D01*
X113647473Y-124284909D01*
X113980229Y-124147418D01*
X114356098Y-123772204D01*
X114559768Y-123281713D01*
X114560231Y-122750617D01*
X114357418Y-122259771D01*
X113982204Y-121883902D01*
X113647473Y-121744909D01*
X113980229Y-121607418D01*
X114356098Y-121232204D01*
X114495091Y-120897473D01*
X114632582Y-121230229D01*
X115007796Y-121606098D01*
X115498287Y-121809768D01*
X116029383Y-121810231D01*
X116520229Y-121607418D01*
X116896098Y-121232204D01*
X117099768Y-120741713D01*
X117100231Y-120210617D01*
X116897418Y-119719771D01*
X116522204Y-119343902D01*
X116031713Y-119140232D01*
X115500617Y-119139769D01*
X115009771Y-119342582D01*
X114633902Y-119717796D01*
X114494909Y-120052527D01*
X114357418Y-119719771D01*
X113982204Y-119343902D01*
X113647473Y-119204909D01*
X113980229Y-119067418D01*
X114356098Y-118692204D01*
X114559768Y-118201713D01*
X114560231Y-117670617D01*
X114357418Y-117179771D01*
X113982204Y-116803902D01*
X113647473Y-116664909D01*
X113980229Y-116527418D01*
X114356098Y-116152204D01*
X114495091Y-115817473D01*
X114632582Y-116150229D01*
X115007796Y-116526098D01*
X115498287Y-116729768D01*
X116029383Y-116730231D01*
X116520229Y-116527418D01*
X116896098Y-116152204D01*
X117099768Y-115661713D01*
X117100231Y-115130617D01*
X116897418Y-114639771D01*
X116522204Y-114263902D01*
X116187473Y-114124909D01*
X116520229Y-113987418D01*
X116896098Y-113612204D01*
X117099768Y-113121713D01*
X117100231Y-112590617D01*
X116897418Y-112099771D01*
X116522204Y-111723902D01*
X116494658Y-111712464D01*
X116467148Y-111574161D01*
X116412268Y-111492027D01*
X116520229Y-111447418D01*
X116896098Y-111072204D01*
X117099768Y-110581713D01*
X117100231Y-110050617D01*
X116897418Y-109559771D01*
X116522204Y-109183902D01*
X116485986Y-109168863D01*
X116467148Y-109074161D01*
X116391323Y-108960681D01*
X116520229Y-108907418D01*
X116896098Y-108532204D01*
X117099768Y-108041713D01*
X117100231Y-107510617D01*
X116897418Y-107019771D01*
X116522204Y-106643902D01*
X116498995Y-106634265D01*
X116467148Y-106474161D01*
X116302401Y-106227599D01*
X116037401Y-105962599D01*
X115790839Y-105797852D01*
X115500000Y-105740000D01*
X114460822Y-105740000D01*
X114559768Y-105501713D01*
X114560231Y-104970617D01*
X114357418Y-104479771D01*
X113982204Y-104103902D01*
X113647473Y-103964909D01*
X113980229Y-103827418D01*
X114356098Y-103452204D01*
X114495091Y-103117473D01*
X114632582Y-103450229D01*
X115007796Y-103826098D01*
X115498287Y-104029768D01*
X116029383Y-104030231D01*
X116520229Y-103827418D01*
X116896098Y-103452204D01*
X117099768Y-102961713D01*
X117100231Y-102430617D01*
X116897418Y-101939771D01*
X116522204Y-101563902D01*
X116503331Y-101556065D01*
X116467148Y-101374161D01*
X116433212Y-101323372D01*
X116520229Y-101287418D01*
X116896098Y-100912204D01*
X117099768Y-100421713D01*
X117100231Y-99890617D01*
X116897418Y-99399771D01*
X116522204Y-99023902D01*
X116494658Y-99012464D01*
X116467148Y-98874161D01*
X116302401Y-98627599D01*
X116037401Y-98362599D01*
X115790839Y-98197852D01*
X115500000Y-98140000D01*
X114452518Y-98140000D01*
X114559768Y-97881713D01*
X114560231Y-97350617D01*
X114357418Y-96859771D01*
X113982204Y-96483902D01*
X113647473Y-96344909D01*
X113980229Y-96207418D01*
X114356098Y-95832204D01*
X114495091Y-95497473D01*
X114632582Y-95830229D01*
X115007796Y-96206098D01*
X115498287Y-96409768D01*
X116029383Y-96410231D01*
X116520229Y-96207418D01*
X116896098Y-95832204D01*
X117099768Y-95341713D01*
X117100231Y-94810617D01*
X116897418Y-94319771D01*
X116522204Y-93943902D01*
X116498995Y-93934265D01*
X116467148Y-93774161D01*
X116422740Y-93707700D01*
X116520229Y-93667418D01*
X116896098Y-93292204D01*
X117099768Y-92801713D01*
X117100231Y-92270617D01*
X116897418Y-91779771D01*
X116522204Y-91403902D01*
X116468640Y-91381660D01*
X116467148Y-91374161D01*
X116349434Y-91197989D01*
X116520229Y-91127418D01*
X116896098Y-90752204D01*
X117099768Y-90261713D01*
X117100231Y-89730617D01*
X116897418Y-89239771D01*
X116522204Y-88863902D01*
X116481649Y-88847062D01*
X116467148Y-88774161D01*
X116302401Y-88527599D01*
X115937401Y-88162599D01*
X115690839Y-87997852D01*
X115400000Y-87940000D01*
X114469127Y-87940000D01*
X114559768Y-87721713D01*
X114560231Y-87190617D01*
X114357418Y-86699771D01*
X113982204Y-86323902D01*
X113647473Y-86184909D01*
X113980229Y-86047418D01*
X114356098Y-85672204D01*
X114495091Y-85337473D01*
X114632582Y-85670229D01*
G36*
X104873000Y-76196214D02*
X104639449Y-76429357D01*
X104405267Y-76993330D01*
X104404735Y-77603991D01*
X104637932Y-78168371D01*
X104958999Y-78490000D01*
X103212463Y-78490000D01*
X103180327Y-78457808D01*
X102836799Y-78315162D01*
X102572595Y-78314932D01*
X102437401Y-78112599D01*
X101987401Y-77662599D01*
X101740839Y-77497852D01*
X101450000Y-77440000D01*
X101448065Y-77440000D01*
X101402148Y-77209161D01*
X101237401Y-76962599D01*
X100937401Y-76662599D01*
X100690839Y-76497852D01*
X100400000Y-76440000D01*
X98757440Y-76440000D01*
X98757440Y-76150000D01*
X98713162Y-75914683D01*
X98574090Y-75698559D01*
X98361890Y-75553569D01*
X98110000Y-75502560D01*
X97610000Y-75502560D01*
X97374683Y-75546838D01*
X97229905Y-75640000D01*
X95800000Y-75640000D01*
X95569197Y-75685910D01*
X95509160Y-75697852D01*
X95262599Y-75862599D01*
X94697638Y-76427560D01*
X94280000Y-76427560D01*
X94044683Y-76471838D01*
X93828559Y-76610910D01*
X93792746Y-76663323D01*
X93648182Y-76692079D01*
X93604090Y-76623559D01*
X93391890Y-76478569D01*
X93140000Y-76427560D01*
X92080000Y-76427560D01*
X91844683Y-76471838D01*
X91628559Y-76610910D01*
X91608683Y-76640000D01*
X91562463Y-76640000D01*
X91530327Y-76607808D01*
X91186799Y-76465162D01*
X90814833Y-76464838D01*
X90471057Y-76606883D01*
X90437882Y-76640000D01*
X90228386Y-76640000D01*
X90101890Y-76553569D01*
X89850000Y-76502560D01*
X89350000Y-76502560D01*
X89114683Y-76546838D01*
X88969905Y-76640000D01*
X88228386Y-76640000D01*
X88101890Y-76553569D01*
X87850000Y-76502560D01*
X87350000Y-76502560D01*
X87114683Y-76546838D01*
X86898559Y-76685910D01*
X86753569Y-76898110D01*
X86702560Y-77150000D01*
X86702560Y-77650000D01*
X86746838Y-77885317D01*
X86885910Y-78101441D01*
X87098110Y-78246431D01*
X87350000Y-78297440D01*
X87850000Y-78297440D01*
X88085317Y-78253162D01*
X88230095Y-78160000D01*
X88971614Y-78160000D01*
X89098110Y-78246431D01*
X89350000Y-78297440D01*
X89850000Y-78297440D01*
X90085317Y-78253162D01*
X90230095Y-78160000D01*
X90437537Y-78160000D01*
X90469673Y-78192192D01*
X90813201Y-78334838D01*
X91185167Y-78335162D01*
X91528943Y-78193117D01*
X91562118Y-78160000D01*
X91605331Y-78160000D01*
X91615910Y-78176441D01*
X91828110Y-78321431D01*
X91965120Y-78349176D01*
X91844683Y-78371838D01*
X91628559Y-78510910D01*
X91483569Y-78723110D01*
X91432560Y-78975000D01*
X91432560Y-79167211D01*
X91186799Y-79065162D01*
X90814833Y-79064838D01*
X90471057Y-79206883D01*
X90207808Y-79469673D01*
X90065162Y-79813201D01*
X90064838Y-80185167D01*
X90206883Y-80528943D01*
X90317746Y-80640000D01*
X90228386Y-80640000D01*
X90101890Y-80553569D01*
X89850000Y-80502560D01*
X89350000Y-80502560D01*
X89114683Y-80546838D01*
X88969905Y-80640000D01*
X88228386Y-80640000D01*
X88101890Y-80553569D01*
X87850000Y-80502560D01*
X87350000Y-80502560D01*
X87114683Y-80546838D01*
X86898559Y-80685910D01*
X86753569Y-80898110D01*
X86702560Y-81150000D01*
X86702560Y-81650000D01*
X86746838Y-81885317D01*
X86885910Y-82101441D01*
X87098110Y-82246431D01*
X87350000Y-82297440D01*
X87850000Y-82297440D01*
X88085317Y-82253162D01*
X88230095Y-82160000D01*
X88971614Y-82160000D01*
X89098110Y-82246431D01*
X89350000Y-82297440D01*
X89850000Y-82297440D01*
X90085317Y-82253162D01*
X90230095Y-82160000D01*
X90437537Y-82160000D01*
X90469673Y-82192192D01*
X90813201Y-82334838D01*
X91185167Y-82335162D01*
X91528943Y-82193117D01*
X91562118Y-82160000D01*
X91605331Y-82160000D01*
X91615910Y-82176441D01*
X91828110Y-82321431D01*
X91965120Y-82349176D01*
X91844683Y-82371838D01*
X91628559Y-82510910D01*
X91483569Y-82723110D01*
X91432560Y-82975000D01*
X91432560Y-83167211D01*
X91186799Y-83065162D01*
X90814833Y-83064838D01*
X90471057Y-83206883D01*
X90207808Y-83469673D01*
X90065162Y-83813201D01*
X90064838Y-84185167D01*
X90206883Y-84528943D01*
X90317746Y-84640000D01*
X90228386Y-84640000D01*
X90101890Y-84553569D01*
X89850000Y-84502560D01*
X89350000Y-84502560D01*
X89114683Y-84546838D01*
X88969905Y-84640000D01*
X88278386Y-84640000D01*
X88151890Y-84553569D01*
X87900000Y-84502560D01*
X87400000Y-84502560D01*
X87164683Y-84546838D01*
X86948559Y-84685910D01*
X86803569Y-84898110D01*
X86752560Y-85150000D01*
X86752560Y-85650000D01*
X86796838Y-85885317D01*
X86935910Y-86101441D01*
X87148110Y-86246431D01*
X87400000Y-86297440D01*
X87900000Y-86297440D01*
X88135317Y-86253162D01*
X88280095Y-86160000D01*
X88971614Y-86160000D01*
X89098110Y-86246431D01*
X89350000Y-86297440D01*
X89850000Y-86297440D01*
X90085317Y-86253162D01*
X90230095Y-86160000D01*
X90437537Y-86160000D01*
X90469673Y-86192192D01*
X90813201Y-86334838D01*
X91185167Y-86335162D01*
X91528943Y-86193117D01*
X91562118Y-86160000D01*
X91605331Y-86160000D01*
X91615910Y-86176441D01*
X91828110Y-86321431D01*
X91965120Y-86349176D01*
X91844683Y-86371838D01*
X91628559Y-86510910D01*
X91483569Y-86723110D01*
X91432560Y-86975000D01*
X91432560Y-87167211D01*
X91186799Y-87065162D01*
X90814833Y-87064838D01*
X90471057Y-87206883D01*
X90207808Y-87469673D01*
X90065162Y-87813201D01*
X90064838Y-88185167D01*
X90206883Y-88528943D01*
X90317746Y-88640000D01*
X90228386Y-88640000D01*
X90101890Y-88553569D01*
X89850000Y-88502560D01*
X89350000Y-88502560D01*
X89114683Y-88546838D01*
X88969905Y-88640000D01*
X88228386Y-88640000D01*
X88101890Y-88553569D01*
X87850000Y-88502560D01*
X87350000Y-88502560D01*
X87114683Y-88546838D01*
X86898559Y-88685910D01*
X86753569Y-88898110D01*
X86702560Y-89150000D01*
X86702560Y-89650000D01*
X86746838Y-89885317D01*
X86885910Y-90101441D01*
X87098110Y-90246431D01*
X87350000Y-90297440D01*
X87850000Y-90297440D01*
X88085317Y-90253162D01*
X88230095Y-90160000D01*
X88971614Y-90160000D01*
X89098110Y-90246431D01*
X89350000Y-90297440D01*
X89850000Y-90297440D01*
X90085317Y-90253162D01*
X90230095Y-90160000D01*
X90437537Y-90160000D01*
X90469673Y-90192192D01*
X90813201Y-90334838D01*
X91185167Y-90335162D01*
X91528943Y-90193117D01*
X91562118Y-90160000D01*
X91605331Y-90160000D01*
X91615910Y-90176441D01*
X91828110Y-90321431D01*
X91965120Y-90349176D01*
X91844683Y-90371838D01*
X91628559Y-90510910D01*
X91483569Y-90723110D01*
X91432560Y-90975000D01*
X91432560Y-91167211D01*
X91186799Y-91065162D01*
X90814833Y-91064838D01*
X90471057Y-91206883D01*
X90207808Y-91469673D01*
X90065162Y-91813201D01*
X90064838Y-92185167D01*
X90206883Y-92528943D01*
X90317746Y-92640000D01*
X90228386Y-92640000D01*
X90101890Y-92553569D01*
X89850000Y-92502560D01*
X89350000Y-92502560D01*
X89114683Y-92546838D01*
X88969905Y-92640000D01*
X88228386Y-92640000D01*
X88101890Y-92553569D01*
X87850000Y-92502560D01*
X87350000Y-92502560D01*
X87114683Y-92546838D01*
X86898559Y-92685910D01*
X86753569Y-92898110D01*
X86702560Y-93150000D01*
X86702560Y-93650000D01*
X86746838Y-93885317D01*
X86885910Y-94101441D01*
X87098110Y-94246431D01*
X87350000Y-94297440D01*
X87850000Y-94297440D01*
X88085317Y-94253162D01*
X88230095Y-94160000D01*
X88971614Y-94160000D01*
X89098110Y-94246431D01*
X89350000Y-94297440D01*
X89850000Y-94297440D01*
X90085317Y-94253162D01*
X90230095Y-94160000D01*
X90437537Y-94160000D01*
X90469673Y-94192192D01*
X90813201Y-94334838D01*
X91185167Y-94335162D01*
X91528943Y-94193117D01*
X91562118Y-94160000D01*
X91605331Y-94160000D01*
X91615910Y-94176441D01*
X91828110Y-94321431D01*
X91965120Y-94349176D01*
X91844683Y-94371838D01*
X91628559Y-94510910D01*
X91483569Y-94723110D01*
X91432560Y-94975000D01*
X91432560Y-95167211D01*
X91186799Y-95065162D01*
X90814833Y-95064838D01*
X90471057Y-95206883D01*
X90207808Y-95469673D01*
X90065162Y-95813201D01*
X90064838Y-96185167D01*
X90206883Y-96528943D01*
X90317746Y-96640000D01*
X90228386Y-96640000D01*
X90101890Y-96553569D01*
X89850000Y-96502560D01*
X89350000Y-96502560D01*
X89114683Y-96546838D01*
X88969905Y-96640000D01*
X88228386Y-96640000D01*
X88101890Y-96553569D01*
X87850000Y-96502560D01*
X87350000Y-96502560D01*
X87114683Y-96546838D01*
X86898559Y-96685910D01*
X86753569Y-96898110D01*
X86702560Y-97150000D01*
X86702560Y-97650000D01*
X86746838Y-97885317D01*
X86885910Y-98101441D01*
X87098110Y-98246431D01*
X87350000Y-98297440D01*
X87850000Y-98297440D01*
X88085317Y-98253162D01*
X88230095Y-98160000D01*
X88971614Y-98160000D01*
X89098110Y-98246431D01*
X89350000Y-98297440D01*
X89850000Y-98297440D01*
X90085317Y-98253162D01*
X90230095Y-98160000D01*
X90437537Y-98160000D01*
X90469673Y-98192192D01*
X90813201Y-98334838D01*
X91185167Y-98335162D01*
X91528943Y-98193117D01*
X91562118Y-98160000D01*
X91605331Y-98160000D01*
X91615910Y-98176441D01*
X91828110Y-98321431D01*
X91965120Y-98349176D01*
X91844683Y-98371838D01*
X91628559Y-98510910D01*
X91483569Y-98723110D01*
X91432560Y-98975000D01*
X91432560Y-99167211D01*
X91186799Y-99065162D01*
X90814833Y-99064838D01*
X90471057Y-99206883D01*
X90207808Y-99469673D01*
X90065162Y-99813201D01*
X90064838Y-100185167D01*
X90206883Y-100528943D01*
X90317746Y-100640000D01*
X90228386Y-100640000D01*
X90101890Y-100553569D01*
X89850000Y-100502560D01*
X89350000Y-100502560D01*
X89114683Y-100546838D01*
X88969905Y-100640000D01*
X88228386Y-100640000D01*
X88101890Y-100553569D01*
X87850000Y-100502560D01*
X87350000Y-100502560D01*
X87114683Y-100546838D01*
X86898559Y-100685910D01*
X86753569Y-100898110D01*
X86702560Y-101150000D01*
X86702560Y-101650000D01*
X86746838Y-101885317D01*
X86885910Y-102101441D01*
X87098110Y-102246431D01*
X87350000Y-102297440D01*
X87850000Y-102297440D01*
X88085317Y-102253162D01*
X88230095Y-102160000D01*
X88971614Y-102160000D01*
X89098110Y-102246431D01*
X89350000Y-102297440D01*
X89850000Y-102297440D01*
X90085317Y-102253162D01*
X90230095Y-102160000D01*
X90437537Y-102160000D01*
X90469673Y-102192192D01*
X90813201Y-102334838D01*
X91185167Y-102335162D01*
X91528943Y-102193117D01*
X91562118Y-102160000D01*
X91605331Y-102160000D01*
X91615910Y-102176441D01*
X91828110Y-102321431D01*
X91965120Y-102349176D01*
X91844683Y-102371838D01*
X91628559Y-102510910D01*
X91483569Y-102723110D01*
X91432560Y-102975000D01*
X91432560Y-103167211D01*
X91186799Y-103065162D01*
X90814833Y-103064838D01*
X90471057Y-103206883D01*
X90207808Y-103469673D01*
X90065162Y-103813201D01*
X90064838Y-104185167D01*
X90206883Y-104528943D01*
X90317746Y-104640000D01*
X90228386Y-104640000D01*
X90101890Y-104553569D01*
X89850000Y-104502560D01*
X89350000Y-104502560D01*
X89114683Y-104546838D01*
X88969905Y-104640000D01*
X88228386Y-104640000D01*
X88101890Y-104553569D01*
X87850000Y-104502560D01*
X87350000Y-104502560D01*
X87114683Y-104546838D01*
X86898559Y-104685910D01*
X86753569Y-104898110D01*
X86702560Y-105150000D01*
X86702560Y-105650000D01*
X86746838Y-105885317D01*
X86885910Y-106101441D01*
X87098110Y-106246431D01*
X87350000Y-106297440D01*
X87850000Y-106297440D01*
X88085317Y-106253162D01*
X88230095Y-106160000D01*
X88971614Y-106160000D01*
X89098110Y-106246431D01*
X89350000Y-106297440D01*
X89850000Y-106297440D01*
X90085317Y-106253162D01*
X90230095Y-106160000D01*
X90437537Y-106160000D01*
X90469673Y-106192192D01*
X90813201Y-106334838D01*
X91185167Y-106335162D01*
X91528943Y-106193117D01*
X91562118Y-106160000D01*
X91605331Y-106160000D01*
X91615910Y-106176441D01*
X91828110Y-106321431D01*
X91965120Y-106349176D01*
X91844683Y-106371838D01*
X91628559Y-106510910D01*
X91483569Y-106723110D01*
X91432560Y-106975000D01*
X91432560Y-107167211D01*
X91186799Y-107065162D01*
X90814833Y-107064838D01*
X90471057Y-107206883D01*
X90207808Y-107469673D01*
X90065162Y-107813201D01*
X90064838Y-108185167D01*
X90206883Y-108528943D01*
X90317746Y-108640000D01*
X90228386Y-108640000D01*
X90101890Y-108553569D01*
X89850000Y-108502560D01*
X89350000Y-108502560D01*
X89114683Y-108546838D01*
X88969905Y-108640000D01*
X88228386Y-108640000D01*
X88101890Y-108553569D01*
X87850000Y-108502560D01*
X87350000Y-108502560D01*
X87114683Y-108546838D01*
X86898559Y-108685910D01*
X86753569Y-108898110D01*
X86702560Y-109150000D01*
X86702560Y-109650000D01*
X86746838Y-109885317D01*
X86885910Y-110101441D01*
X87098110Y-110246431D01*
X87350000Y-110297440D01*
X87850000Y-110297440D01*
X88085317Y-110253162D01*
X88230095Y-110160000D01*
X88971614Y-110160000D01*
X89098110Y-110246431D01*
X89350000Y-110297440D01*
X89850000Y-110297440D01*
X90085317Y-110253162D01*
X90230095Y-110160000D01*
X90437537Y-110160000D01*
X90469673Y-110192192D01*
X90813201Y-110334838D01*
X91185167Y-110335162D01*
X91528943Y-110193117D01*
X91562118Y-110160000D01*
X91605331Y-110160000D01*
X91615910Y-110176441D01*
X91828110Y-110321431D01*
X91965120Y-110349176D01*
X91844683Y-110371838D01*
X91628559Y-110510910D01*
X91483569Y-110723110D01*
X91432560Y-110975000D01*
X91432560Y-111167211D01*
X91186799Y-111065162D01*
X90814833Y-111064838D01*
X90471057Y-111206883D01*
X90207808Y-111469673D01*
X90065162Y-111813201D01*
X90064838Y-112185167D01*
X90206883Y-112528943D01*
X90317746Y-112640000D01*
X90228386Y-112640000D01*
X90101890Y-112553569D01*
X89850000Y-112502560D01*
X89350000Y-112502560D01*
X89114683Y-112546838D01*
X88969905Y-112640000D01*
X88228386Y-112640000D01*
X88101890Y-112553569D01*
X87850000Y-112502560D01*
X87350000Y-112502560D01*
X87114683Y-112546838D01*
X86898559Y-112685910D01*
X86753569Y-112898110D01*
X86702560Y-113150000D01*
X86702560Y-113650000D01*
X86746838Y-113885317D01*
X86885910Y-114101441D01*
X87098110Y-114246431D01*
X87350000Y-114297440D01*
X87850000Y-114297440D01*
X88085317Y-114253162D01*
X88230095Y-114160000D01*
X88971614Y-114160000D01*
X89098110Y-114246431D01*
X89350000Y-114297440D01*
X89850000Y-114297440D01*
X90085317Y-114253162D01*
X90230095Y-114160000D01*
X90437537Y-114160000D01*
X90469673Y-114192192D01*
X90813201Y-114334838D01*
X91185167Y-114335162D01*
X91528943Y-114193117D01*
X91562118Y-114160000D01*
X91605331Y-114160000D01*
X91615910Y-114176441D01*
X91828110Y-114321431D01*
X91965120Y-114349176D01*
X91844683Y-114371838D01*
X91628559Y-114510910D01*
X91483569Y-114723110D01*
X91432560Y-114975000D01*
X91432560Y-115167211D01*
X91186799Y-115065162D01*
X90814833Y-115064838D01*
X90471057Y-115206883D01*
X90207808Y-115469673D01*
X90065162Y-115813201D01*
X90064838Y-116185167D01*
X90206883Y-116528943D01*
X90317746Y-116640000D01*
X90228386Y-116640000D01*
X90101890Y-116553569D01*
X89850000Y-116502560D01*
X89350000Y-116502560D01*
X89114683Y-116546838D01*
X88969905Y-116640000D01*
X88228386Y-116640000D01*
X88101890Y-116553569D01*
X87850000Y-116502560D01*
X87350000Y-116502560D01*
X87114683Y-116546838D01*
X86898559Y-116685910D01*
X86753569Y-116898110D01*
X86702560Y-117150000D01*
X86702560Y-117650000D01*
X86746838Y-117885317D01*
X86885910Y-118101441D01*
X87098110Y-118246431D01*
X87350000Y-118297440D01*
X87850000Y-118297440D01*
X88085317Y-118253162D01*
X88230095Y-118160000D01*
X88971614Y-118160000D01*
X89098110Y-118246431D01*
X89350000Y-118297440D01*
X89850000Y-118297440D01*
X90085317Y-118253162D01*
X90230095Y-118160000D01*
X90437537Y-118160000D01*
X90469673Y-118192192D01*
X90813201Y-118334838D01*
X91185167Y-118335162D01*
X91528943Y-118193117D01*
X91562118Y-118160000D01*
X91605331Y-118160000D01*
X91615910Y-118176441D01*
X91828110Y-118321431D01*
X91965120Y-118349176D01*
X91844683Y-118371838D01*
X91628559Y-118510910D01*
X91483569Y-118723110D01*
X91432560Y-118975000D01*
X91432560Y-119167211D01*
X91186799Y-119065162D01*
X90814833Y-119064838D01*
X90471057Y-119206883D01*
X90207808Y-119469673D01*
X90065162Y-119813201D01*
X90064838Y-120185167D01*
X90206883Y-120528943D01*
X90317746Y-120640000D01*
X90228386Y-120640000D01*
X90101890Y-120553569D01*
X89850000Y-120502560D01*
X89350000Y-120502560D01*
X89114683Y-120546838D01*
X88969905Y-120640000D01*
X88228386Y-120640000D01*
X88101890Y-120553569D01*
X87850000Y-120502560D01*
X87350000Y-120502560D01*
X87114683Y-120546838D01*
X86898559Y-120685910D01*
X86753569Y-120898110D01*
X86702560Y-121150000D01*
X86702560Y-121650000D01*
X86746838Y-121885317D01*
X86885910Y-122101441D01*
X87098110Y-122246431D01*
X87350000Y-122297440D01*
X87850000Y-122297440D01*
X88085317Y-122253162D01*
X88230095Y-122160000D01*
X88971614Y-122160000D01*
X89098110Y-122246431D01*
X89350000Y-122297440D01*
X89850000Y-122297440D01*
X90085317Y-122253162D01*
X90230095Y-122160000D01*
X91605331Y-122160000D01*
X91615910Y-122176441D01*
X91828110Y-122321431D01*
X91965120Y-122349176D01*
X91844683Y-122371838D01*
X91628559Y-122510910D01*
X91608683Y-122540000D01*
X86714802Y-122540000D01*
X86660000Y-122485198D01*
X86660000Y-121000000D01*
X86602148Y-120709161D01*
X86437401Y-120462599D01*
X86137401Y-120162599D01*
X85934977Y-120027344D01*
X85935162Y-119814833D01*
X85825641Y-119549772D01*
X85934838Y-119286799D01*
X85935162Y-118914833D01*
X85793117Y-118571057D01*
X85677000Y-118454737D01*
X85677000Y-117245493D01*
X85692192Y-117230327D01*
X85834838Y-116886799D01*
X85835162Y-116514833D01*
X85693117Y-116171057D01*
X85430327Y-115907808D01*
X85086799Y-115765162D01*
X85014612Y-115765099D01*
X84893117Y-115471057D01*
X84630327Y-115207808D01*
X84327000Y-115081855D01*
X84327000Y-113576558D01*
X84528943Y-113493117D01*
X84792192Y-113230327D01*
X84934838Y-112886799D01*
X84935162Y-112514833D01*
X84793117Y-112171057D01*
X84530327Y-111907808D01*
X84186799Y-111765162D01*
X84014576Y-111765012D01*
X83893117Y-111471057D01*
X83630327Y-111207808D01*
X83286799Y-111065162D01*
X82914833Y-111064838D01*
X82827000Y-111101130D01*
X82827000Y-109617877D01*
X83128943Y-109493117D01*
X83392192Y-109230327D01*
X83534838Y-108886799D01*
X83535162Y-108514833D01*
X83393117Y-108171057D01*
X83130327Y-107907808D01*
X82827000Y-107781855D01*
X82827000Y-92446500D01*
X82934838Y-92186799D01*
X82935162Y-91814833D01*
X82827000Y-91553060D01*
X82827000Y-89634981D01*
X83035167Y-89635162D01*
X83378943Y-89493117D01*
X83642192Y-89230327D01*
X83764763Y-88935144D01*
X83785167Y-88935162D01*
X84128943Y-88793117D01*
X84392192Y-88530327D01*
X84534838Y-88186799D01*
X84535162Y-87814833D01*
X84393117Y-87471057D01*
X84130327Y-87207808D01*
X83910000Y-87116320D01*
X83910000Y-86450000D01*
X83852148Y-86159161D01*
X83687401Y-85912599D01*
X83409680Y-85634878D01*
X83735167Y-85635162D01*
X84078943Y-85493117D01*
X84342192Y-85230327D01*
X84484838Y-84886799D01*
X84485162Y-84514833D01*
X84343117Y-84171057D01*
X84080327Y-83907808D01*
X83736799Y-83765162D01*
X83714630Y-83765143D01*
X83593117Y-83471057D01*
X83330327Y-83207808D01*
X82986799Y-83065162D01*
X82827000Y-83065023D01*
X82827000Y-81635024D01*
X82985167Y-81635162D01*
X83328943Y-81493117D01*
X83592192Y-81230327D01*
X83734838Y-80886799D01*
X83735162Y-80514833D01*
X83593117Y-80171057D01*
X83330327Y-79907808D01*
X82986799Y-79765162D01*
X82964630Y-79765143D01*
X82843117Y-79471057D01*
X82827000Y-79454912D01*
X82827000Y-78643954D01*
X82928371Y-78602068D01*
X83330323Y-78200818D01*
X83729357Y-78600551D01*
X84293330Y-78834733D01*
X84903991Y-78835265D01*
X85468371Y-78602068D01*
X85900551Y-78170643D01*
X86134733Y-77606670D01*
X86135265Y-76996009D01*
X85902068Y-76431629D01*
X85470643Y-75999449D01*
X84906670Y-75765267D01*
X84296009Y-75764735D01*
X83731629Y-75997932D01*
X83329677Y-76399182D01*
X82930643Y-75999449D01*
X82827000Y-75956413D01*
X82827000Y-74685000D01*
X104873000Y-74685000D01*
X104873000Y-76196214D01*
X104873000Y-76196214D01*
G37*
X104873000Y-76196214D02*
X104639449Y-76429357D01*
X104405267Y-76993330D01*
X104404735Y-77603991D01*
X104637932Y-78168371D01*
X104958999Y-78490000D01*
X103212463Y-78490000D01*
X103180327Y-78457808D01*
X102836799Y-78315162D01*
X102572595Y-78314932D01*
X102437401Y-78112599D01*
X101987401Y-77662599D01*
X101740839Y-77497852D01*
X101450000Y-77440000D01*
X101448065Y-77440000D01*
X101402148Y-77209161D01*
X101237401Y-76962599D01*
X100937401Y-76662599D01*
X100690839Y-76497852D01*
X100400000Y-76440000D01*
X98757440Y-76440000D01*
X98757440Y-76150000D01*
X98713162Y-75914683D01*
X98574090Y-75698559D01*
X98361890Y-75553569D01*
X98110000Y-75502560D01*
X97610000Y-75502560D01*
X97374683Y-75546838D01*
X97229905Y-75640000D01*
X95800000Y-75640000D01*
X95569197Y-75685910D01*
X95509160Y-75697852D01*
X95262599Y-75862599D01*
X94697638Y-76427560D01*
X94280000Y-76427560D01*
X94044683Y-76471838D01*
X93828559Y-76610910D01*
X93792746Y-76663323D01*
X93648182Y-76692079D01*
X93604090Y-76623559D01*
X93391890Y-76478569D01*
X93140000Y-76427560D01*
X92080000Y-76427560D01*
X91844683Y-76471838D01*
X91628559Y-76610910D01*
X91608683Y-76640000D01*
X91562463Y-76640000D01*
X91530327Y-76607808D01*
X91186799Y-76465162D01*
X90814833Y-76464838D01*
X90471057Y-76606883D01*
X90437882Y-76640000D01*
X90228386Y-76640000D01*
X90101890Y-76553569D01*
X89850000Y-76502560D01*
X89350000Y-76502560D01*
X89114683Y-76546838D01*
X88969905Y-76640000D01*
X88228386Y-76640000D01*
X88101890Y-76553569D01*
X87850000Y-76502560D01*
X87350000Y-76502560D01*
X87114683Y-76546838D01*
X86898559Y-76685910D01*
X86753569Y-76898110D01*
X86702560Y-77150000D01*
X86702560Y-77650000D01*
X86746838Y-77885317D01*
X86885910Y-78101441D01*
X87098110Y-78246431D01*
X87350000Y-78297440D01*
X87850000Y-78297440D01*
X88085317Y-78253162D01*
X88230095Y-78160000D01*
X88971614Y-78160000D01*
X89098110Y-78246431D01*
X89350000Y-78297440D01*
X89850000Y-78297440D01*
X90085317Y-78253162D01*
X90230095Y-78160000D01*
X90437537Y-78160000D01*
X90469673Y-78192192D01*
X90813201Y-78334838D01*
X91185167Y-78335162D01*
X91528943Y-78193117D01*
X91562118Y-78160000D01*
X91605331Y-78160000D01*
X91615910Y-78176441D01*
X91828110Y-78321431D01*
X91965120Y-78349176D01*
X91844683Y-78371838D01*
X91628559Y-78510910D01*
X91483569Y-78723110D01*
X91432560Y-78975000D01*
X91432560Y-79167211D01*
X91186799Y-79065162D01*
X90814833Y-79064838D01*
X90471057Y-79206883D01*
X90207808Y-79469673D01*
X90065162Y-79813201D01*
X90064838Y-80185167D01*
X90206883Y-80528943D01*
X90317746Y-80640000D01*
X90228386Y-80640000D01*
X90101890Y-80553569D01*
X89850000Y-80502560D01*
X89350000Y-80502560D01*
X89114683Y-80546838D01*
X88969905Y-80640000D01*
X88228386Y-80640000D01*
X88101890Y-80553569D01*
X87850000Y-80502560D01*
X87350000Y-80502560D01*
X87114683Y-80546838D01*
X86898559Y-80685910D01*
X86753569Y-80898110D01*
X86702560Y-81150000D01*
X86702560Y-81650000D01*
X86746838Y-81885317D01*
X86885910Y-82101441D01*
X87098110Y-82246431D01*
X87350000Y-82297440D01*
X87850000Y-82297440D01*
X88085317Y-82253162D01*
X88230095Y-82160000D01*
X88971614Y-82160000D01*
X89098110Y-82246431D01*
X89350000Y-82297440D01*
X89850000Y-82297440D01*
X90085317Y-82253162D01*
X90230095Y-82160000D01*
X90437537Y-82160000D01*
X90469673Y-82192192D01*
X90813201Y-82334838D01*
X91185167Y-82335162D01*
X91528943Y-82193117D01*
X91562118Y-82160000D01*
X91605331Y-82160000D01*
X91615910Y-82176441D01*
X91828110Y-82321431D01*
X91965120Y-82349176D01*
X91844683Y-82371838D01*
X91628559Y-82510910D01*
X91483569Y-82723110D01*
X91432560Y-82975000D01*
X91432560Y-83167211D01*
X91186799Y-83065162D01*
X90814833Y-83064838D01*
X90471057Y-83206883D01*
X90207808Y-83469673D01*
X90065162Y-83813201D01*
X90064838Y-84185167D01*
X90206883Y-84528943D01*
X90317746Y-84640000D01*
X90228386Y-84640000D01*
X90101890Y-84553569D01*
X89850000Y-84502560D01*
X89350000Y-84502560D01*
X89114683Y-84546838D01*
X88969905Y-84640000D01*
X88278386Y-84640000D01*
X88151890Y-84553569D01*
X87900000Y-84502560D01*
X87400000Y-84502560D01*
X87164683Y-84546838D01*
X86948559Y-84685910D01*
X86803569Y-84898110D01*
X86752560Y-85150000D01*
X86752560Y-85650000D01*
X86796838Y-85885317D01*
X86935910Y-86101441D01*
X87148110Y-86246431D01*
X87400000Y-86297440D01*
X87900000Y-86297440D01*
X88135317Y-86253162D01*
X88280095Y-86160000D01*
X88971614Y-86160000D01*
X89098110Y-86246431D01*
X89350000Y-86297440D01*
X89850000Y-86297440D01*
X90085317Y-86253162D01*
X90230095Y-86160000D01*
X90437537Y-86160000D01*
X90469673Y-86192192D01*
X90813201Y-86334838D01*
X91185167Y-86335162D01*
X91528943Y-86193117D01*
X91562118Y-86160000D01*
X91605331Y-86160000D01*
X91615910Y-86176441D01*
X91828110Y-86321431D01*
X91965120Y-86349176D01*
X91844683Y-86371838D01*
X91628559Y-86510910D01*
X91483569Y-86723110D01*
X91432560Y-86975000D01*
X91432560Y-87167211D01*
X91186799Y-87065162D01*
X90814833Y-87064838D01*
X90471057Y-87206883D01*
X90207808Y-87469673D01*
X90065162Y-87813201D01*
X90064838Y-88185167D01*
X90206883Y-88528943D01*
X90317746Y-88640000D01*
X90228386Y-88640000D01*
X90101890Y-88553569D01*
X89850000Y-88502560D01*
X89350000Y-88502560D01*
X89114683Y-88546838D01*
X88969905Y-88640000D01*
X88228386Y-88640000D01*
X88101890Y-88553569D01*
X87850000Y-88502560D01*
X87350000Y-88502560D01*
X87114683Y-88546838D01*
X86898559Y-88685910D01*
X86753569Y-88898110D01*
X86702560Y-89150000D01*
X86702560Y-89650000D01*
X86746838Y-89885317D01*
X86885910Y-90101441D01*
X87098110Y-90246431D01*
X87350000Y-90297440D01*
X87850000Y-90297440D01*
X88085317Y-90253162D01*
X88230095Y-90160000D01*
X88971614Y-90160000D01*
X89098110Y-90246431D01*
X89350000Y-90297440D01*
X89850000Y-90297440D01*
X90085317Y-90253162D01*
X90230095Y-90160000D01*
X90437537Y-90160000D01*
X90469673Y-90192192D01*
X90813201Y-90334838D01*
X91185167Y-90335162D01*
X91528943Y-90193117D01*
X91562118Y-90160000D01*
X91605331Y-90160000D01*
X91615910Y-90176441D01*
X91828110Y-90321431D01*
X91965120Y-90349176D01*
X91844683Y-90371838D01*
X91628559Y-90510910D01*
X91483569Y-90723110D01*
X91432560Y-90975000D01*
X91432560Y-91167211D01*
X91186799Y-91065162D01*
X90814833Y-91064838D01*
X90471057Y-91206883D01*
X90207808Y-91469673D01*
X90065162Y-91813201D01*
X90064838Y-92185167D01*
X90206883Y-92528943D01*
X90317746Y-92640000D01*
X90228386Y-92640000D01*
X90101890Y-92553569D01*
X89850000Y-92502560D01*
X89350000Y-92502560D01*
X89114683Y-92546838D01*
X88969905Y-92640000D01*
X88228386Y-92640000D01*
X88101890Y-92553569D01*
X87850000Y-92502560D01*
X87350000Y-92502560D01*
X87114683Y-92546838D01*
X86898559Y-92685910D01*
X86753569Y-92898110D01*
X86702560Y-93150000D01*
X86702560Y-93650000D01*
X86746838Y-93885317D01*
X86885910Y-94101441D01*
X87098110Y-94246431D01*
X87350000Y-94297440D01*
X87850000Y-94297440D01*
X88085317Y-94253162D01*
X88230095Y-94160000D01*
X88971614Y-94160000D01*
X89098110Y-94246431D01*
X89350000Y-94297440D01*
X89850000Y-94297440D01*
X90085317Y-94253162D01*
X90230095Y-94160000D01*
X90437537Y-94160000D01*
X90469673Y-94192192D01*
X90813201Y-94334838D01*
X91185167Y-94335162D01*
X91528943Y-94193117D01*
X91562118Y-94160000D01*
X91605331Y-94160000D01*
X91615910Y-94176441D01*
X91828110Y-94321431D01*
X91965120Y-94349176D01*
X91844683Y-94371838D01*
X91628559Y-94510910D01*
X91483569Y-94723110D01*
X91432560Y-94975000D01*
X91432560Y-95167211D01*
X91186799Y-95065162D01*
X90814833Y-95064838D01*
X90471057Y-95206883D01*
X90207808Y-95469673D01*
X90065162Y-95813201D01*
X90064838Y-96185167D01*
X90206883Y-96528943D01*
X90317746Y-96640000D01*
X90228386Y-96640000D01*
X90101890Y-96553569D01*
X89850000Y-96502560D01*
X89350000Y-96502560D01*
X89114683Y-96546838D01*
X88969905Y-96640000D01*
X88228386Y-96640000D01*
X88101890Y-96553569D01*
X87850000Y-96502560D01*
X87350000Y-96502560D01*
X87114683Y-96546838D01*
X86898559Y-96685910D01*
X86753569Y-96898110D01*
X86702560Y-97150000D01*
X86702560Y-97650000D01*
X86746838Y-97885317D01*
X86885910Y-98101441D01*
X87098110Y-98246431D01*
X87350000Y-98297440D01*
X87850000Y-98297440D01*
X88085317Y-98253162D01*
X88230095Y-98160000D01*
X88971614Y-98160000D01*
X89098110Y-98246431D01*
X89350000Y-98297440D01*
X89850000Y-98297440D01*
X90085317Y-98253162D01*
X90230095Y-98160000D01*
X90437537Y-98160000D01*
X90469673Y-98192192D01*
X90813201Y-98334838D01*
X91185167Y-98335162D01*
X91528943Y-98193117D01*
X91562118Y-98160000D01*
X91605331Y-98160000D01*
X91615910Y-98176441D01*
X91828110Y-98321431D01*
X91965120Y-98349176D01*
X91844683Y-98371838D01*
X91628559Y-98510910D01*
X91483569Y-98723110D01*
X91432560Y-98975000D01*
X91432560Y-99167211D01*
X91186799Y-99065162D01*
X90814833Y-99064838D01*
X90471057Y-99206883D01*
X90207808Y-99469673D01*
X90065162Y-99813201D01*
X90064838Y-100185167D01*
X90206883Y-100528943D01*
X90317746Y-100640000D01*
X90228386Y-100640000D01*
X90101890Y-100553569D01*
X89850000Y-100502560D01*
X89350000Y-100502560D01*
X89114683Y-100546838D01*
X88969905Y-100640000D01*
X88228386Y-100640000D01*
X88101890Y-100553569D01*
X87850000Y-100502560D01*
X87350000Y-100502560D01*
X87114683Y-100546838D01*
X86898559Y-100685910D01*
X86753569Y-100898110D01*
X86702560Y-101150000D01*
X86702560Y-101650000D01*
X86746838Y-101885317D01*
X86885910Y-102101441D01*
X87098110Y-102246431D01*
X87350000Y-102297440D01*
X87850000Y-102297440D01*
X88085317Y-102253162D01*
X88230095Y-102160000D01*
X88971614Y-102160000D01*
X89098110Y-102246431D01*
X89350000Y-102297440D01*
X89850000Y-102297440D01*
X90085317Y-102253162D01*
X90230095Y-102160000D01*
X90437537Y-102160000D01*
X90469673Y-102192192D01*
X90813201Y-102334838D01*
X91185167Y-102335162D01*
X91528943Y-102193117D01*
X91562118Y-102160000D01*
X91605331Y-102160000D01*
X91615910Y-102176441D01*
X91828110Y-102321431D01*
X91965120Y-102349176D01*
X91844683Y-102371838D01*
X91628559Y-102510910D01*
X91483569Y-102723110D01*
X91432560Y-102975000D01*
X91432560Y-103167211D01*
X91186799Y-103065162D01*
X90814833Y-103064838D01*
X90471057Y-103206883D01*
X90207808Y-103469673D01*
X90065162Y-103813201D01*
X90064838Y-104185167D01*
X90206883Y-104528943D01*
X90317746Y-104640000D01*
X90228386Y-104640000D01*
X90101890Y-104553569D01*
X89850000Y-104502560D01*
X89350000Y-104502560D01*
X89114683Y-104546838D01*
X88969905Y-104640000D01*
X88228386Y-104640000D01*
X88101890Y-104553569D01*
X87850000Y-104502560D01*
X87350000Y-104502560D01*
X87114683Y-104546838D01*
X86898559Y-104685910D01*
X86753569Y-104898110D01*
X86702560Y-105150000D01*
X86702560Y-105650000D01*
X86746838Y-105885317D01*
X86885910Y-106101441D01*
X87098110Y-106246431D01*
X87350000Y-106297440D01*
X87850000Y-106297440D01*
X88085317Y-106253162D01*
X88230095Y-106160000D01*
X88971614Y-106160000D01*
X89098110Y-106246431D01*
X89350000Y-106297440D01*
X89850000Y-106297440D01*
X90085317Y-106253162D01*
X90230095Y-106160000D01*
X90437537Y-106160000D01*
X90469673Y-106192192D01*
X90813201Y-106334838D01*
X91185167Y-106335162D01*
X91528943Y-106193117D01*
X91562118Y-106160000D01*
X91605331Y-106160000D01*
X91615910Y-106176441D01*
X91828110Y-106321431D01*
X91965120Y-106349176D01*
X91844683Y-106371838D01*
X91628559Y-106510910D01*
X91483569Y-106723110D01*
X91432560Y-106975000D01*
X91432560Y-107167211D01*
X91186799Y-107065162D01*
X90814833Y-107064838D01*
X90471057Y-107206883D01*
X90207808Y-107469673D01*
X90065162Y-107813201D01*
X90064838Y-108185167D01*
X90206883Y-108528943D01*
X90317746Y-108640000D01*
X90228386Y-108640000D01*
X90101890Y-108553569D01*
X89850000Y-108502560D01*
X89350000Y-108502560D01*
X89114683Y-108546838D01*
X88969905Y-108640000D01*
X88228386Y-108640000D01*
X88101890Y-108553569D01*
X87850000Y-108502560D01*
X87350000Y-108502560D01*
X87114683Y-108546838D01*
X86898559Y-108685910D01*
X86753569Y-108898110D01*
X86702560Y-109150000D01*
X86702560Y-109650000D01*
X86746838Y-109885317D01*
X86885910Y-110101441D01*
X87098110Y-110246431D01*
X87350000Y-110297440D01*
X87850000Y-110297440D01*
X88085317Y-110253162D01*
X88230095Y-110160000D01*
X88971614Y-110160000D01*
X89098110Y-110246431D01*
X89350000Y-110297440D01*
X89850000Y-110297440D01*
X90085317Y-110253162D01*
X90230095Y-110160000D01*
X90437537Y-110160000D01*
X90469673Y-110192192D01*
X90813201Y-110334838D01*
X91185167Y-110335162D01*
X91528943Y-110193117D01*
X91562118Y-110160000D01*
X91605331Y-110160000D01*
X91615910Y-110176441D01*
X91828110Y-110321431D01*
X91965120Y-110349176D01*
X91844683Y-110371838D01*
X91628559Y-110510910D01*
X91483569Y-110723110D01*
X91432560Y-110975000D01*
X91432560Y-111167211D01*
X91186799Y-111065162D01*
X90814833Y-111064838D01*
X90471057Y-111206883D01*
X90207808Y-111469673D01*
X90065162Y-111813201D01*
X90064838Y-112185167D01*
X90206883Y-112528943D01*
X90317746Y-112640000D01*
X90228386Y-112640000D01*
X90101890Y-112553569D01*
X89850000Y-112502560D01*
X89350000Y-112502560D01*
X89114683Y-112546838D01*
X88969905Y-112640000D01*
X88228386Y-112640000D01*
X88101890Y-112553569D01*
X87850000Y-112502560D01*
X87350000Y-112502560D01*
X87114683Y-112546838D01*
X86898559Y-112685910D01*
X86753569Y-112898110D01*
X86702560Y-113150000D01*
X86702560Y-113650000D01*
X86746838Y-113885317D01*
X86885910Y-114101441D01*
X87098110Y-114246431D01*
X87350000Y-114297440D01*
X87850000Y-114297440D01*
X88085317Y-114253162D01*
X88230095Y-114160000D01*
X88971614Y-114160000D01*
X89098110Y-114246431D01*
X89350000Y-114297440D01*
X89850000Y-114297440D01*
X90085317Y-114253162D01*
X90230095Y-114160000D01*
X90437537Y-114160000D01*
X90469673Y-114192192D01*
X90813201Y-114334838D01*
X91185167Y-114335162D01*
X91528943Y-114193117D01*
X91562118Y-114160000D01*
X91605331Y-114160000D01*
X91615910Y-114176441D01*
X91828110Y-114321431D01*
X91965120Y-114349176D01*
X91844683Y-114371838D01*
X91628559Y-114510910D01*
X91483569Y-114723110D01*
X91432560Y-114975000D01*
X91432560Y-115167211D01*
X91186799Y-115065162D01*
X90814833Y-115064838D01*
X90471057Y-115206883D01*
X90207808Y-115469673D01*
X90065162Y-115813201D01*
X90064838Y-116185167D01*
X90206883Y-116528943D01*
X90317746Y-116640000D01*
X90228386Y-116640000D01*
X90101890Y-116553569D01*
X89850000Y-116502560D01*
X89350000Y-116502560D01*
X89114683Y-116546838D01*
X88969905Y-116640000D01*
X88228386Y-116640000D01*
X88101890Y-116553569D01*
X87850000Y-116502560D01*
X87350000Y-116502560D01*
X87114683Y-116546838D01*
X86898559Y-116685910D01*
X86753569Y-116898110D01*
X86702560Y-117150000D01*
X86702560Y-117650000D01*
X86746838Y-117885317D01*
X86885910Y-118101441D01*
X87098110Y-118246431D01*
X87350000Y-118297440D01*
X87850000Y-118297440D01*
X88085317Y-118253162D01*
X88230095Y-118160000D01*
X88971614Y-118160000D01*
X89098110Y-118246431D01*
X89350000Y-118297440D01*
X89850000Y-118297440D01*
X90085317Y-118253162D01*
X90230095Y-118160000D01*
X90437537Y-118160000D01*
X90469673Y-118192192D01*
X90813201Y-118334838D01*
X91185167Y-118335162D01*
X91528943Y-118193117D01*
X91562118Y-118160000D01*
X91605331Y-118160000D01*
X91615910Y-118176441D01*
X91828110Y-118321431D01*
X91965120Y-118349176D01*
X91844683Y-118371838D01*
X91628559Y-118510910D01*
X91483569Y-118723110D01*
X91432560Y-118975000D01*
X91432560Y-119167211D01*
X91186799Y-119065162D01*
X90814833Y-119064838D01*
X90471057Y-119206883D01*
X90207808Y-119469673D01*
X90065162Y-119813201D01*
X90064838Y-120185167D01*
X90206883Y-120528943D01*
X90317746Y-120640000D01*
X90228386Y-120640000D01*
X90101890Y-120553569D01*
X89850000Y-120502560D01*
X89350000Y-120502560D01*
X89114683Y-120546838D01*
X88969905Y-120640000D01*
X88228386Y-120640000D01*
X88101890Y-120553569D01*
X87850000Y-120502560D01*
X87350000Y-120502560D01*
X87114683Y-120546838D01*
X86898559Y-120685910D01*
X86753569Y-120898110D01*
X86702560Y-121150000D01*
X86702560Y-121650000D01*
X86746838Y-121885317D01*
X86885910Y-122101441D01*
X87098110Y-122246431D01*
X87350000Y-122297440D01*
X87850000Y-122297440D01*
X88085317Y-122253162D01*
X88230095Y-122160000D01*
X88971614Y-122160000D01*
X89098110Y-122246431D01*
X89350000Y-122297440D01*
X89850000Y-122297440D01*
X90085317Y-122253162D01*
X90230095Y-122160000D01*
X91605331Y-122160000D01*
X91615910Y-122176441D01*
X91828110Y-122321431D01*
X91965120Y-122349176D01*
X91844683Y-122371838D01*
X91628559Y-122510910D01*
X91608683Y-122540000D01*
X86714802Y-122540000D01*
X86660000Y-122485198D01*
X86660000Y-121000000D01*
X86602148Y-120709161D01*
X86437401Y-120462599D01*
X86137401Y-120162599D01*
X85934977Y-120027344D01*
X85935162Y-119814833D01*
X85825641Y-119549772D01*
X85934838Y-119286799D01*
X85935162Y-118914833D01*
X85793117Y-118571057D01*
X85677000Y-118454737D01*
X85677000Y-117245493D01*
X85692192Y-117230327D01*
X85834838Y-116886799D01*
X85835162Y-116514833D01*
X85693117Y-116171057D01*
X85430327Y-115907808D01*
X85086799Y-115765162D01*
X85014612Y-115765099D01*
X84893117Y-115471057D01*
X84630327Y-115207808D01*
X84327000Y-115081855D01*
X84327000Y-113576558D01*
X84528943Y-113493117D01*
X84792192Y-113230327D01*
X84934838Y-112886799D01*
X84935162Y-112514833D01*
X84793117Y-112171057D01*
X84530327Y-111907808D01*
X84186799Y-111765162D01*
X84014576Y-111765012D01*
X83893117Y-111471057D01*
X83630327Y-111207808D01*
X83286799Y-111065162D01*
X82914833Y-111064838D01*
X82827000Y-111101130D01*
X82827000Y-109617877D01*
X83128943Y-109493117D01*
X83392192Y-109230327D01*
X83534838Y-108886799D01*
X83535162Y-108514833D01*
X83393117Y-108171057D01*
X83130327Y-107907808D01*
X82827000Y-107781855D01*
X82827000Y-92446500D01*
X82934838Y-92186799D01*
X82935162Y-91814833D01*
X82827000Y-91553060D01*
X82827000Y-89634981D01*
X83035167Y-89635162D01*
X83378943Y-89493117D01*
X83642192Y-89230327D01*
X83764763Y-88935144D01*
X83785167Y-88935162D01*
X84128943Y-88793117D01*
X84392192Y-88530327D01*
X84534838Y-88186799D01*
X84535162Y-87814833D01*
X84393117Y-87471057D01*
X84130327Y-87207808D01*
X83910000Y-87116320D01*
X83910000Y-86450000D01*
X83852148Y-86159161D01*
X83687401Y-85912599D01*
X83409680Y-85634878D01*
X83735167Y-85635162D01*
X84078943Y-85493117D01*
X84342192Y-85230327D01*
X84484838Y-84886799D01*
X84485162Y-84514833D01*
X84343117Y-84171057D01*
X84080327Y-83907808D01*
X83736799Y-83765162D01*
X83714630Y-83765143D01*
X83593117Y-83471057D01*
X83330327Y-83207808D01*
X82986799Y-83065162D01*
X82827000Y-83065023D01*
X82827000Y-81635024D01*
X82985167Y-81635162D01*
X83328943Y-81493117D01*
X83592192Y-81230327D01*
X83734838Y-80886799D01*
X83735162Y-80514833D01*
X83593117Y-80171057D01*
X83330327Y-79907808D01*
X82986799Y-79765162D01*
X82964630Y-79765143D01*
X82843117Y-79471057D01*
X82827000Y-79454912D01*
X82827000Y-78643954D01*
X82928371Y-78602068D01*
X83330323Y-78200818D01*
X83729357Y-78600551D01*
X84293330Y-78834733D01*
X84903991Y-78835265D01*
X85468371Y-78602068D01*
X85900551Y-78170643D01*
X86134733Y-77606670D01*
X86135265Y-76996009D01*
X85902068Y-76431629D01*
X85470643Y-75999449D01*
X84906670Y-75765267D01*
X84296009Y-75764735D01*
X83731629Y-75997932D01*
X83329677Y-76399182D01*
X82930643Y-75999449D01*
X82827000Y-75956413D01*
X82827000Y-74685000D01*
X104873000Y-74685000D01*
X104873000Y-76196214D01*
G36*
X100523000Y-122401500D02*
X98757440Y-122401500D01*
X98757440Y-122398500D01*
X100523000Y-122398500D01*
X100523000Y-122401500D01*
X100523000Y-122401500D01*
G37*
X100523000Y-122401500D02*
X98757440Y-122401500D01*
X98757440Y-122398500D01*
X100523000Y-122398500D01*
X100523000Y-122401500D01*
G36*
X110340002Y-120414804D02*
X110340002Y-120447957D01*
X110300000Y-120440000D01*
X98757440Y-120440000D01*
X98757440Y-120360000D01*
X110285198Y-120360000D01*
X110340002Y-120414804D01*
X110340002Y-120414804D01*
G37*
X110340002Y-120414804D02*
X110340002Y-120447957D01*
X110300000Y-120440000D01*
X98757440Y-120440000D01*
X98757440Y-120360000D01*
X110285198Y-120360000D01*
X110340002Y-120414804D01*
G36*
X108194592Y-118401500D02*
X98757440Y-118401500D01*
X98757440Y-118398500D01*
X108195838Y-118398500D01*
X108194592Y-118401500D01*
X108194592Y-118401500D01*
G37*
X108194592Y-118401500D02*
X98757440Y-118401500D01*
X98757440Y-118398500D01*
X108195838Y-118398500D01*
X108194592Y-118401500D01*
G36*
X108309160Y-116397852D02*
X108246081Y-116440000D01*
X98757440Y-116440000D01*
X98757440Y-116360000D01*
X108499454Y-116360000D01*
X108309160Y-116397852D01*
X108309160Y-116397852D01*
G37*
X108309160Y-116397852D02*
X108246081Y-116440000D01*
X98757440Y-116440000D01*
X98757440Y-116360000D01*
X108499454Y-116360000D01*
X108309160Y-116397852D01*
G36*
X114430232Y-112588287D02*
X114429769Y-113119383D01*
X114632582Y-113610229D01*
X115007796Y-113986098D01*
X115342527Y-114125091D01*
X115009771Y-114262582D01*
X114633902Y-114637796D01*
X114494909Y-114972527D01*
X114357418Y-114639771D01*
X113982204Y-114263902D01*
X113491713Y-114060232D01*
X112960617Y-114059769D01*
X112660000Y-114183981D01*
X112660000Y-112360000D01*
X114525025Y-112360000D01*
X114430232Y-112588287D01*
X114430232Y-112588287D01*
G37*
X114430232Y-112588287D02*
X114429769Y-113119383D01*
X114632582Y-113610229D01*
X115007796Y-113986098D01*
X115342527Y-114125091D01*
X115009771Y-114262582D01*
X114633902Y-114637796D01*
X114494909Y-114972527D01*
X114357418Y-114639771D01*
X113982204Y-114263902D01*
X113491713Y-114060232D01*
X112960617Y-114059769D01*
X112660000Y-114183981D01*
X112660000Y-112360000D01*
X114525025Y-112360000D01*
X114430232Y-112588287D01*
G36*
X107444592Y-114401500D02*
X98757440Y-114401500D01*
X98757440Y-114398500D01*
X107445838Y-114398500D01*
X107444592Y-114401500D01*
X107444592Y-114401500D01*
G37*
X107444592Y-114401500D02*
X98757440Y-114401500D01*
X98757440Y-114398500D01*
X107445838Y-114398500D01*
X107444592Y-114401500D01*
G36*
X109365198Y-112440000D02*
X98757440Y-112440000D01*
X98757440Y-112360000D01*
X109285198Y-112360000D01*
X109365198Y-112440000D01*
X109365198Y-112440000D01*
G37*
X109365198Y-112440000D02*
X98757440Y-112440000D01*
X98757440Y-112360000D01*
X109285198Y-112360000D01*
X109365198Y-112440000D01*
G36*
X106694592Y-110401500D02*
X98757440Y-110401500D01*
X98757440Y-110398500D01*
X106695838Y-110398500D01*
X106694592Y-110401500D01*
X106694592Y-110401500D01*
G37*
X106694592Y-110401500D02*
X98757440Y-110401500D01*
X98757440Y-110398500D01*
X106695838Y-110398500D01*
X106694592Y-110401500D01*
G36*
X109129333Y-108465726D02*
X109000000Y-108440000D01*
X98757440Y-108440000D01*
X98757440Y-108360000D01*
X109129333Y-108360000D01*
X109129333Y-108465726D01*
X109129333Y-108465726D01*
G37*
X109129333Y-108465726D02*
X109000000Y-108440000D01*
X98757440Y-108440000D01*
X98757440Y-108360000D01*
X109129333Y-108360000D01*
X109129333Y-108465726D01*
G36*
X105944592Y-106401500D02*
X98757440Y-106401500D01*
X98757440Y-106398500D01*
X105945838Y-106398500D01*
X105944592Y-106401500D01*
X105944592Y-106401500D01*
G37*
X105944592Y-106401500D02*
X98757440Y-106401500D01*
X98757440Y-106398500D01*
X105945838Y-106398500D01*
X105944592Y-106401500D01*
G36*
X109039994Y-104467847D02*
X108900000Y-104440000D01*
X98757440Y-104440000D01*
X98757440Y-104360000D01*
X109039994Y-104360000D01*
X109039994Y-104467847D01*
X109039994Y-104467847D01*
G37*
X109039994Y-104467847D02*
X108900000Y-104440000D01*
X98757440Y-104440000D01*
X98757440Y-104360000D01*
X109039994Y-104360000D01*
X109039994Y-104467847D01*
G36*
X105194592Y-102401500D02*
X98757440Y-102401500D01*
X98757440Y-102398500D01*
X105195838Y-102398500D01*
X105194592Y-102401500D01*
X105194592Y-102401500D01*
G37*
X105194592Y-102401500D02*
X98757440Y-102401500D01*
X98757440Y-102398500D01*
X105195838Y-102398500D01*
X105194592Y-102401500D01*
G36*
X99564964Y-100440000D02*
X98757440Y-100440000D01*
X98757440Y-100360000D01*
X99565034Y-100360000D01*
X99564964Y-100440000D01*
X99564964Y-100440000D01*
G37*
X99564964Y-100440000D02*
X98757440Y-100440000D01*
X98757440Y-100360000D01*
X99565034Y-100360000D01*
X99564964Y-100440000D01*
G36*
X104444592Y-98401500D02*
X98757440Y-98401500D01*
X98757440Y-98398500D01*
X104445838Y-98398500D01*
X104444592Y-98401500D01*
X104444592Y-98401500D01*
G37*
X104444592Y-98401500D02*
X98757440Y-98401500D01*
X98757440Y-98398500D01*
X104445838Y-98398500D01*
X104444592Y-98401500D01*
G36*
X108529648Y-96440000D02*
X98757440Y-96440000D01*
X98757440Y-96360000D01*
X108449648Y-96360000D01*
X108529648Y-96440000D01*
X108529648Y-96440000D01*
G37*
X108529648Y-96440000D02*
X98757440Y-96440000D01*
X98757440Y-96360000D01*
X108449648Y-96360000D01*
X108529648Y-96440000D01*
G36*
X103694592Y-94401500D02*
X98757440Y-94401500D01*
X98757440Y-94398500D01*
X103695838Y-94398500D01*
X103694592Y-94401500D01*
X103694592Y-94401500D01*
G37*
X103694592Y-94401500D02*
X98757440Y-94401500D01*
X98757440Y-94398500D01*
X103695838Y-94398500D01*
X103694592Y-94401500D01*
G36*
X114430232Y-92268287D02*
X114429769Y-92799383D01*
X114529190Y-93040000D01*
X112660000Y-93040000D01*
X112660000Y-92407110D01*
X112602148Y-92116271D01*
X112564549Y-92060000D01*
X114516720Y-92060000D01*
X114430232Y-92268287D01*
X114430232Y-92268287D01*
G37*
X114430232Y-92268287D02*
X114429769Y-92799383D01*
X114529190Y-93040000D01*
X112660000Y-93040000D01*
X112660000Y-92407110D01*
X112602148Y-92116271D01*
X112564549Y-92060000D01*
X114516720Y-92060000D01*
X114430232Y-92268287D01*
G36*
X108029648Y-92440000D02*
X98757440Y-92440000D01*
X98757440Y-92360000D01*
X107949648Y-92360000D01*
X108029648Y-92440000D01*
X108029648Y-92440000D01*
G37*
X108029648Y-92440000D02*
X98757440Y-92440000D01*
X98757440Y-92360000D01*
X107949648Y-92360000D01*
X108029648Y-92440000D01*
G36*
X102894592Y-90401500D02*
X98757440Y-90401500D01*
X98757440Y-90398500D01*
X102895838Y-90398500D01*
X102894592Y-90401500D01*
X102894592Y-90401500D01*
G37*
X102894592Y-90401500D02*
X98757440Y-90401500D01*
X98757440Y-90398500D01*
X102895838Y-90398500D01*
X102894592Y-90401500D01*
G36*
X108639990Y-88487737D02*
X108400000Y-88440000D01*
X98757440Y-88440000D01*
X98757440Y-88360000D01*
X108639990Y-88360000D01*
X108639990Y-88487737D01*
X108639990Y-88487737D01*
G37*
X108639990Y-88487737D02*
X108400000Y-88440000D01*
X98757440Y-88440000D01*
X98757440Y-88360000D01*
X108639990Y-88360000D01*
X108639990Y-88487737D01*
G36*
X102123830Y-86401500D02*
X98757440Y-86401500D01*
X98757440Y-86398500D01*
X102125076Y-86398500D01*
X102123830Y-86401500D01*
X102123830Y-86401500D01*
G37*
X102123830Y-86401500D02*
X98757440Y-86401500D01*
X98757440Y-86398500D01*
X102125076Y-86398500D01*
X102123830Y-86401500D01*
G36*
X101476100Y-82401500D02*
X98757440Y-82401500D01*
X98757440Y-82398500D01*
X101479105Y-82398500D01*
X101476100Y-82401500D01*
X101476100Y-82401500D01*
G37*
X101476100Y-82401500D02*
X98757440Y-82401500D01*
X98757440Y-82398500D01*
X101479105Y-82398500D01*
X101476100Y-82401500D01*
G36*
X99590000Y-80364802D02*
X99590000Y-80440000D01*
X98757440Y-80440000D01*
X98757440Y-80360000D01*
X99585198Y-80360000D01*
X99590000Y-80364802D01*
X99590000Y-80364802D01*
G37*
X99590000Y-80364802D02*
X99590000Y-80440000D01*
X98757440Y-80440000D01*
X98757440Y-80360000D01*
X99585198Y-80360000D01*
X99590000Y-80364802D01*
M02*
